<svg width="42" height="56" viewBox="0 0 42 56" fill="none" xmlns="http://www.w3.org/2000/svg">
<rect width="42" height="56" rx="4" fill="white"/>
<rect x="8.5" y="9.5" width="24" height="37" rx="1.5" stroke="#262C86"/>
<path d="M28.5 44.5C28.5 43.3954 29.3954 42.5 30.5 42.5H32.5V45C32.5 45.8284 31.8284 46.5 31 46.5H28.5V44.5Z" stroke="#262C86"/>
<path d="M10.5 42.5C11.6046 42.5 12.5 43.3954 12.5 44.5L12.5 46.5L10 46.5C9.17157 46.5 8.5 45.8284 8.5 45L8.5 42.5L10.5 42.5Z" stroke="#262C86"/>
<path d="M12.5 11.5C12.5 12.6046 11.6046 13.5 10.5 13.5L8.5 13.5L8.5 11C8.5 10.1716 9.17157 9.5 10 9.5L12.5 9.5L12.5 11.5Z" stroke="#262C86"/>
<path d="M30.5 13.5C29.3954 13.5 28.5 12.6046 28.5 11.5L28.5 9.5L31 9.5C31.8284 9.5 32.5 10.1716 32.5 11L32.5 13.5L30.5 13.5Z" stroke="#262C86"/>
<path fill-rule="evenodd" clip-rule="evenodd" d="M7 6C5.89543 6 5 6.89543 5 8V48C5 49.1046 5.89543 50 7 50H34C35.1046 50 36 49.1046 36 48V8C36 6.89543 35.1046 6 34 6H7ZM8 8C7.44772 8 7 8.44771 7 9V47C7 47.5523 7.44771 48 8 48H33C33.5523 48 34 47.5523 34 47V9C34 8.44772 33.5523 8 33 8H8Z" fill="#262C86"/>
</svg>
