<svg width="42" height="56" viewBox="0 0 42 56" fill="none" xmlns="http://www.w3.org/2000/svg">
<path fill-rule="evenodd" clip-rule="evenodd" d="M16 10.5C16 11.7732 15.3202 12.8876 14.3038 13.5C14.8555 13.8325 15.3081 14.3128 15.6065 14.8862C16.2326 14.6687 16.9081 14.6343 17.5498 14.7828C17.2696 13.6344 17.5779 12.3718 18.4749 11.4749C19.1649 10.7849 20.0712 10.4432 20.9756 10.4498C21.8794 10.4436 22.7852 10.7852 23.4749 11.4749C24.3718 12.3718 24.6802 13.6344 24.3999 14.7828C25.0562 14.6309 25.7478 14.6704 26.3857 14.9012C26.684 14.3212 27.1397 13.8354 27.6962 13.5C26.6798 12.8876 26 11.7732 26 10.5C26 8.567 27.567 7 29.5 7C31.433 7 33 8.567 33 10.5C33 11.7732 32.3202 12.8876 31.3038 13.5C32.3202 14.1124 33 15.2268 33 16.5C33 17.7647 32.3292 18.8727 31.3241 19.4877C31.5317 19.621 31.7283 19.7785 31.9099 19.9602C31.9209 19.9711 31.9317 19.9821 31.9425 19.9932C32.5949 20.6289 33 21.5171 33 22.5C33 24.433 31.433 26 29.5 26C28.5169 26 27.6285 25.5947 26.9928 24.9421L26.9602 24.9099C26.0599 24.0096 25.7526 22.741 26.0382 21.5892C24.8865 21.8748 23.6178 21.5675 22.7175 20.6673C21.8206 19.7703 21.5122 18.5077 21.7924 17.3593C21.5235 17.4216 21.2487 17.4517 20.9741 17.4497C20.7 17.4515 20.4257 17.4214 20.1573 17.3593C20.4375 18.5077 20.1292 19.7703 19.2322 20.6673C18.332 21.5675 17.0633 21.8748 15.9115 21.5892C16.0447 22.1265 16.049 22.6892 15.9242 23.228C15.5891 24.8116 14.1834 26 12.5 26C10.567 26 9 24.433 9 22.5C9 22.2161 9.03381 21.94 9.09763 21.6757C9.23672 21.047 9.55079 20.4492 10.0398 19.9602C10.2287 19.7713 10.4337 19.6086 10.6505 19.472C9.65944 18.8539 9 17.754 9 16.5C9 15.2268 9.67979 14.1124 10.6962 13.5C9.67979 12.8876 9 11.7732 9 10.5C9 8.567 10.567 7 12.5 7C14.433 7 16 8.567 16 10.5ZM12.5 8C12.2239 8 12 8.22386 12 8.5V22.5C12 22.5463 12.0063 22.5912 12.0181 22.6338C12.0275 22.7476 12.0758 22.8589 12.1628 22.9459C12.3581 23.1412 12.6747 23.1412 12.87 22.9459L21.0544 14.7615L29.0798 22.7869C29.0911 22.7982 29.1027 22.8088 29.1148 22.8188C29.2065 22.9295 29.345 23 29.5 23C29.7761 23 30 22.7761 30 22.5V8.5C30 8.22386 29.7761 8 29.5 8C29.2239 8 29 8.22386 29 8.5V21.2929L21.4136 13.7065C21.2222 13.5151 20.9143 13.5113 20.7183 13.695C20.6936 13.7121 20.6701 13.7316 20.6481 13.7536L13 21.4017V8.5C13 8.22386 12.7761 8 12.5 8Z" fill="#3A8227"/>
<path fill-rule="evenodd" clip-rule="evenodd" d="M26 45.5C26 44.2268 26.6798 43.1124 27.6962 42.5C27.1445 42.1675 26.6919 41.6872 26.3935 41.1138C25.7674 41.3313 25.0919 41.3657 24.4502 41.2172C24.7304 42.3656 24.4221 43.6282 23.5251 44.5251C22.8351 45.2151 21.9288 45.5568 21.0244 45.5502C20.1206 45.5564 19.2148 45.2148 18.5251 44.5251C17.6282 43.6282 17.3198 42.3656 17.6001 41.2172C16.9438 41.3691 16.2522 41.3296 15.6143 41.0988C15.316 41.6788 14.8603 42.1646 14.3038 42.5C15.3202 43.1124 16 44.2268 16 45.5C16 47.433 14.433 49 12.5 49C10.567 49 9 47.433 9 45.5C9 44.2268 9.67979 43.1124 10.6962 42.5C9.67979 41.8876 9 40.7732 9 39.5C9 38.2353 9.67077 37.1273 10.6759 36.5123C10.4683 36.3789 10.2717 36.2215 10.0901 36.0398C10.0791 36.0289 10.0683 36.0179 10.0575 36.0068C9.40514 35.3711 9 34.4829 9 33.5C9 31.567 10.567 30 12.5 30C13.4831 30 14.3715 30.4053 15.0072 31.0579L15.0398 31.0901C15.9401 31.9904 16.2474 33.259 15.9618 34.4108C17.1135 34.1252 18.3822 34.4325 19.2825 35.3327C20.1794 36.2297 20.4878 37.4923 20.2076 38.6407C20.4765 38.5784 20.7513 38.5483 21.0259 38.5503C21.3 38.5485 21.5743 38.5786 21.8427 38.6407C21.5625 37.4923 21.8708 36.2297 22.7678 35.3327C23.668 34.4325 24.9367 34.1252 26.0885 34.4108C25.9553 33.8735 25.951 33.3108 26.0758 32.772C26.4109 31.1884 27.8167 30 29.5 30C31.433 30 33 31.567 33 33.5C33 33.7839 32.9662 34.06 32.9024 34.3243C32.7633 34.953 32.4492 35.5508 31.9602 36.0398C31.7713 36.2287 31.5663 36.3914 31.3495 36.528C32.3406 37.1461 33 38.246 33 39.5C33 40.7732 32.3202 41.8876 31.3038 42.5C32.3202 43.1124 33 44.2268 33 45.5C33 47.433 31.433 49 29.5 49C27.567 49 26 47.433 26 45.5ZM29.5 48C29.7761 48 30 47.7761 30 47.5L30 33.5C30 33.4537 29.9937 33.4088 29.9819 33.3662C29.9725 33.2524 29.9242 33.1411 29.8372 33.0541C29.6419 32.8588 29.3253 32.8588 29.1301 33.0541L20.9456 41.2385L12.9202 33.2131C12.9089 33.2018 12.8973 33.1912 12.8852 33.1812C12.7935 33.0705 12.655 33 12.5 33C12.2239 33 12 33.2239 12 33.5L12 47.5C12 47.7761 12.2239 48 12.5 48C12.7761 48 13 47.7761 13 47.5L13 34.7071L20.5864 42.2935C20.7778 42.4849 21.0857 42.4887 21.2817 42.305C21.3064 42.2879 21.3299 42.2684 21.3519 42.2464L29 34.5983L29 47.5C29 47.7761 29.2239 48 29.5 48Z" fill="#3A8227"/>
</svg>
