<svg width="42" height="56" viewBox="0 0 42 56" fill="none" xmlns="http://www.w3.org/2000/svg">
<circle cx="14" cy="48" r="5.25" stroke="#262C86" stroke-width="1.5"/>
<circle cx="14" cy="47.9" r="3" stroke="#262C86"/>
<circle cx="14" cy="48" r="1" fill="#262C86"/>
<circle cx="14" cy="22" r="5.25" stroke="#262C86" stroke-width="1.5"/>
<circle cx="14" cy="21.9" r="3" stroke="#262C86"/>
<circle cx="14" cy="22" r="1" fill="#262C86"/>
<circle cx="14" cy="35" r="5.25" stroke="#262C86" stroke-width="1.5"/>
<circle cx="14" cy="34.9" r="3" stroke="#262C86"/>
<circle cx="14" cy="35" r="1" fill="#262C86"/>
<circle cx="14" cy="9" r="5.25" stroke="#262C86" stroke-width="1.5"/>
<circle cx="14" cy="8.89999" r="3" stroke="#262C86"/>
<circle cx="14" cy="9" r="1" fill="#262C86"/>
<circle cx="27" cy="35" r="5.25" stroke="#262C86" stroke-width="1.5"/>
<circle cx="27" cy="34.9" r="3" stroke="#262C86"/>
<circle cx="27" cy="35" r="1" fill="#262C86"/>
<circle cx="27" cy="9" r="5.25" stroke="#262C86" stroke-width="1.5"/>
<circle cx="27" cy="8.89999" r="3" stroke="#262C86"/>
<circle cx="27" cy="9" r="1" fill="#262C86"/>
<circle cx="27" cy="48" r="5.25" stroke="#262C86" stroke-width="1.5"/>
<circle cx="27" cy="47.9" r="3" stroke="#262C86"/>
<circle cx="27" cy="48" r="1" fill="#262C86"/>
<circle cx="27" cy="22" r="5.25" stroke="#262C86" stroke-width="1.5"/>
<circle cx="27" cy="21.9" r="3" stroke="#262C86"/>
<circle cx="27" cy="22" r="1" fill="#262C86"/>
</svg>
