<svg width="42" height="56" viewBox="0 0 42 56" fill="none" xmlns="http://www.w3.org/2000/svg">
<rect width="42" height="56" rx="4" fill="white"/>
<path d="M4.9707 22.2148L6.03711 22.0918C6.76172 22.0098 7.62988 21.9072 8.6416 21.7842C9.65332 21.6611 10.6377 21.5381 11.5947 21.415C12.4287 21.3057 13.0986 21.2168 13.6045 21.1484C13.4404 19.5625 13.3037 18.5781 13.1943 18.1953C13.0986 17.9219 12.9961 17.5938 12.8867 17.2109C12.791 16.8145 12.6885 16.4248 12.5791 16.042C12.4834 15.6592 12.4082 15.3379 12.3535 15.0781L12.251 14.668C12.5928 14.8594 13.1123 15.0029 13.8096 15.0986C14.6572 15.1943 15.6484 15.4541 16.7832 15.8779C17.3027 16.2061 17.665 17.5869 17.8701 20.0205C18.0889 22.4404 18.1914 25.2021 18.1777 28.3057C18.1641 31.4092 18.0752 34.1572 17.9111 36.5498C17.7471 38.9424 17.5352 40.2686 17.2754 40.5283C16.9883 40.6787 16.4414 40.7266 15.6348 40.6719C14.8418 40.6172 14.0352 40.46 13.2148 40.2002C12.3945 39.9404 11.7998 39.5781 11.4307 39.1133C11.0752 38.6484 11.1777 38.0674 11.7383 37.3701C12.5859 36.2627 13.1738 34.7725 13.502 32.8994C13.0371 33.4053 12.3945 33.9453 11.5742 34.5195C10.6719 35.1484 9.74902 35.7363 8.80566 36.2832C7.8623 36.8164 7.07617 37.2061 6.44727 37.4521C5.83203 37.6846 5.56543 37.6846 5.64746 37.4521C5.77051 37.124 5.75684 36.6182 5.60645 35.9346C5.45605 35.251 5.26465 34.5605 5.03223 33.8633C4.7998 33.166 4.61523 32.6328 4.47852 32.2637C4.4375 32.127 4.40332 32.0381 4.37598 31.9971L13.8711 28.6953C13.9121 27.5469 13.9189 26.4189 13.8916 25.3115C13.0576 25.3389 12.21 25.4961 11.3486 25.7832C11.1846 25.8652 11.0273 25.9336 10.877 25.9883C9.86523 26.4531 9.04492 26.7471 8.41602 26.8701C7.80078 26.9795 7.38379 26.7334 7.16504 26.1318C7.00098 25.6533 6.76172 25.127 6.44727 24.5527C6.13281 23.9785 5.8252 23.4727 5.52441 23.0352C5.2373 22.584 5.05273 22.3105 4.9707 22.2148ZM21.7666 14.627L22.5664 14.75C23.0996 14.8457 23.7217 14.9551 24.4326 15.0781C25.1436 15.2012 25.7998 15.3105 26.4014 15.4062C27.0166 15.4883 27.4268 15.5361 27.6318 15.5498C27.7959 15.5908 27.8369 16.1104 27.7549 17.1084C27.6729 18.1064 27.543 19.3643 27.3652 20.8818C27.1875 22.3447 27.0303 23.8486 26.8936 25.3936C27.0986 25.2295 27.3105 25.0586 27.5293 24.8809C28.3223 24.2383 29.0264 23.6367 29.6416 23.0762C30.2705 22.5156 30.6191 22.1396 30.6875 21.9482C30.7012 21.8252 30.7285 21.6543 30.7695 21.4355C30.8105 21.1348 30.8652 20.793 30.9336 20.4102C31.002 20.0137 31.0703 19.6445 31.1387 19.3027C31.2207 18.9473 31.3027 18.6875 31.3848 18.5234C31.4805 18.3457 31.5693 18.3252 31.6514 18.4619C31.8975 18.8174 32.3555 19.1797 33.0254 19.5488C34.1738 20.0957 35.2949 21.1348 36.3887 22.666C36.6621 23.2676 36.3408 23.9443 35.4248 24.6963C34.5088 25.4346 33.4629 26.0771 32.2871 26.624C31.125 27.1709 30.2842 27.4512 29.7646 27.4648C29.4229 27.4648 28.9648 27.4512 28.3906 27.4238C27.8438 27.4102 27.29 27.3896 26.7295 27.3623C26.6338 28.8389 26.627 30.124 26.709 31.2178C26.873 33.2822 27.2832 34.499 27.9395 34.8682C28.6094 35.2373 30.0107 35.2715 32.1436 34.9707C32.499 34.9297 32.8818 34.8887 33.292 34.8477C33.7568 34.8066 34.2832 34.7178 34.8711 34.5811C35.4727 34.4307 36.0537 34.2734 36.6143 34.1094C37.1885 33.9453 37.667 33.8018 38.0498 33.6787L38.624 33.4941L38.3369 33.9453C38.1455 34.2461 37.9473 34.6699 37.7422 35.2168C37.5508 35.7637 37.4346 36.4131 37.3936 37.165C37.3799 37.4932 37.3799 37.7939 37.3936 38.0674C37.4209 38.5869 37.3799 39.0107 37.2705 39.3389C37.1748 39.6533 36.874 39.8857 36.3682 40.0361C35.8623 40.1729 35.0215 40.2412 33.8457 40.2412C30.8242 40.3506 28.1855 40.166 25.9297 39.6875C23.6875 39.209 22.4775 38.1631 22.2998 36.5498C22.2998 35.8525 22.3066 34.7998 22.3203 33.3916C22.3477 31.5186 22.3613 29.4268 22.3613 27.1162C22.375 24.8057 22.3545 22.7344 22.2998 20.9023C22.2451 19.0566 22.1357 17.9014 21.9717 17.4365C21.7666 16.9307 21.6504 16.4658 21.623 16.042C21.6094 15.6182 21.6299 15.2764 21.6846 15.0166L21.7666 14.627Z" fill="#262C86"/>
</svg>
