<svg width="42" height="56" viewBox="0 0 42 56" fill="none" xmlns="http://www.w3.org/2000/svg">
<circle cx="21" cy="28" r="14.25" stroke="#3A8227" stroke-width="1.5"/>
<circle cx="21" cy="28" r="5.5" stroke="#3A8227"/>
<path fill-rule="evenodd" clip-rule="evenodd" d="M33 28C33 34.6274 27.6274 40 21 40C14.3726 40 9 34.6274 9 28C9 21.3726 14.3726 16 21 16C27.6274 16 33 21.3726 33 28ZM21.5 33.9795C21.3351 33.9931 21.1684 34 21 34C20.8316 34 20.6649 33.9931 20.5 33.9795V36.5C20.5 36.7761 20.7239 37 21 37C21.2761 37 21.5 36.7761 21.5 36.5V33.9795ZM23.0411 33.6439L24 37L21 39.5L18 37L18.9589 33.6439C18.7863 33.5815 18.6174 33.5113 18.4526 33.4339L16.7574 36.4853L12.8683 36.1317L12.5147 32.2426L15.5661 30.5474C15.4887 30.3826 15.4185 30.2137 15.3561 30.0411L12 31L9.5 28L12 25L15.3561 25.9589C15.4186 25.7863 15.4887 25.6173 15.5661 25.4525L12.5148 23.7573L12.8683 19.8683L16.7574 19.5147L18.4526 22.5661C18.6174 22.4887 18.7863 22.4185 18.9589 22.3561L18 19L21 16.5L24 19L23.0411 22.3561C23.2137 22.4185 23.3826 22.4887 23.5475 22.5661L25.2427 19.5147L29.1318 19.8683L29.4853 23.7574L26.4339 25.4526C26.5113 25.6174 26.5815 25.7863 26.6439 25.9589L30 25L32.5 28L30 31L26.6439 30.0411C26.5815 30.2137 26.5113 30.3826 26.4339 30.5474L29.4853 32.2426L29.1317 36.1317L25.2426 36.4853L23.5474 33.4339C23.3826 33.5113 23.2137 33.5815 23.0411 33.6439ZM24.8744 32.5815L26.6569 34.364C26.8521 34.5592 27.1687 34.5592 27.364 34.364C27.5592 34.1687 27.5592 33.8521 27.364 33.6569L25.5815 31.8744C25.3658 32.1292 25.1292 32.3658 24.8744 32.5815ZM26.9795 28.5H29.5C29.7761 28.5 30 28.2761 30 28C30 27.7239 29.7761 27.5 29.5 27.5H26.9795C26.9931 27.6649 27 27.8316 27 28C27 28.1684 26.9931 28.3351 26.9795 28.5ZM25.5815 24.1256L27.364 22.3431C27.5593 22.1479 27.5593 21.8313 27.364 21.636C27.1687 21.4408 26.8521 21.4408 26.6569 21.636L24.8744 23.4185C25.1293 23.6342 25.3658 23.8708 25.5815 24.1256ZM21.5 22.0205C21.3351 22.0069 21.1684 22 21 22C20.8316 22 20.6649 22.0069 20.5 22.0205V19.5C20.5 19.2239 20.7239 19 21 19C21.2761 19 21.5 19.2239 21.5 19.5V22.0205ZM17.1256 23.4184L15.3432 21.636C15.1479 21.4408 14.8313 21.4408 14.6361 21.636C14.4408 21.8313 14.4408 22.1479 14.6361 22.3431L16.4185 24.1256C16.6342 23.8707 16.8708 23.6342 17.1256 23.4184ZM15.0205 27.5H12.5C12.2239 27.5 12 27.7238 12 28C12 28.2761 12.2239 28.5 12.5 28.5H15.0205C15.0069 28.3351 15 28.1684 15 28C15 27.8316 15.0069 27.6649 15.0205 27.5ZM16.4185 31.8744L14.636 33.6569C14.4408 33.8521 14.4408 34.1687 14.636 34.364C14.8313 34.5592 15.1479 34.5592 15.3431 34.364L17.1256 32.5815C16.8708 32.3658 16.6342 32.1292 16.4185 31.8744Z" fill="#3A8227"/>
<path fill-rule="evenodd" clip-rule="evenodd" d="M21 32C23.2091 32 25 30.2091 25 28C25 25.7909 23.2091 24 21 24C18.7909 24 17 25.7909 17 28C17 30.2091 18.7909 32 21 32ZM21.5937 24.8387C21.6575 24.6174 21.8687 24.4779 22.0932 24.5294C22.4983 24.6223 23.1453 24.842 23.6517 25.3483C24.158 25.8547 24.3777 26.5017 24.4706 26.9068C24.5221 27.1313 24.3826 27.3425 24.1613 27.4063C23.4086 27.6234 21.7494 28.0423 21.3536 27.6464C20.9577 27.2506 21.3766 25.5914 21.5937 24.8387ZM17.8387 28.5937C17.6174 28.6575 17.4779 28.8687 17.5294 29.0932C17.6223 29.4983 17.842 30.1453 18.3483 30.6516C18.8547 31.158 19.5017 31.3777 19.9068 31.4706C20.1313 31.5221 20.3425 31.3826 20.4063 31.1613C20.6234 30.4086 21.0423 28.7494 20.6464 28.3536C20.2506 27.9577 18.5914 28.3766 17.8387 28.5937ZM24.4706 29.0932C24.5221 28.8687 24.3826 28.6575 24.1613 28.5937C23.4086 28.3766 21.7494 27.9577 21.3536 28.3536C20.9577 28.7494 21.3766 30.4086 21.5937 31.1613C21.6575 31.3826 21.8687 31.5221 22.0932 31.4706C22.4983 31.3777 23.1453 31.158 23.6517 30.6516C24.158 30.1453 24.3777 29.4983 24.4706 29.0932ZM20.4063 24.8387C20.3425 24.6174 20.1313 24.4779 19.9068 24.5294C19.5017 24.6223 18.8547 24.842 18.3483 25.3483C17.842 25.8547 17.6223 26.5017 17.5294 26.9068C17.4779 27.1313 17.6174 27.3425 17.8387 27.4063C18.5914 27.6234 20.2506 28.0423 20.6464 27.6464C21.0423 27.2506 20.6234 25.5914 20.4063 24.8387Z" fill="#AC391B"/>
</svg>
