<svg width="42" height="56" viewBox="0 0 42 56" fill="none" xmlns="http://www.w3.org/2000/svg">
<rect width="42" height="56" rx="4" fill="white"/>
<path d="M9.30275 19.4053C9.93165 19.5693 10.6426 19.6309 11.4356 19.5898C12.0371 19.5625 12.5772 19.5898 13.0557 19.6719C13.5479 19.7402 13.8828 19.9453 14.0606 20.2871C14.0879 20.3555 14.1221 20.4512 14.1631 20.5742C15.0654 20.4102 16.1455 20.2119 17.4033 19.9795C17.8135 19.9111 18.21 19.8496 18.5928 19.7949C18.5791 19.0293 18.5586 18.332 18.5313 17.7031C18.2988 17.7305 18.0733 17.7578 17.8545 17.7852C14.8877 18.25 12.7139 18.6807 11.333 19.0771C10.3897 19.3232 9.46681 19.3096 8.56447 19.0361C7.6758 18.7627 6.88283 18.3799 6.18556 17.8877C5.4883 17.3818 4.94826 16.917 4.56544 16.4932C4.1963 16.0557 4.05958 15.8096 4.15529 15.7549C5.67287 15.3311 8.1133 14.8594 11.4766 14.3398C13.6231 14.0254 15.8584 13.7246 18.1826 13.4375C18.1279 13.2051 18.0733 13.0479 18.0186 12.9658C17.7588 12.624 17.5811 12.2754 17.4854 11.9199C17.4033 11.5645 17.3623 11.2363 17.3623 10.9355C17.3623 10.6348 17.3828 10.3887 17.4238 10.1973L17.4854 9.91016L18.1211 10.0742C18.5313 10.1699 19.0303 10.293 19.6182 10.4434C20.2061 10.5801 20.7871 10.7236 21.3613 10.874C21.9356 11.0107 22.3936 11.1201 22.7354 11.2021C23.1455 11.3115 23.3643 11.4893 23.3916 11.7354C23.4326 11.9814 23.3985 12.2822 23.2891 12.6377C23.2617 12.7061 23.2412 12.7812 23.2276 12.8633C26.6045 12.5078 29.5508 12.2754 32.0664 12.166C34.8281 12.0293 36.3594 12.1318 36.6602 12.4736C36.8652 12.9932 36.7901 13.6494 36.4346 14.4424C36.0791 15.2354 35.5322 15.8984 34.794 16.4316C34.0694 16.9648 33.2627 17.1016 32.374 16.8418C31.3623 16.5547 29.4277 16.5273 26.5703 16.7598C25.4356 16.8555 24.2871 16.9648 23.125 17.0879C23.125 17.6621 23.1319 18.3184 23.1455 19.0566C24.0889 18.9062 24.8887 18.7764 25.5449 18.667C27.0762 18.4209 28.0879 18.373 28.5801 18.5234L28.6416 18.0107C28.9014 18.0654 29.4141 18.2637 30.1797 18.6055C30.959 18.9336 31.7178 19.2822 32.4561 19.6514C33.208 20.0205 33.6797 20.2939 33.8711 20.4717C33.9531 20.6221 33.7959 21.0938 33.3994 21.8867C33.0029 22.666 32.4424 23.876 31.7178 25.5166C31.0069 27.1299 30.3438 28.292 29.7285 29.0029C29.961 29.208 30.1524 29.4404 30.3027 29.7002C30.6172 30.4248 30.3643 31.0127 29.544 31.4639C28.7236 31.9014 27.6094 31.9834 26.2012 31.71C25.6133 31.6006 24.6084 31.6074 23.1865 31.7305C23.2002 33.6309 23.2139 34.8818 23.2276 35.4834C23.2549 36.8369 23.2822 38.1699 23.3096 39.4824C23.3506 40.7949 23.3848 41.8613 23.4121 42.6816C23.3711 43.3516 22.9404 43.9531 22.1201 44.4863C21.2998 45.0332 20.4453 45.3408 19.5567 45.4092C19.1602 45.4229 18.8799 45.3408 18.7158 45.1631C18.5518 44.9854 18.4151 44.7598 18.3057 44.4863C18.1963 44.1855 18.0254 43.8848 17.793 43.584C17.5742 43.2969 17.1914 43.0508 16.6445 42.8457C15.5645 42.4766 14.7852 42.2373 14.3067 42.1279L13.5889 41.9639L14.2656 41.8408C14.7031 41.7588 15.2158 41.6289 15.8037 41.4512C16.3916 41.2871 16.9248 41.0684 17.4033 40.7949C17.8955 40.5215 18.21 40.1865 18.3467 39.79C18.4971 39.2021 18.6133 38.1699 18.6953 36.6934C18.7363 35.9277 18.7569 34.4648 18.7569 32.3047C17.335 32.5234 16.1865 32.7217 15.3115 32.8994C14.4092 33.0771 13.6709 33.2139 13.0967 33.3096C12.5225 33.3916 12.2149 33.3848 12.1738 33.2891C12.1192 33.084 11.9072 32.7559 11.5381 32.3047C11.169 31.8535 10.7861 31.416 10.3897 30.9922C10.0069 30.5684 9.76076 30.3086 9.65138 30.2129L11.2305 30.0488C11.3262 30.0352 11.4219 30.0283 11.5176 30.0283C11.4082 29.6455 11.2852 29.2012 11.1485 28.6953C10.8477 27.4375 10.5537 26.0977 10.2666 24.6758C9.99318 23.2539 9.76759 22.0234 9.58986 20.9844L9.30275 19.4053ZM11.8457 33.8838C11.791 33.7881 11.8936 33.8018 12.1533 33.9248C12.4268 34.0479 12.7686 34.2529 13.1787 34.54C13.5889 34.8135 13.9717 35.1279 14.3272 35.4834C14.6963 35.8389 14.9561 36.1943 15.1065 36.5498C15.2569 37.0283 15.0381 37.6162 14.4502 38.3135C13.876 38.9971 13.1582 39.5918 12.2969 40.0977C11.4492 40.5898 10.6768 40.7949 9.97951 40.7129L7.10841 40.0156L7.84669 39.1133C8.33888 38.5117 8.89943 37.8213 9.52833 37.042C10.1572 36.2627 10.6973 35.5654 11.1485 34.9502C11.6133 34.335 11.8457 33.9795 11.8457 33.8838ZM26.7139 33.3916L27.7598 33.9043C28.4707 34.2324 29.3047 34.6357 30.2617 35.1143C31.2324 35.5791 32.1416 36.0439 32.9893 36.5088C33.8506 36.9736 34.4658 37.3496 34.835 37.6367C35.2178 38.0469 35.1358 38.5938 34.5889 39.2773C34.042 39.9473 33.3447 40.5352 32.4971 41.041C31.6494 41.5469 30.9727 41.7383 30.4668 41.6152C30.125 41.4648 29.7422 40.9727 29.3184 40.1387C28.8945 39.3047 28.4844 38.3682 28.0879 37.3291C27.7051 36.29 27.377 35.374 27.1035 34.5811L26.7139 33.3916ZM14.4912 23.5684C14.5186 24.0332 14.5527 24.5254 14.5938 25.0449C14.6621 25.0449 14.7305 25.0381 14.7988 25.0244C15.6602 24.8877 16.6787 24.71 17.8545 24.4912C18.1416 24.4502 18.4219 24.4092 18.6953 24.3682C18.6953 24.2725 18.6953 24.1836 18.6953 24.1016C18.6817 23.6094 18.668 23.1377 18.6543 22.6865C17.2871 22.8779 16.3574 23.083 15.8652 23.3018C15.4551 23.4248 15.1133 23.5068 14.8399 23.5479C14.7168 23.5615 14.6006 23.5684 14.4912 23.5684ZM28.1699 21.5791C27.459 21.8936 26.3311 22.0645 24.7861 22.0918C24.2119 22.1328 23.6651 22.1738 23.1455 22.2148C23.1455 22.6934 23.1455 23.1924 23.1455 23.7119C23.6377 23.6436 24.0547 23.582 24.3965 23.5273C25.5586 23.3496 26.2217 23.3154 26.3858 23.4248C26.4951 23.5752 26.5977 23.835 26.6934 24.2041C26.7891 24.5732 26.8233 24.9697 26.7959 25.3936C26.7686 25.8037 26.6113 26.1455 26.3242 26.4189C26.0508 26.6787 25.586 26.7744 24.9297 26.7061C24.4922 26.665 23.9043 26.6787 23.166 26.7471C23.166 27.3896 23.166 27.998 23.166 28.5723C24.1367 28.4355 24.7861 28.3193 25.1143 28.2236C25.9756 28.0049 26.8233 27.9639 27.6572 28.1006C27.6436 27.6221 27.6504 27.0957 27.6777 26.5215C27.7324 25.5234 27.8555 24.1973 28.0469 22.543C28.0879 22.2012 28.1289 21.8799 28.1699 21.5791ZM14.9014 29.6387C14.9287 29.6387 14.9492 29.6387 14.9629 29.6387C15.9746 29.5156 17.2324 29.3584 18.7363 29.167C18.7363 28.6201 18.7295 28.0391 18.7158 27.4238C17.7725 27.5879 17.041 27.7451 16.5215 27.8955C16.0293 28.0322 15.626 28.1348 15.3115 28.2031C15.0108 28.2715 14.8399 28.2783 14.7988 28.2236C14.7988 28.21 14.792 28.1963 14.7783 28.1826C14.8194 28.6338 14.8535 29.0645 14.8809 29.4746C14.8945 29.5293 14.9014 29.584 14.9014 29.6387Z" fill="#262C86"/>
</svg>
