<svg width="42" height="56" viewBox="0 0 42 56" fill="none" xmlns="http://www.w3.org/2000/svg">
<path fill-rule="evenodd" clip-rule="evenodd" d="M24 10.5C24 11.7732 23.3202 12.8876 22.3038 13.5C23.3202 14.1124 24 15.2268 24 16.5C24 17.7732 23.3202 18.8876 22.3038 19.5C23.3202 20.1124 24 21.2268 24 22.5C24 24.433 22.433 26 20.5 26C18.567 26 17 24.433 17 22.5C17 21.2268 17.6798 20.1124 18.6962 19.5C17.6798 18.8876 17 17.7732 17 16.5C17 15.2268 17.6798 14.1124 18.6962 13.5C17.6798 12.8876 17 11.7732 17 10.5C17 8.567 18.567 7 20.5 7C22.433 7 24 8.567 24 10.5ZM20.5 8C20.2239 8 20 8.22386 20 8.5V24.5C20 24.7761 20.2239 25 20.5 25C20.7761 25 21 24.7761 21 24.5V8.5C21 8.22386 20.7761 8 20.5 8Z" fill="#3A8227"/>
<path fill-rule="evenodd" clip-rule="evenodd" d="M24 32.5C24 33.7732 23.3202 34.8876 22.3038 35.5C23.3202 36.1124 24 37.2268 24 38.5C24 39.7732 23.3202 40.8876 22.3038 41.5C23.3202 42.1124 24 43.2268 24 44.5C24 46.433 22.433 48 20.5 48C18.567 48 17 46.433 17 44.5C17 43.2268 17.6798 42.1124 18.6962 41.5C17.6798 40.8876 17 39.7732 17 38.5C17 37.2268 17.6798 36.1124 18.6962 35.5C17.6798 34.8876 17 33.7732 17 32.5C17 30.567 18.567 29 20.5 29C22.433 29 24 30.567 24 32.5ZM20.5 30C20.2239 30 20 30.2239 20 30.5V46.5C20 46.7761 20.2239 47 20.5 47C20.7761 47 21 46.7761 21 46.5V30.5C21 30.2239 20.7761 30 20.5 30Z" fill="#3A8227"/>
</svg>
