<svg width="42" height="56" viewBox="0 0 42 56" fill="none" xmlns="http://www.w3.org/2000/svg">
<path d="M19.7158 13.1094C20.6182 12.918 21.7051 13.1162 22.9766 13.7041C23.2363 13.376 23.4756 13.0547 23.6943 12.7402C23.9951 12.3164 24.1455 12.0361 24.1455 11.8994C24.1455 11.8037 24.1455 11.667 24.1455 11.4893C24.1455 11.2432 24.1387 10.9629 24.125 10.6484C24.125 10.3203 24.1318 10.0127 24.1455 9.72559C24.1592 9.43848 24.1865 9.21973 24.2275 9.06934C24.2686 8.91895 24.3369 8.88477 24.4326 8.9668C24.6787 9.18555 25.1025 9.36328 25.7041 9.5C26.6338 9.66406 27.6592 10.1563 28.7803 10.9766C29.3135 11.4961 29.3682 12.043 28.9443 12.6172C28.5205 13.1914 27.9395 13.7041 27.2012 14.1553C26.4766 14.5928 25.916 14.8662 25.5195 14.9756C25.4375 15.0029 25.3555 15.0234 25.2734 15.0371C25.9707 15.5293 26.709 16.0967 27.4883 16.7393C28.2129 16.042 28.8555 15.4063 29.416 14.832C30.0449 14.1758 30.3525 13.7998 30.3389 13.7041C30.2842 13.5811 30.4004 13.5879 30.6875 13.7246C30.9883 13.8613 31.3574 14.0801 31.7949 14.3809C32.2461 14.6816 32.6699 15.0234 33.0664 15.4063C33.4766 15.7891 33.7637 16.1719 33.9277 16.5547C34.1055 17.0742 33.9209 17.5938 33.374 18.1133C32.8271 18.6328 32.1299 19.0498 31.2822 19.3643C31.0635 19.4463 30.8447 19.5147 30.626 19.5693C33.0596 21.5791 35.1787 22.9258 36.9834 23.6094L39.8135 24.6553C39.3076 24.4775 38.7334 24.5186 38.0908 24.7783C37.4619 25.0244 36.7988 25.3525 36.1016 25.7627C35.3633 26.1865 34.6182 26.5488 33.8662 26.8496C33.1143 27.1367 32.4033 27.2051 31.7334 27.0547C31.0908 26.8223 30.3867 26.207 29.6211 25.209C29.375 24.8945 29.1289 24.5596 28.8828 24.2041C28.8828 24.2451 28.876 24.2861 28.8623 24.3272C28.5342 26.2959 28.9785 27.2598 30.1953 27.2188C30.5098 27.1777 30.9131 27.1572 31.4053 27.1572C31.8975 27.1436 32.3896 27.1436 32.8818 27.1572C33.3877 27.1572 33.8184 27.1641 34.1738 27.1777L34.6865 27.1982C34.1943 27.2939 33.8457 27.5059 33.6406 27.834C33.4355 28.1484 33.2783 28.5039 33.1689 28.9004C33.0596 29.2969 32.9092 29.6592 32.7178 29.9873C32.5264 30.3018 32.1982 30.5273 31.7334 30.6641C31.0498 30.8145 30.3252 30.8486 29.5596 30.7666C28.7939 30.6846 28.1035 30.5547 27.4883 30.377C26.873 30.1855 26.4697 30.0215 26.2783 29.8848C26.1143 29.707 25.998 29.249 25.9297 28.5107C25.8613 27.7588 25.834 26.9658 25.8477 26.1318C25.875 25.2842 25.9297 24.6279 26.0117 24.1631C26.0117 24.1221 26.0117 24.0879 26.0117 24.0605C26.1621 23.5 26.1758 23.1514 26.0527 23.0147C25.9297 22.8779 25.5195 22.8369 24.8223 22.8916C24.125 22.9736 23.5166 23.1309 22.9971 23.3633C23.1475 23.6094 23.2637 23.9375 23.3457 24.3477C23.5371 25.1543 23.6465 26.0703 23.6738 27.0957C23.7012 28.1211 23.667 29.0303 23.5713 29.8232C23.4893 30.6162 23.3594 31.0674 23.1816 31.1768C22.9902 31.2451 22.6416 31.3203 22.1357 31.4023C21.6299 31.4707 21.1104 31.5049 20.5771 31.5049C20.0576 31.4912 19.6543 31.4023 19.3672 31.2383C19.0938 31.0605 19.0732 30.7666 19.3057 30.3564C19.6475 29.7549 19.873 29.0029 19.9824 28.1006C20.1055 27.1846 20.1533 26.3369 20.126 25.5576C20.1123 24.7783 20.0645 24.2793 19.9824 24.0605C19.9141 23.9238 19.8389 23.7598 19.7568 23.5684C19.6885 23.3633 19.6201 23.165 19.5518 22.9736C19.4834 22.7686 19.4219 22.5977 19.3672 22.4609L19.3057 22.2559C19.5518 22.3516 19.9209 22.4268 20.4131 22.4814C20.7822 22.5225 21.1855 22.5908 21.623 22.6865C21.6094 22.6729 21.5957 22.6523 21.582 22.625C21.3086 22.1875 21.0352 21.7637 20.7617 21.3535C20.5977 21.1074 20.4746 20.916 20.3926 20.7793C20.3105 20.6426 20.3037 20.6152 20.3721 20.6973C20.5225 20.8066 20.9531 20.8272 21.6641 20.7588C22.375 20.6768 23.1816 20.5674 24.084 20.4307C24.8496 20.3213 25.5469 20.2256 26.1758 20.1436C26.0938 20.0205 26.0049 19.8975 25.9092 19.7744C25.4717 19.8291 25.082 19.8906 24.7402 19.959L23.9404 20.1436L24.9453 19.2002C25.0547 19.0908 25.1641 18.9814 25.2734 18.8721C25.1504 18.708 25.0273 18.5371 24.9043 18.3594C24.1113 17.334 23.3662 16.6846 22.6689 16.4111C21.8486 16.1377 21.2471 15.9805 20.8643 15.9395C20.4814 15.8848 20.2148 15.8711 20.0645 15.8984C19.9688 15.9121 19.873 15.9121 19.7773 15.8984C19.6953 15.8848 19.5928 15.8438 19.4697 15.7754C19.2373 15.625 19.0938 15.3584 19.0391 14.9756C18.9844 14.5791 19.0117 14.1963 19.1211 13.8272C19.2441 13.4443 19.4424 13.2051 19.7158 13.1094ZM5.77051 13.2324L6.7959 13.0684C7.47949 12.959 8.44336 12.6787 9.6875 12.2275C10.9727 11.749 12.251 11.4277 13.5225 11.2637C14.8076 11.0859 15.8262 11.209 16.5781 11.6328C17.3574 12.0977 17.9932 12.624 18.4854 13.2119C18.9775 13.7998 19.0186 14.3193 18.6084 14.7705C18.417 14.9346 18.1094 15.3516 17.6855 16.0215C17.2754 16.6914 16.7832 17.5049 16.209 18.4619C15.6621 19.3779 15.1016 20.3008 14.5273 21.2305C14.5684 21.2305 14.6094 21.2236 14.6504 21.21C15.7168 20.9365 16.4551 20.7998 16.8652 20.7998C17.1797 20.8408 17.5215 21.0596 17.8906 21.4561C18.2598 21.8389 18.5947 22.2764 18.8955 22.7686C19.21 23.2607 19.4424 23.6914 19.5928 24.0605C19.7568 24.4297 19.7842 24.6074 19.6748 24.5938C19.4287 24.5254 19.1279 24.6211 18.7725 24.8809C18.417 25.1406 18.1094 25.626 17.8496 26.3369C17.6582 26.8428 17.3506 27.3281 16.9268 27.793C16.8174 27.9297 16.7012 28.0527 16.5781 28.1621C16.8242 28.3809 17.0088 28.5928 17.1318 28.7979C17.1729 28.8525 17.207 28.9004 17.2344 28.9414C17.3574 29.1465 17.2686 29.3926 16.9678 29.6797C16.667 29.9668 16.2637 30.2129 15.7578 30.418C15.252 30.6094 14.7461 30.6572 14.2402 30.5615C13.8711 30.4932 13.4268 30.5068 12.9072 30.6025C12.3877 30.6846 11.8545 30.7871 11.3076 30.9102C10.8838 31.0195 10.4941 31.1016 10.1387 31.1563C10.002 31.4297 9.89258 31.8535 9.81055 32.4277C9.75586 32.8379 9.71484 33.2412 9.6875 33.6377C10.3711 33.5693 11.1777 33.3848 12.1074 33.084C13.4062 32.6191 14.5273 32.4072 15.4707 32.4482C16.0176 32.5439 16.5098 32.7832 16.9473 33.166C17.3848 33.5488 17.6855 33.9453 17.8496 34.3555C18.0273 34.752 17.9863 35.0459 17.7266 35.2373C17.4941 35.415 17.3164 35.9688 17.1934 36.8984C17.0703 37.8145 16.9678 38.8262 16.8857 39.9336C16.8174 40.7129 16.749 41.4238 16.6807 42.0664C16.6123 42.7227 16.5234 43.2217 16.4141 43.5635C16.0996 44.2607 15.4365 44.8008 14.4248 45.1836C13.4131 45.5664 12.4971 45.8398 11.6768 46.0039C11.5947 46.0312 11.5195 46.0518 11.4512 46.0654C10.8496 46.2158 10.4805 46.1748 10.3438 45.9424C10.2207 45.7236 10.1797 45.3203 10.2207 44.7324C10.2207 44.5957 10.2207 44.4453 10.2207 44.2812C10.207 43.9121 10.1318 43.584 9.99512 43.2969C9.87207 43.0098 9.72168 42.7705 9.54395 42.5791C9.37988 42.4014 9.22949 42.2715 9.09277 42.1895L8.8877 42.0459L9.4209 42.1074C9.77637 42.1621 10.207 42.2031 10.7129 42.2305C11.2188 42.2715 11.7109 42.2578 12.1895 42.1895C12.668 42.1348 13.0439 41.998 13.3174 41.7793C13.6592 41.4375 13.9189 40.8291 14.0967 39.9541C14.2744 39.0791 14.3496 38.2109 14.3223 37.3496C14.3086 36.4746 14.1787 35.873 13.9326 35.5449C13.6182 35.2715 12.9961 35.2031 12.0664 35.3398C11.3008 35.4355 10.5762 35.5586 9.89258 35.709C9.91992 35.9004 9.91992 36.1055 9.89258 36.3242C9.83789 36.666 9.70801 36.9531 9.50293 37.1855C9.29785 37.4043 8.99707 37.4795 8.60059 37.4111C8.55957 37.3975 8.51855 37.3838 8.47754 37.3701C7.84863 37.2471 7.26074 37.0693 6.71387 36.8369C6.16699 36.5908 5.94141 36.2285 6.03711 35.75C6.14648 35.3535 6.24902 34.6904 6.34473 33.7607C6.44043 32.8174 6.49512 31.9014 6.50879 31.0127C6.53613 30.124 6.48828 29.5635 6.36523 29.3311C6.2832 29.1943 6.23535 29.0645 6.22168 28.9414C6.22168 28.8184 6.24219 28.709 6.2832 28.6133C6.31055 28.5313 6.33789 28.4629 6.36523 28.4082C6.16016 28.4082 5.95508 28.4082 5.75 28.4082C5.01172 28.3672 4.39648 28.2988 3.9043 28.2031L3.16602 28.0391L3.53516 27.875C3.79492 27.752 4.22559 27.5059 4.82715 27.1367C5.44238 26.7539 6.27637 26.1797 7.3291 25.4141C7.8623 24.9902 8.40234 24.457 8.94922 23.8145C8.79883 23.623 8.65527 23.4522 8.51855 23.3018C8.40918 23.165 8.32715 23.0625 8.27246 22.9941C8.21777 22.9258 8.2041 22.8984 8.23145 22.9121C8.34082 22.9258 8.67578 22.8574 9.23633 22.707C9.46875 22.6523 9.72168 22.584 9.99512 22.502C10.2275 22.1875 10.4668 21.8457 10.7129 21.4766C10.8086 21.3262 10.9111 21.1689 11.0205 21.0049C10.8428 20.9092 10.6582 20.8066 10.4668 20.6973C9.49609 20.1914 8.40234 19.4941 7.18555 18.6055C6.91211 18.2637 6.69336 17.8809 6.5293 17.457C6.37891 17.0332 6.26953 16.6641 6.20117 16.3496L6.07812 15.8574L7.14453 16.165C7.30859 16.2197 7.47949 16.2676 7.65723 16.3086C7.62988 16.2949 7.60254 16.2744 7.5752 16.2471C7.2334 15.9053 6.92578 15.4951 6.65234 15.0166C6.39258 14.5244 6.18066 14.0938 6.0166 13.7246C5.90723 13.4922 5.8252 13.3281 5.77051 13.2324ZM19.0186 32.5508L20.1465 32.3867C20.9121 32.2773 21.8213 32.1338 22.874 31.9561C23.9404 31.7647 24.959 31.5596 25.9297 31.3408C26.709 31.1357 27.3105 31.0264 27.7344 31.0127C28.1582 30.999 28.5068 31.0605 28.7803 31.1973C29.0537 31.3203 29.3545 31.5186 29.6826 31.792C29.874 31.9287 30.0859 32.0859 30.3184 32.2637C31.166 32.9063 31.7266 33.6787 32 34.5811C32.2871 35.4834 32.1777 36.167 31.6719 36.6318C31.248 36.9736 30.5508 37.6504 29.5801 38.6621C29.3477 38.9082 29.1084 39.1611 28.8623 39.4209C28.9307 39.4619 29.0059 39.5029 29.0879 39.5439C30.7969 40.5147 32.0068 41.1709 32.7178 41.5127C33.374 41.7998 34.0508 42.0049 34.748 42.1279C35.459 42.2646 36.0674 42.3535 36.5732 42.3945L37.332 42.4561L36.7168 43.0098C36.3203 43.3789 35.835 43.7959 35.2607 44.2607C34.6865 44.7256 34.126 45.1221 33.5791 45.4502C32.7451 45.9561 31.8359 46.2637 30.8516 46.373C29.8672 46.4824 29.1016 46.1338 28.5547 45.3271C28.1309 44.6982 27.2559 43.7275 25.9297 42.415C25.9023 42.3877 25.875 42.3604 25.8477 42.333C25.1914 42.9209 24.5488 43.4473 23.9199 43.9121C23.1953 44.4043 22.416 44.7256 21.582 44.876C20.748 45.04 19.9551 45.1016 19.2031 45.0605C18.4512 45.0195 17.8291 44.9512 17.3369 44.8555L16.5986 44.6914L17.0293 44.5479C17.3164 44.4521 17.8018 44.2334 18.4854 43.8916C19.1826 43.5635 20.1328 43.0508 21.3359 42.3535C22.1973 41.8066 23.0312 41.1572 23.8379 40.4053C23.1953 39.8174 22.5527 39.2432 21.9102 38.6826C20.584 37.5068 19.7295 36.8096 19.3467 36.5908C19.1553 36.4951 19.0459 36.3789 19.0186 36.2422C18.9912 36.1055 19.0117 35.9619 19.0801 35.8115C19.1484 35.6475 19.2373 35.4971 19.3467 35.3604C19.4561 35.2236 19.5586 35.1074 19.6543 35.0117L19.7773 34.8887C20.5977 35.0938 21.9102 35.668 23.7148 36.6113C24.5215 37.0352 25.3281 37.4658 26.1348 37.9033C26.5996 37.3291 27.0098 36.7754 27.3652 36.2422C28.0078 35.2578 28.2949 34.6426 28.2266 34.3965C28.1035 34.2324 27.666 34.2051 26.9141 34.3145C26.1758 34.4102 25.3418 34.5537 24.4121 34.7451C23.3457 34.9639 22.4844 35.1074 21.8281 35.1758C21.1309 35.1758 20.5635 34.9092 20.126 34.376C19.7021 33.8428 19.3877 33.3438 19.1826 32.8789C19.1143 32.7422 19.0596 32.6328 19.0186 32.5508ZM12.8457 17.9902C13.1328 17.4844 13.3926 16.9922 13.625 16.5137C14.418 14.9551 14.7939 14.0459 14.7529 13.7861C14.6709 13.6768 14.3701 13.752 13.8506 14.0117C13.3447 14.2715 12.7432 14.6064 12.0459 15.0166C11.4033 15.3857 10.7744 15.7344 10.1592 16.0625C9.58496 16.3633 9.12695 16.5615 8.78516 16.6572C9.04492 16.7393 9.31836 16.8281 9.60547 16.9238C10.5625 17.2109 11.4512 17.498 12.2715 17.7852C12.4766 17.8535 12.668 17.9219 12.8457 17.9902ZM6.61133 28.3877L6.85742 28.5313C7.14453 28.668 7.48633 28.8525 7.88281 29.085C7.92383 29.1123 7.97168 29.1397 8.02637 29.167L8.49805 28.9824C9.04492 28.75 9.74902 28.5039 10.6104 28.2441C11.4854 27.9707 12.4219 27.7656 13.4199 27.6289C14.0625 27.5605 14.6025 27.5469 15.04 27.5879C15.1494 27.2871 15.2725 26.9658 15.4092 26.624C15.6416 26.0635 15.8125 25.5781 15.9219 25.168C16.0449 24.7441 15.9971 24.5186 15.7783 24.4912C15.6143 24.4912 15.3477 24.5527 14.9785 24.6758C14.623 24.7852 14.2197 24.9287 13.7686 25.1064C13.208 25.3115 12.6543 25.5029 12.1074 25.6807C11.8477 25.7627 11.6084 25.8311 11.3896 25.8857C10.9795 26.4053 10.5967 26.8291 10.2412 27.1572C9.59863 27.6904 8.88086 28.0391 8.08789 28.2031C7.58203 28.2988 7.08984 28.3604 6.61133 28.3877Z" fill="#3A8227"/>
</svg>
