<svg width="42" height="56" viewBox="0 0 42 56" fill="none" xmlns="http://www.w3.org/2000/svg">
<rect width="42" height="56" rx="4" fill="white"/>
<path d="M30.5439 17.252C30.8584 17.457 31.4326 17.8809 32.2666 18.5234C33.1143 19.166 33.9346 19.8359 34.7275 20.5332C35.5342 21.2168 36.0195 21.7432 36.1836 22.1123C36.2383 22.3994 35.8828 23.0762 35.1172 24.1426C34.3652 25.209 33.4355 26.3574 32.3281 27.5879C32.2734 27.6562 32.2188 27.7178 32.1641 27.7725C32.752 27.7998 33.1211 27.8682 33.2715 27.9775C33.6543 28.374 33.8525 28.9072 33.8662 29.5771C33.8936 30.2471 33.5039 30.835 32.6973 31.3408C31.9043 31.8467 30.4619 32.0518 28.3701 31.9561C26.6885 31.8604 24.7881 31.9219 22.6689 32.1406C22.6553 33.0977 22.6416 34.041 22.6279 34.9707C22.5869 38.1426 22.5869 40.166 22.6279 41.041C22.6553 41.5742 22.5117 42.1484 22.1973 42.7637C21.8965 43.3789 21.5342 43.96 21.1104 44.5068C20.7002 45.0537 20.3311 45.498 20.0029 45.8398L19.5107 46.373L19.2441 46.127C19.0664 45.9766 18.8613 45.751 18.6289 45.4502C18.4102 45.1631 18.2256 44.8008 18.0752 44.3633C17.9248 43.9395 17.8633 43.4609 17.8906 42.9277C17.9316 42.2578 17.959 40.4873 17.9727 37.6162C17.9727 36.085 17.9658 34.4443 17.9521 32.6943C17.1865 32.8037 16.4346 32.9131 15.6963 33.0225C13.9463 33.2686 12.4629 33.46 11.2461 33.5967C10.0293 33.7197 9.27734 33.6992 8.99023 33.5352C8.68945 33.3438 8.39551 33.043 8.1084 32.6328C7.83496 32.2227 7.5957 31.8057 7.39062 31.3818C7.19922 30.958 7.08984 30.623 7.0625 30.377C7.03516 30.1172 7.13086 30.0352 7.34961 30.1309C7.44531 30.1582 7.66406 30.1719 8.00586 30.1719C7.96484 29.8711 7.91699 29.5498 7.8623 29.208C7.65723 27.8271 7.46582 26.3506 7.28809 24.7783C7.12402 23.1924 6.99414 21.8184 6.89844 20.6562L6.73438 18.9131L11.4102 20.5947C11.4375 20.5947 11.4648 20.5947 11.4922 20.5947C13.0371 20.417 14.9102 20.1777 17.1113 19.877C17.3574 19.8496 17.6035 19.8154 17.8496 19.7744C17.8359 19.2822 17.8223 18.7969 17.8086 18.3184C17.7539 15.5156 17.6787 13.8408 17.583 13.2939C17.46 12.7061 17.3984 12.0908 17.3984 11.4482C17.3984 10.8057 17.4258 10.2314 17.4805 9.72559L17.583 8.9668C18.499 9.36328 19.3672 9.54785 20.1875 9.52051C21.0488 9.49316 21.835 9.69824 22.5459 10.1357C23.0244 10.5596 23.2705 11.3457 23.2842 12.4941C23.3115 13.6289 23.25 14.8594 23.0996 16.1855C23.0312 17.0605 22.9766 17.874 22.9355 18.626C22.9355 18.7764 22.9287 18.9473 22.915 19.1387C23.1338 19.1113 23.3457 19.084 23.5508 19.0566C25.6973 18.7969 27.5225 18.6191 29.0264 18.5234C29.4229 18.4961 29.7783 18.4824 30.0928 18.4824L30.5439 17.252ZM28.6572 22.4609C28.2881 22.4746 27.8848 22.4746 27.4473 22.4609C26.1074 22.3926 24.5693 22.4404 22.833 22.6045C22.8193 23.4248 22.7988 24.334 22.7715 25.332C22.7578 26.4121 22.7441 27.4785 22.7305 28.5312C23.1816 28.4902 23.6328 28.4424 24.084 28.3877C25.123 28.2646 26.1006 28.1621 27.0166 28.0801C27.29 26.8633 27.6592 25.5371 28.124 24.1016C28.3018 23.541 28.4795 22.9941 28.6572 22.4609ZM12.3945 29.7617C13.6934 29.6113 15.1494 29.4336 16.7627 29.2285C17.1592 29.1875 17.5557 29.1396 17.9521 29.085C17.9521 28.7021 17.9453 28.3125 17.9316 27.916C17.9316 26.2754 17.918 24.7168 17.8906 23.2402C17.3574 23.3086 16.8311 23.3838 16.3115 23.4658C14.7393 23.7119 13.3994 23.8965 12.292 24.0195C12.2783 24.5391 12.2715 25.0996 12.2715 25.7012C12.2578 26.959 12.2852 28.1348 12.3535 29.2285C12.3672 29.4199 12.3809 29.5977 12.3945 29.7617Z" fill="#AC391B"/>
</svg>
