<svg width="42" height="56" viewBox="0 0 42 56" fill="none" xmlns="http://www.w3.org/2000/svg">
<rect width="42" height="56" rx="4" fill="white"/>
<circle cx="10" cy="28" r="5.25" stroke="#AC391B" stroke-width="1.5"/>
<circle cx="10" cy="27.9" r="3" stroke="#AC391B"/>
<circle cx="10" cy="28" r="1" fill="#AC391B"/>
<circle cx="21" cy="28" r="5.25" stroke="#AC391B" stroke-width="1.5"/>
<circle cx="21" cy="27.9" r="3" stroke="#AC391B"/>
<circle cx="21" cy="28" r="1" fill="#AC391B"/>
<circle cx="32" cy="28" r="5.25" stroke="#AC391B" stroke-width="1.5"/>
<circle cx="32" cy="27.9" r="3" stroke="#AC391B"/>
<circle cx="32" cy="28" r="1" fill="#AC391B"/>
<circle cx="10" cy="44" r="5.25" stroke="#262C86" stroke-width="1.5"/>
<circle cx="10" cy="43.9" r="3" stroke="#262C86"/>
<circle cx="10" cy="44" r="1" fill="#262C86"/>
<circle cx="21" cy="44" r="5.25" stroke="#262C86" stroke-width="1.5"/>
<circle cx="21" cy="43.9" r="3" stroke="#262C86"/>
<circle cx="21" cy="44" r="1" fill="#262C86"/>
<circle cx="32" cy="44" r="5.25" stroke="#262C86" stroke-width="1.5"/>
<circle cx="32" cy="43.9" r="3" stroke="#262C86"/>
<circle cx="32" cy="44" r="1" fill="#262C86"/>
<circle cx="10" cy="12" r="5.25" stroke="#3A8227" stroke-width="1.5"/>
<circle cx="10" cy="11.9" r="3" stroke="#3A8227"/>
<circle cx="10" cy="12" r="1" fill="#3A8227"/>
<circle cx="21" cy="12" r="5.25" stroke="#3A8227" stroke-width="1.5"/>
<circle cx="21" cy="11.9" r="3" stroke="#3A8227"/>
<circle cx="21" cy="12" r="1" fill="#3A8227"/>
<circle cx="32" cy="12" r="5.25" stroke="#3A8227" stroke-width="1.5"/>
<circle cx="32" cy="11.9" r="3" stroke="#3A8227"/>
<circle cx="32" cy="12" r="1" fill="#3A8227"/>
</svg>
