<svg width="42" height="56" viewBox="0 0 42 56" fill="none" xmlns="http://www.w3.org/2000/svg">
<path fill-rule="evenodd" clip-rule="evenodd" d="M25 7.5C25 8.24362 24.7681 8.93308 24.3727 9.5C24.7681 10.0669 25 10.7564 25 11.5C25 12.2436 24.7681 12.9331 24.3727 13.5C24.7681 14.0669 25 14.7564 25 15.5C25 17.433 23.433 19 21.5 19C19.567 19 18 17.433 18 15.5C18 14.7564 18.2319 14.0669 18.6273 13.5C18.2319 12.9331 18 12.2436 18 11.5C18 10.7564 18.2319 10.0669 18.6273 9.5C18.2319 8.93308 18 8.24362 18 7.5C18 5.567 19.567 4 21.5 4C23.433 4 25 5.567 25 7.5ZM21.5 5C21.2239 5 21 5.22386 21 5.5V17.5C21 17.7761 21.2239 18 21.5 18C21.7761 18 22 17.7761 22 17.5V5.5C22 5.22386 21.7761 5 21.5 5Z" fill="#AC391B"/>
<path fill-rule="evenodd" clip-rule="evenodd" d="M25 24.5C25 25.2436 24.7681 25.9331 24.3727 26.5C24.7681 27.0669 25 27.7564 25 28.5C25 29.2436 24.7681 29.9331 24.3727 30.5C24.7681 31.0669 25 31.7564 25 32.5C25 34.433 23.433 36 21.5 36C19.567 36 18 34.433 18 32.5C18 31.7564 18.2319 31.0669 18.6273 30.5C18.2319 29.9331 18 29.2436 18 28.5C18 27.7564 18.2319 27.0669 18.6273 26.5C18.2319 25.9331 18 25.2436 18 24.5C18 22.567 19.567 21 21.5 21C23.433 21 25 22.567 25 24.5ZM21.5 22C21.2239 22 21 22.2239 21 22.5V34.5C21 34.7761 21.2239 35 21.5 35C21.7761 35 22 34.7761 22 34.5V22.5C22 22.2239 21.7761 22 21.5 22Z" fill="#AC391B"/>
<path fill-rule="evenodd" clip-rule="evenodd" d="M25 41.5C25 42.2436 24.7681 42.9331 24.3727 43.5C24.7681 44.0669 25 44.7564 25 45.5C25 46.2436 24.7681 46.9331 24.3727 47.5C24.7681 48.0669 25 48.7564 25 49.5C25 51.433 23.433 53 21.5 53C19.567 53 18 51.433 18 49.5C18 48.7564 18.2319 48.0669 18.6273 47.5C18.2319 46.9331 18 46.2436 18 45.5C18 44.7564 18.2319 44.0669 18.6273 43.5C18.2319 42.9331 18 42.2436 18 41.5C18 39.567 19.567 38 21.5 38C23.433 38 25 39.567 25 41.5ZM21.5 39C21.2239 39 21 39.2239 21 39.5V51.5C21 51.7761 21.2239 52 21.5 52C21.7761 52 22 51.7761 22 51.5V39.5C22 39.2239 21.7761 39 21.5 39Z" fill="#AC391B"/>
<path fill-rule="evenodd" clip-rule="evenodd" d="M15 24.5C15 25.2436 14.7681 25.9331 14.3727 26.5C14.7681 27.0669 15 27.7564 15 28.5C15 29.2436 14.7681 29.9331 14.3727 30.5C14.7681 31.0669 15 31.7564 15 32.5C15 34.433 13.433 36 11.5 36C9.567 36 8 34.433 8 32.5C8 31.7564 8.23191 31.0669 8.62734 30.5C8.23191 29.9331 8 29.2436 8 28.5C8 27.7564 8.23191 27.0669 8.62734 26.5C8.23191 25.9331 8 25.2436 8 24.5C8 22.567 9.567 21 11.5 21C13.433 21 15 22.567 15 24.5ZM11.5 22C11.2239 22 11 22.2239 11 22.5V34.5C11 34.7761 11.2239 35 11.5 35C11.7761 35 12 34.7761 12 34.5V22.5C12 22.2239 11.7761 22 11.5 22Z" fill="#3A8227"/>
<path fill-rule="evenodd" clip-rule="evenodd" d="M15 7.5C15 8.24362 14.7681 8.93308 14.3727 9.5C14.7681 10.0669 15 10.7564 15 11.5C15 12.2436 14.7681 12.9331 14.3727 13.5C14.7681 14.0669 15 14.7564 15 15.5C15 17.433 13.433 19 11.5 19C9.567 19 8 17.433 8 15.5C8 14.7564 8.23191 14.0669 8.62734 13.5C8.23191 12.9331 8 12.2436 8 11.5C8 10.7564 8.23191 10.0669 8.62734 9.5C8.23191 8.93308 8 8.24362 8 7.5C8 5.567 9.567 4 11.5 4C13.433 4 15 5.567 15 7.5ZM11.5 5C11.2239 5 11 5.22386 11 5.5V17.5C11 17.7761 11.2239 18 11.5 18C11.7761 18 12 17.7761 12 17.5V5.5C12 5.22386 11.7761 5 11.5 5Z" fill="#3A8227"/>
<path fill-rule="evenodd" clip-rule="evenodd" d="M35 24.5C35 25.2436 34.7681 25.9331 34.3727 26.5C34.7681 27.0669 35 27.7564 35 28.5C35 29.2436 34.7681 29.9331 34.3727 30.5C34.7681 31.0669 35 31.7564 35 32.5C35 34.433 33.433 36 31.5 36C29.567 36 28 34.433 28 32.5C28 31.7564 28.2319 31.0669 28.6273 30.5C28.2319 29.9331 28 29.2436 28 28.5C28 27.7564 28.2319 27.0669 28.6273 26.5C28.2319 25.9331 28 25.2436 28 24.5C28 22.567 29.567 21 31.5 21C33.433 21 35 22.567 35 24.5ZM31.5 22C31.2239 22 31 22.2239 31 22.5V34.5C31 34.7761 31.2239 35 31.5 35C31.7761 35 32 34.7761 32 34.5V22.5C32 22.2239 31.7761 22 31.5 22Z" fill="#3A8227"/>
<path fill-rule="evenodd" clip-rule="evenodd" d="M35 7.5C35 8.24362 34.7681 8.93308 34.3727 9.5C34.7681 10.0669 35 10.7564 35 11.5C35 12.2436 34.7681 12.9331 34.3727 13.5C34.7681 14.0669 35 14.7564 35 15.5C35 17.433 33.433 19 31.5 19C29.567 19 28 17.433 28 15.5C28 14.7564 28.2319 14.0669 28.6273 13.5C28.2319 12.9331 28 12.2436 28 11.5C28 10.7564 28.2319 10.0669 28.6273 9.5C28.2319 8.93308 28 8.24362 28 7.5C28 5.567 29.567 4 31.5 4C33.433 4 35 5.567 35 7.5ZM31.5 5C31.2239 5 31 5.22386 31 5.5V17.5C31 17.7761 31.2239 18 31.5 18C31.7761 18 32 17.7761 32 17.5V5.5C32 5.22386 31.7761 5 31.5 5Z" fill="#3A8227"/>
<path fill-rule="evenodd" clip-rule="evenodd" d="M15 41.5C15 42.2436 14.7681 42.9331 14.3727 43.5C14.7681 44.0669 15 44.7564 15 45.5C15 46.2436 14.7681 46.9331 14.3727 47.5C14.7681 48.0669 15 48.7564 15 49.5C15 51.433 13.433 53 11.5 53C9.567 53 8 51.433 8 49.5C8 48.7564 8.23191 48.0669 8.62734 47.5C8.23191 46.9331 8 46.2436 8 45.5C8 44.7564 8.23191 44.0669 8.62734 43.5C8.23191 42.9331 8 42.2436 8 41.5C8 39.567 9.567 38 11.5 38C13.433 38 15 39.567 15 41.5ZM11.5 39C11.2239 39 11 39.2239 11 39.5V51.5C11 51.7761 11.2239 52 11.5 52C11.7761 52 12 51.7761 12 51.5V39.5C12 39.2239 11.7761 39 11.5 39Z" fill="#3A8227"/>
<path fill-rule="evenodd" clip-rule="evenodd" d="M35 41.5C35 42.2436 34.7681 42.9331 34.3727 43.5C34.7681 44.0669 35 44.7564 35 45.5C35 46.2436 34.7681 46.9331 34.3727 47.5C34.7681 48.0669 35 48.7564 35 49.5C35 51.433 33.433 53 31.5 53C29.567 53 28 51.433 28 49.5C28 48.7564 28.2319 48.0669 28.6273 47.5C28.2319 46.9331 28 46.2436 28 45.5C28 44.7564 28.2319 44.0669 28.6273 43.5C28.2319 42.9331 28 42.2436 28 41.5C28 39.567 29.567 38 31.5 38C33.433 38 35 39.567 35 41.5ZM31.5 39C31.2239 39 31 39.2239 31 39.5V51.5C31 51.7761 31.2239 52 31.5 52C31.7761 52 32 51.7761 32 51.5V39.5C32 39.2239 31.7761 39 31.5 39Z" fill="#3A8227"/>
</svg>
