<svg width="42" height="56" viewBox="0 0 42 56" fill="none" xmlns="http://www.w3.org/2000/svg">
<path d="M10.0898 11.9277C10.2904 12.0553 11.1061 12.0325 12.5371 11.8594C13.5397 11.7409 14.6471 11.595 15.8594 11.4219C15.987 10.638 16.1009 9.8177 16.2012 8.96093C16.2103 8.58723 16.224 8.14973 16.2422 7.64843C16.2695 7.14712 16.2969 6.67317 16.3242 6.22655C16.3516 5.77994 16.3835 5.44725 16.4199 5.2285C16.4564 5.00064 16.4928 4.9733 16.5293 5.14647C16.5749 5.32876 16.6934 5.44725 16.8848 5.50194C17.0762 5.54751 17.304 5.57486 17.5684 5.58397C17.8874 5.58397 18.2018 5.62955 18.5117 5.72069C18.8216 5.80272 19.0586 6.00324 19.2227 6.32225C19.3958 6.63215 19.4368 7.13801 19.3457 7.83983C19.1908 8.92447 19.0267 9.97265 18.8535 10.9844C20.2116 10.7838 21.4557 10.6152 22.5859 10.4785C24.0898 10.2962 24.9648 10.2734 25.2109 10.4101C25.4023 10.5651 25.6211 10.7565 25.8672 10.9844C26.1133 11.2031 26.3503 11.4264 26.5781 11.6543C26.8151 11.873 26.9974 12.0644 27.125 12.2285C27.2526 12.3835 27.2891 12.47 27.2344 12.4883C27.1523 12.5247 27.0293 12.8073 26.8652 13.3359C26.7012 13.8646 26.528 14.5163 26.3457 15.291C26.1725 16.0566 26.0221 16.8131 25.8945 17.5605C25.5391 19.8848 26.0495 21.0332 27.4258 21.0058C27.7904 20.9694 28.2507 20.9512 28.8066 20.9512C29.3717 20.9512 29.9414 20.9603 30.5156 20.9785C31.0898 20.9967 31.5729 21.0195 31.9648 21.0469L32.5664 21.0742C31.9922 21.1745 31.5866 21.4114 31.3496 21.7851C31.1217 22.1588 30.9486 22.5827 30.8301 23.0566C30.7116 23.5124 30.5384 23.9316 30.3105 24.3144C30.0918 24.6973 29.7181 24.9661 29.1895 25.1211C28.4147 25.2851 27.5853 25.3125 26.7012 25.2031C25.8262 25.0937 25.0378 24.9251 24.3359 24.6973C23.6432 24.4694 23.1875 24.2689 22.9688 24.0957C22.7773 23.8678 22.6634 23.1341 22.627 21.8945C22.5905 20.6549 22.5996 19.3607 22.6543 18.0117C22.7181 16.6627 22.8001 15.7012 22.9004 15.1269C22.9004 15.0905 22.9049 15.054 22.9141 15.0176C23.069 14.3522 23.0781 13.942 22.9414 13.7871C22.8047 13.623 22.3398 13.5683 21.5469 13.623C21.1641 13.6413 20.5625 13.737 19.7422 13.9101C19.25 14.0104 18.7396 14.1198 18.2109 14.2383C17.8099 16.0612 17.3633 17.7474 16.8711 19.2969C15.8411 22.5143 14.7975 24.442 13.7402 25.0801C13.5215 25.1803 13.1842 25.2487 12.7285 25.2851C12.2728 25.3216 11.7897 25.3398 11.2793 25.3398C10.778 25.3398 10.3451 25.3307 9.98047 25.3125L9.43359 25.2851L10.8691 23.6719C11.8262 22.5872 12.8379 20.8463 13.9043 18.4492C14.36 17.4193 14.7611 16.248 15.1074 14.9355C14.5697 15.0449 14.0638 15.1497 13.5898 15.25C12.5872 15.4414 12.054 15.4687 11.9902 15.332C11.9629 15.1315 11.7897 14.7669 11.4707 14.2383C11.1608 13.7096 10.8509 13.1992 10.541 12.707C10.3405 12.4062 10.1947 12.1784 10.1035 12.0234C10.0124 11.8594 10.0078 11.8275 10.0898 11.9277Z" fill="#262C86"/>
<path d="M10.8965 30.8008C11.7532 30.5547 13.1432 30.2721 15.0664 29.9531C15.3034 29.9076 15.5449 29.8665 15.791 29.8301C15.6999 29.3835 15.6315 28.9824 15.5859 28.627L15.4629 27.834L15.791 27.8887C16.0098 27.9251 16.2786 27.9935 16.5976 28.0938C16.9258 28.194 17.2585 28.3398 17.5957 28.5312C17.9421 28.7227 18.2474 28.9733 18.5117 29.2832C18.5391 29.3197 18.5618 29.3561 18.5801 29.3926C19.4368 29.2741 20.3073 29.1556 21.1914 29.0371C21.4831 29.0007 21.7656 28.9642 22.0391 28.9277C22.0208 28.8457 22.0072 28.7454 21.998 28.627C21.9707 28.3626 21.9388 28.0664 21.9023 27.7383C21.8659 27.401 21.834 27.082 21.8066 26.7812C21.7884 26.4714 21.7884 26.2389 21.8066 26.084C21.8249 25.9199 21.8659 25.8789 21.9297 25.9609C22.1393 26.1979 22.4674 26.3893 22.9141 26.5352C23.6068 26.6992 24.3997 27.2142 25.293 28.0801C25.3932 28.1986 25.4753 28.3216 25.5391 28.4492C25.7305 28.4219 25.9128 28.3945 26.0859 28.3672C27.1797 28.2031 28.0684 28.2943 28.7519 28.6406C29.4447 28.987 29.6816 29.3197 29.4629 29.6387C29.2441 29.9486 28.9342 30.2448 28.5332 30.5273C28.1413 30.8099 27.681 30.8965 27.1523 30.7871C26.724 30.696 26.0312 30.6823 25.0742 30.7461C24.9101 30.9831 24.7187 31.2064 24.5 31.416C24.0169 31.8809 23.6341 32.1771 23.3516 32.3047C23.1693 32.3867 22.9414 32.4824 22.668 32.5918C22.3945 32.6921 22.1256 32.7923 21.8613 32.8926C21.597 32.9837 21.3737 33.0612 21.1914 33.125L20.9043 33.2207L21.082 32.6602C21.2096 32.2956 21.3463 31.8626 21.4922 31.3613C21.5195 31.2793 21.5469 31.2018 21.5742 31.1289C20.6901 31.2474 19.7969 31.3841 18.8945 31.5391C18.8125 32.0859 18.653 32.569 18.416 32.9883C18.1152 33.5169 17.7506 33.7038 17.3223 33.5488C17.0032 33.3757 16.7253 32.9974 16.4883 32.4141C16.4427 32.2865 16.3971 32.1589 16.3516 32.0312C15.8685 32.1406 15.4629 32.2409 15.1348 32.332C14.597 32.4779 14.0638 32.4915 13.5351 32.373C13.0156 32.2454 12.5462 32.0632 12.1269 31.8262C11.7077 31.5892 11.3841 31.3704 11.1562 31.1699C10.9284 30.9603 10.8418 30.8372 10.8965 30.8008ZM27.5762 41.5059C28.1868 41.515 28.8021 41.7109 29.4219 42.0938C30.0508 42.4766 30.5657 42.9095 30.9668 43.3926C31.0488 43.4837 31.1081 43.5885 31.1445 43.707C31.1628 43.8255 31.1445 43.9395 31.0898 44.0488C31.0443 44.1491 30.9896 44.2493 30.9258 44.3496C30.9167 44.3587 30.9075 44.3678 30.8984 44.377C30.6797 44.7233 30.5247 45.1882 30.4336 45.7715C30.3424 46.3457 30.2741 46.9336 30.2285 47.5352C30.1829 48.1823 30.1191 48.7201 30.0371 49.1484C29.8822 49.7591 29.5768 50.3333 29.1211 50.8711C28.6654 51.418 28.1549 51.8053 27.5898 52.0332C26.7422 52.2793 25.9173 52.1699 25.1152 51.7051C24.8327 51.5592 24.5501 51.3997 24.2676 51.2266C23.8118 50.9349 23.3379 50.6888 22.8457 50.4883C23.2467 50.3789 23.6615 50.2969 24.0898 50.2422C24.5182 50.1875 24.9284 50.1009 25.3203 49.9824C25.7213 49.8639 26.0723 49.6497 26.373 49.3398C26.7376 48.875 26.9746 48.3372 27.084 47.7266C27.1387 47.4896 27.1797 47.1751 27.207 46.7832C27.2344 46.3913 27.2526 45.9857 27.2617 45.5664C27.2799 44.9284 27.3118 44.4271 27.3574 44.0625C27.3665 43.9987 27.3711 43.9395 27.3711 43.8848C27.3711 43.821 27.3574 43.7663 27.3301 43.7207C27.3027 43.6569 27.2572 43.6113 27.1934 43.584C27.1295 43.5566 27.0657 43.5384 27.0019 43.5293C26.6282 43.4746 25.7122 43.4609 24.2539 43.4883C23.5065 43.4974 22.6725 43.5566 21.7519 43.666C21.7337 44.4772 21.7383 45.0195 21.7656 45.293C21.7747 45.4023 21.7474 45.5208 21.6836 45.6484C21.7383 45.6302 21.7975 45.6165 21.8613 45.6074C22.4993 45.4707 22.9642 45.3932 23.2559 45.375C23.2012 45.0833 23.1556 44.8145 23.1191 44.5684L23.0234 43.9258L23.4746 44.2539C23.7754 44.4818 24.1354 44.7507 24.5547 45.0605C24.974 45.3704 25.375 45.6803 25.7578 45.9902C26.1497 46.291 26.446 46.5326 26.6465 46.7148C26.8743 46.9701 26.8516 47.2572 26.5781 47.5762C26.3047 47.8861 25.9447 48.1367 25.498 48.3281C25.0514 48.5286 24.6823 48.5788 24.3906 48.4785C24.181 48.36 23.9941 48.0684 23.8301 47.6035C23.821 47.5853 23.8118 47.5625 23.8027 47.5352C23.584 47.6263 23.2695 47.6491 22.8594 47.6035C22.0208 47.5033 21.2051 47.5352 20.4121 47.6992C19.6282 47.8633 18.9264 48.0456 18.3066 48.2461C17.778 48.4193 17.3587 48.5286 17.0488 48.5742C16.748 48.5833 16.5111 48.4375 16.3379 48.1367C16.1647 47.8359 16.0143 47.4896 15.8867 47.0977C15.7409 46.6055 15.5631 46.2363 15.3535 45.9902L16.1738 46.0586C16.7207 46.0951 17.4499 46.1042 18.3613 46.0859C18.5072 46.0768 18.6484 46.0677 18.7851 46.0586C18.7851 46.0495 18.7851 46.0449 18.7851 46.0449C18.8125 45.8079 18.8307 45.2201 18.8398 44.2812C18.8398 44.2266 18.8398 44.1719 18.8398 44.1172C16.862 44.4909 15.7044 44.7598 15.3672 44.9238C15.349 44.9329 15.3307 44.9421 15.3125 44.9512C15.2396 44.9967 15.1667 45.0378 15.0937 45.0742C15.0573 45.0833 15.0254 45.0924 14.998 45.1016C14.9707 45.5482 14.9479 46.0495 14.9297 46.6055C14.9023 47.3529 14.9069 48.0547 14.9434 48.7109C14.9798 49.3763 15.071 49.8503 15.2168 50.1328C15.3717 50.4883 15.2624 50.7845 14.8887 51.0215C14.515 51.2676 14.0775 51.377 13.5762 51.3496C13.084 51.3223 12.7331 51.0762 12.5234 50.6113C12.3867 50.2194 12.2545 49.5859 12.1269 48.7109C12.0085 47.8359 11.8991 46.9154 11.7988 45.9492C11.7077 44.974 11.6348 44.1354 11.5801 43.4336L11.498 42.3672L13.7129 43.2832C14.0775 43.1374 14.5833 43.0007 15.2305 42.873C16.1693 42.6816 17.3724 42.4993 18.8398 42.3262C18.8398 42.0618 18.8398 41.793 18.8398 41.5195C18.5026 41.5833 18.1654 41.6471 17.8281 41.7109C17.6823 41.7383 17.541 41.7656 17.4043 41.793C17.0944 42.0299 16.7161 42.1393 16.2695 42.1211C16.1419 42.1211 16.0234 42.1029 15.9141 42.0664C15.5586 42.1211 15.3672 42.1211 15.3398 42.0664C15.3034 41.9479 15.1667 41.752 14.9297 41.4785C14.7018 41.196 14.4648 40.9271 14.2187 40.6719C13.9726 40.4167 13.8131 40.2572 13.7402 40.1934L14.7383 40.0703C14.7018 39.9427 14.6654 39.8151 14.6289 39.6875C14.4193 38.849 14.2096 37.9603 14 37.0215C13.7995 36.0827 13.6354 35.2715 13.5078 34.5879L13.3027 33.5625L15.5449 34.3828C15.6543 34.3646 15.7773 34.3464 15.9141 34.3281C16.5794 34.2096 17.3769 34.0592 18.3066 33.877C19.7012 33.6035 21.0228 33.3711 22.2715 33.1797C23.3561 33.0065 24.0625 32.9609 24.3906 33.043L24.418 32.9199C24.6094 32.9655 24.9648 33.0658 25.4844 33.2207C26.0039 33.3757 26.5143 33.5443 27.0156 33.7266C27.5169 33.9089 27.8359 34.0638 27.9726 34.1914C28.0456 34.3099 27.9316 34.6836 27.6309 35.3125C27.3301 35.9323 26.9427 36.625 26.4687 37.3906C26.0859 37.9922 25.7122 38.5299 25.3476 39.0039C25.7213 39.168 25.9993 39.4004 26.1816 39.7012C26.3822 40.1569 26.209 40.5306 25.6621 40.8223C25.1152 41.1048 24.3906 41.1686 23.4883 41.0137C23.0781 40.9499 22.5267 40.959 21.834 41.041C21.8157 41.36 21.8021 41.679 21.793 41.998C23.2422 41.8522 24.4453 41.7383 25.4023 41.6562C26.6693 41.556 27.3939 41.5059 27.5762 41.5059ZM21.998 35.3809C22.1074 35.5358 22.1667 35.7409 22.1758 35.9961C22.1758 36.0326 22.1758 36.0736 22.1758 36.1191C22.4766 36.0827 22.6588 36.0827 22.7226 36.1191C22.7865 36.2012 22.8457 36.3561 22.9004 36.584C22.9551 36.8027 22.9733 37.0397 22.9551 37.2949C22.9368 37.541 22.8411 37.7461 22.668 37.9102C22.513 38.056 22.276 38.1335 21.957 38.1426C21.957 38.179 21.957 38.2109 21.957 38.2383C21.9479 38.4388 21.9342 38.7077 21.916 39.0449C22.3079 38.972 22.6087 38.9082 22.8184 38.8535C23.0918 38.7806 23.3652 38.735 23.6387 38.7168C23.6387 38.3704 23.6615 37.9831 23.707 37.5547C23.7799 36.8438 23.8711 36.1328 23.9805 35.4219C23.9987 35.3216 24.0169 35.2168 24.0351 35.1074C23.5885 35.2806 22.9232 35.3717 22.0391 35.3809C22.0208 35.3809 22.0072 35.3809 21.998 35.3809ZM18.4844 35.7637C18.1016 35.8457 17.7598 35.9368 17.459 36.0371C17.222 36.11 17.0078 36.1693 16.8164 36.2148C16.8346 36.5065 16.8574 36.821 16.8848 37.1582C17.3769 37.0579 17.9238 36.944 18.5254 36.8164C18.5801 36.8073 18.6302 36.7982 18.6758 36.7891C18.6575 36.5885 18.6348 36.4473 18.6074 36.3652C18.5345 36.1738 18.4935 35.9733 18.4844 35.7637ZM18.7988 39.5371C18.7988 39.2181 18.7943 38.9082 18.7851 38.6074C18.3659 38.7168 17.9648 38.8262 17.582 38.9355C17.4088 38.9811 17.2493 39.0221 17.1035 39.0586C17.1309 39.2409 17.1582 39.4141 17.1855 39.5781C17.1947 39.6419 17.2038 39.7012 17.2129 39.7559C17.3952 39.7285 17.582 39.7012 17.7734 39.6738C18.1289 39.6283 18.4707 39.5827 18.7988 39.5371Z" fill="#AC391B"/>
</svg>
