<svg width="42" height="56" viewBox="0 0 42 56" fill="none" xmlns="http://www.w3.org/2000/svg">
<rect width="42" height="56" rx="4" fill="white"/>
<path fill-rule="evenodd" clip-rule="evenodd" d="M15 10.5C15 11.7732 14.3202 12.8876 13.3038 13.5C14.3202 14.1124 15 15.2268 15 16.5C15 17.7732 14.3202 18.8876 13.3038 19.5C14.3202 20.1124 15 21.2268 15 22.5C15 24.433 13.433 26 11.5 26C9.567 26 8 24.433 8 22.5C8 21.2268 8.67979 20.1124 9.69621 19.5C8.67979 18.8876 8 17.7732 8 16.5C8 15.2268 8.67979 14.1124 9.69621 13.5C8.67979 12.8876 8 11.7732 8 10.5C8 8.567 9.567 7 11.5 7C13.433 7 15 8.567 15 10.5ZM11.5 8C11.2239 8 11 8.22386 11 8.5V24.5C11 24.7761 11.2239 25 11.5 25C11.7761 25 12 24.7761 12 24.5V8.5C12 8.22386 11.7761 8 11.5 8Z" fill="#3A8227"/>
<path fill-rule="evenodd" clip-rule="evenodd" d="M25 10.5C25 11.7732 24.3202 12.8876 23.3038 13.5C24.3202 14.1124 25 15.2268 25 16.5C25 17.7732 24.3202 18.8876 23.3038 19.5C24.3202 20.1124 25 21.2268 25 22.5C25 24.433 23.433 26 21.5 26C19.567 26 18 24.433 18 22.5C18 21.2268 18.6798 20.1124 19.6962 19.5C18.6798 18.8876 18 17.7732 18 16.5C18 15.2268 18.6798 14.1124 19.6962 13.5C18.6798 12.8876 18 11.7732 18 10.5C18 8.567 19.567 7 21.5 7C23.433 7 25 8.567 25 10.5ZM21.5 8C21.2239 8 21 8.22386 21 8.5V24.5C21 24.7761 21.2239 25 21.5 25C21.7761 25 22 24.7761 22 24.5V8.5C22 8.22386 21.7761 8 21.5 8Z" fill="#3A8227"/>
<path fill-rule="evenodd" clip-rule="evenodd" d="M25 34.5C25 35.7732 24.3202 36.8876 23.3038 37.5C24.3202 38.1124 25 39.2268 25 40.5C25 41.7732 24.3202 42.8876 23.3038 43.5C24.3202 44.1124 25 45.2268 25 46.5C25 48.433 23.433 50 21.5 50C19.567 50 18 48.433 18 46.5C18 45.2268 18.6798 44.1124 19.6962 43.5C18.6798 42.8876 18 41.7732 18 40.5C18 39.2268 18.6798 38.1124 19.6962 37.5C18.6798 36.8876 18 35.7732 18 34.5C18 32.567 19.567 31 21.5 31C23.433 31 25 32.567 25 34.5ZM21.5 32C21.2239 32 21 32.2239 21 32.5V48.5C21 48.7761 21.2239 49 21.5 49C21.7761 49 22 48.7761 22 48.5V32.5C22 32.2239 21.7761 32 21.5 32Z" fill="#3A8227"/>
<path fill-rule="evenodd" clip-rule="evenodd" d="M34 10.5C34 11.7732 33.3202 12.8876 32.3038 13.5C33.3202 14.1124 34 15.2268 34 16.5C34 17.7732 33.3202 18.8876 32.3038 19.5C33.3202 20.1124 34 21.2268 34 22.5C34 24.433 32.433 26 30.5 26C28.567 26 27 24.433 27 22.5C27 21.2268 27.6798 20.1124 28.6962 19.5C27.6798 18.8876 27 17.7732 27 16.5C27 15.2268 27.6798 14.1124 28.6962 13.5C27.6798 12.8876 27 11.7732 27 10.5C27 8.567 28.567 7 30.5 7C32.433 7 34 8.567 34 10.5ZM30.5 8C30.2239 8 30 8.22386 30 8.5V24.5C30 24.7761 30.2239 25 30.5 25C30.7761 25 31 24.7761 31 24.5V8.5C31 8.22386 30.7761 8 30.5 8Z" fill="#3A8227"/>
<path fill-rule="evenodd" clip-rule="evenodd" d="M15 34.5C15 35.7732 14.3202 36.8876 13.3038 37.5C14.3202 38.1124 15 39.2268 15 40.5C15 41.7732 14.3202 42.8876 13.3038 43.5C14.3202 44.1124 15 45.2268 15 46.5C15 48.433 13.433 50 11.5 50C9.567 50 8 48.433 8 46.5C8 45.2268 8.67979 44.1124 9.69621 43.5C8.67979 42.8876 8 41.7732 8 40.5C8 39.2268 8.67979 38.1124 9.69621 37.5C8.67979 36.8876 8 35.7732 8 34.5C8 32.567 9.567 31 11.5 31C13.433 31 15 32.567 15 34.5ZM11.5 32C11.2239 32 11 32.2239 11 32.5V48.5C11 48.7761 11.2239 49 11.5 49C11.7761 49 12 48.7761 12 48.5V32.5C12 32.2239 11.7761 32 11.5 32Z" fill="#3A8227"/>
<path fill-rule="evenodd" clip-rule="evenodd" d="M34 34.5C34 35.7732 33.3202 36.8876 32.3038 37.5C33.3202 38.1124 34 39.2268 34 40.5C34 41.7732 33.3202 42.8876 32.3038 43.5C33.3202 44.1124 34 45.2268 34 46.5C34 48.433 32.433 50 30.5 50C28.567 50 27 48.433 27 46.5C27 45.2268 27.6798 44.1124 28.6962 43.5C27.6798 42.8876 27 41.7732 27 40.5C27 39.2268 27.6798 38.1124 28.6962 37.5C27.6798 36.8876 27 35.7732 27 34.5C27 32.567 28.567 31 30.5 31C32.433 31 34 32.567 34 34.5ZM30.5 32C30.2239 32 30 32.2239 30 32.5V48.5C30 48.7761 30.2239 49 30.5 49C30.7761 49 31 48.7761 31 48.5V32.5C31 32.2239 30.7761 32 30.5 32Z" fill="#3A8227"/>
</svg>
