<svg width="42" height="56" viewBox="0 0 42 56" fill="none" xmlns="http://www.w3.org/2000/svg">
<path d="M31.4873 22.9941C32.5674 23.0625 33.5449 23.5 34.4199 24.3066C35.2949 25.0996 36.0811 25.9883 36.7783 26.9727C36.9424 27.1641 37.0518 27.3828 37.1064 27.6289C37.1475 27.8613 37.1201 28.0801 37.0244 28.2852C36.9287 28.4902 36.8125 28.6885 36.6758 28.8799C36.6621 28.9072 36.6484 28.9346 36.6348 28.9619C36.2246 29.6455 35.917 30.6709 35.7119 32.0381C35.5068 33.4053 35.3428 34.7998 35.2197 36.2217C35.0967 37.7529 34.9463 38.9561 34.7686 39.8311C34.5225 41.0342 34.1055 42.1621 33.5176 43.2148C32.9434 44.2676 32.1504 45.0059 31.1387 45.4297C29.5527 45.8672 28.0146 45.6006 26.5244 44.6299C26.0049 44.3154 25.4854 43.9805 24.9658 43.625C24.1182 43.0098 23.2363 42.4902 22.3203 42.0664C23.0723 41.8613 23.8447 41.7178 24.6377 41.6357C25.458 41.5537 26.2373 41.4033 26.9756 41.1846C27.7139 40.9795 28.3633 40.5762 28.9238 39.9746C29.6074 39.0723 30.0654 38.0127 30.2979 36.7959C30.4072 36.3037 30.4961 35.5723 30.5645 34.6016C30.6328 33.6309 30.6943 32.6123 30.749 31.5459C30.8311 29.9873 30.9199 28.8389 31.0156 28.1006C31.0293 27.9775 31.0361 27.8613 31.0361 27.752C31.0498 27.6289 31.0293 27.5127 30.9746 27.4033C30.9199 27.2939 30.8311 27.2119 30.708 27.1572C30.5986 27.0889 30.4824 27.041 30.3594 27.0137C29.7031 26.877 28.2676 26.8906 26.0527 27.0547C25.6836 27.082 25.3076 27.1094 24.9248 27.1367C25.1982 27.3828 25.4648 27.6289 25.7246 27.875C26.1348 28.2715 26.3809 28.5723 26.4629 28.7773C26.4902 28.9277 26.3125 29.1328 25.9297 29.3926C25.5469 29.6387 25.0752 29.8848 24.5146 30.1309C23.9814 30.3633 23.4619 30.541 22.9561 30.6641C23.1064 30.6367 23.2637 30.6162 23.4277 30.6025C24.9863 30.4111 25.8682 30.377 26.0732 30.5C26.1963 30.6504 26.2988 30.9307 26.3809 31.3408C26.4766 31.7373 26.4766 32.1611 26.3809 32.6123C26.2988 33.0635 26.0527 33.4395 25.6426 33.7402C25.2461 34.0273 24.6172 34.1367 23.7559 34.0684C22.9902 34.0137 22.1562 34.0273 21.2539 34.1094C21.3496 34.1641 21.4453 34.2188 21.541 34.2734C22.0195 34.5742 22.2861 34.793 22.3408 34.9297C22.3408 35.0254 22.334 35.292 22.3203 35.7295C22.416 35.7021 22.5117 35.6748 22.6074 35.6475C23.8652 35.292 25.0752 35.251 26.2373 35.5244C27.4131 35.7842 28.2266 36.3037 28.6777 37.083C29.0195 37.9033 28.6914 38.5801 27.6934 39.1133C26.709 39.6465 25.3896 39.79 23.7354 39.5439C23.2432 39.4619 22.7168 39.4346 22.1562 39.4619C22.1152 40.3369 22.0742 41.1367 22.0332 41.8613C21.9785 42.709 21.9443 43.2354 21.9307 43.4404C21.9033 43.6045 21.7734 43.7959 21.541 44.0146C21.3086 44.2471 21.042 44.4727 20.7412 44.6914C20.4404 44.9102 20.1738 45.0879 19.9414 45.2246L19.5928 45.4502L19.3877 45.3887C19.251 45.334 19.0869 45.2451 18.8955 45.1221C18.7178 45.0127 18.54 44.8623 18.3623 44.6709C18.1846 44.4795 18.041 44.2471 17.9316 43.9736C17.8359 43.7002 17.8086 43.3721 17.8496 42.9893C17.9043 42.4834 17.9658 41.6973 18.0342 40.6309C18.0479 40.4258 18.0615 40.2275 18.0752 40.0361C17.5967 40.1182 17.1318 40.2139 16.6807 40.3232C15.9287 40.4873 15.3135 40.6104 14.835 40.6924C14.3564 40.7744 14.0967 40.7539 14.0557 40.6309C14.001 40.4121 13.7617 40.0566 13.3379 39.5645C12.9277 39.0586 12.5039 38.5801 12.0664 38.1289C11.6699 37.7324 11.3965 37.4658 11.2461 37.3291C11.2598 37.7393 11.2803 38.1357 11.3076 38.5186C11.3896 39.9951 11.54 41 11.7588 41.5332C11.9912 42.2031 11.8203 42.7637 11.2461 43.2148C10.6855 43.6797 10.0225 43.8848 9.25684 43.8301C8.50488 43.7754 7.97168 43.3037 7.65723 42.415C7.46582 41.6631 7.26074 40.3506 7.04199 38.4775C6.82324 36.6045 6.61816 34.6084 6.42676 32.4893C6.24902 30.3564 6.10547 28.5039 5.99609 26.9316L5.81152 24.5732L11.2256 27.3828L11.2051 29.2695C11.1777 30.541 11.1641 32.0312 11.1641 33.7402C11.1777 34.9844 11.2051 36.167 11.2461 37.2881L12.6201 37.1445C13.5635 37.0352 14.6914 36.8984 16.0039 36.7344C16.7695 36.6387 17.5283 36.5361 18.2803 36.4268C18.3076 35.7432 18.335 35.1143 18.3623 34.54C17.5283 34.6904 16.749 34.8477 16.0244 35.0117C15.3408 35.1484 14.7871 35.2578 14.3633 35.3398C13.9531 35.4082 13.7275 35.415 13.6865 35.3604C13.6729 35.3193 13.6387 35.2373 13.584 35.1143C13.4609 34.8818 13.3105 34.5811 13.1328 34.2119C12.9551 33.8291 12.7773 33.4531 12.5996 33.084C12.4355 32.7148 12.3057 32.4209 12.21 32.2021C12.1143 31.9834 12.0938 31.915 12.1484 31.9971C12.2578 32.0791 12.9004 32.0449 14.0762 31.8945C14.4453 31.8398 14.8486 31.7852 15.2861 31.7305C15.1768 31.498 15.1289 31.2246 15.1426 30.9102C15.1426 30.459 15.1973 30.0078 15.3066 29.5566C15.416 29.1465 15.5254 28.7979 15.6348 28.5107C15.4707 28.5654 15.3271 28.6201 15.2041 28.6748C15.1768 28.6885 15.1494 28.7021 15.1221 28.7158C14.9854 28.8115 14.8418 28.8936 14.6914 28.9619C14.541 29.0166 14.3906 29.0439 14.2402 29.0439C13.9395 28.9893 13.6729 28.8457 13.4404 28.6133C12.5381 27.8613 11.7246 27.0068 11 26.0498C11.3828 25.4756 12.5518 24.9902 14.5068 24.5938C14.999 24.498 15.5117 24.4092 16.0449 24.3271C15.9902 24.0537 16.0723 23.7119 16.291 23.3018C16.6328 22.6455 16.9062 21.873 17.1113 20.9844C15.9355 21.3125 14.8418 21.6338 13.8301 21.9482C12.6816 22.3037 11.9023 22.5293 11.4922 22.625C11.0137 22.6797 10.6309 22.3789 10.3438 21.7227C10.0703 21.0664 9.83789 20.3076 9.64648 19.4463C9.40039 18.3799 9.11328 17.5801 8.78516 17.0469H9.64648C10.2207 17.0605 10.9521 17.0674 11.8408 17.0674C12.7295 17.0674 13.6592 17.0605 14.6299 17.0469C15.3955 17.0059 16.3799 16.8691 17.583 16.6367C17.5967 16.0762 17.5967 15.5293 17.583 14.9961C17.542 13.6426 17.4531 12.7812 17.3164 12.4121C17.2207 12.166 17.1113 11.8721 16.9883 11.5303C16.8789 11.1885 16.7695 10.8467 16.6602 10.5049C16.5508 10.1631 16.4551 9.87598 16.373 9.64355L16.2705 9.29492C16.6533 9.47266 17.2344 9.60254 18.0137 9.68457C18.9434 9.79395 20.0439 10.04 21.3154 10.4229C21.8896 10.6826 22.3203 11.5098 22.6074 12.9043C22.7715 13.6836 22.8945 14.5176 22.9766 15.4062C23.1406 15.3652 23.2979 15.3242 23.4482 15.2832C25.3213 14.8047 26.5244 14.5381 27.0576 14.4834C27.3584 14.4971 27.6523 14.7705 27.9395 15.3037C28.2266 15.8369 28.4043 16.4521 28.4727 17.1494C28.5547 17.833 28.4248 18.4141 28.083 18.8926C27.7549 19.3711 27.126 19.5557 26.1963 19.4463C25.3213 19.3643 24.3027 19.4053 23.1406 19.5693C23.127 20.5811 23.0791 21.5176 22.9971 22.3789C22.9561 22.8164 22.9082 23.1924 22.8535 23.5068C24.6719 23.3428 26.3398 23.2197 27.8574 23.1377C29.8398 23.0283 31.0498 22.9805 31.4873 22.9941ZM22.7715 27.3418C21.6641 27.4648 20.5566 27.6016 19.4492 27.752C18.5332 27.8887 17.7607 28.0186 17.1318 28.1416C17.4053 28.1689 17.6582 28.2373 17.8906 28.3467C18.2051 28.4971 18.335 28.8799 18.2803 29.4951C18.1982 30.124 17.9863 30.6914 17.6445 31.1973C17.5898 31.2793 17.542 31.3545 17.501 31.4229C17.7197 31.3955 17.9521 31.3613 18.1982 31.3203C19.6201 31.1016 20.9463 30.917 22.1768 30.7666C22.0127 30.7529 21.876 30.7188 21.7666 30.6641C21.6025 30.5547 21.5547 30.3291 21.623 29.9873C21.6914 29.6455 21.8281 29.2559 22.0332 28.8184C22.2383 28.3672 22.457 27.9297 22.6895 27.5059C22.7168 27.4512 22.7441 27.3965 22.7715 27.3418Z" fill="#262C86"/>
</svg>
