<svg width="42" height="56" viewBox="0 0 42 56" fill="none" xmlns="http://www.w3.org/2000/svg">
<rect width="42" height="56" rx="4" fill="white"/>
<circle cx="14" cy="46" r="5.25" stroke="#AC391B" stroke-width="1.5"/>
<circle cx="14" cy="45.9" r="3" stroke="#AC391B"/>
<circle cx="14" cy="46" r="1" fill="#AC391B"/>
<circle cx="14" cy="33" r="5.25" stroke="#AC391B" stroke-width="1.5"/>
<circle cx="14" cy="32.9" r="3" stroke="#AC391B"/>
<circle cx="14" cy="33" r="1" fill="#AC391B"/>
<circle cx="27" cy="33" r="5.25" stroke="#AC391B" stroke-width="1.5"/>
<circle cx="27" cy="32.9" r="3" stroke="#AC391B"/>
<circle cx="27" cy="33" r="1" fill="#AC391B"/>
<circle cx="27" cy="46" r="5.25" stroke="#AC391B" stroke-width="1.5"/>
<circle cx="27" cy="45.9" r="3" stroke="#AC391B"/>
<circle cx="27" cy="46" r="1" fill="#AC391B"/>
<circle cx="11" cy="10" r="5.25" stroke="#3A8227" stroke-width="1.5"/>
<circle cx="11" cy="9.89999" r="3" stroke="#3A8227"/>
<circle cx="11" cy="10" r="1" fill="#3A8227"/>
<circle cx="21" cy="15" r="5.25" stroke="#3A8227" stroke-width="1.5"/>
<circle cx="21" cy="14.9" r="3" stroke="#3A8227"/>
<circle cx="21" cy="15" r="1" fill="#3A8227"/>
<circle cx="31" cy="20" r="5.25" stroke="#3A8227" stroke-width="1.5"/>
<circle cx="31" cy="19.9" r="3" stroke="#3A8227"/>
<circle cx="31" cy="20" r="1" fill="#3A8227"/>
</svg>
