<svg width="42" height="56" viewBox="0 0 42 56" fill="none" xmlns="http://www.w3.org/2000/svg">
<rect width="42" height="56" rx="4" fill="white"/>
<path d="M17.2813 6.66406L17.9922 6.74609C18.4753 6.8099 19.0313 6.90104 19.6602 7.01953C20.2891 7.12891 20.8542 7.26107 21.3555 7.41602C21.8659 7.57096 22.1712 7.74414 22.2715 7.93555C22.3262 8.09049 22.3399 8.22266 22.3125 8.33203C22.2852 8.43229 22.235 8.54622 22.1621 8.67383C22.0436 8.84701 21.9206 9.13867 21.793 9.54883C21.6654 9.94987 21.6016 10.5879 21.6016 11.4629C21.6016 11.5267 21.6016 11.5905 21.6016 11.6543C21.8021 11.627 22.0072 11.5951 22.2168 11.5586C24.8145 11.1758 27.0567 10.9069 28.9434 10.752C30.8392 10.5879 31.8965 10.6243 32.1152 10.8613C32.2793 11.235 32.2383 11.7135 31.9922 12.2969C31.7552 12.8802 31.377 13.3678 30.8574 13.7598C30.347 14.1426 29.7637 14.2428 29.1074 14.0605C28.3783 13.86 27.0703 13.8919 25.1836 14.1562C23.9805 14.3294 22.7546 14.5391 21.5059 14.7852C21.4968 15.2135 21.4876 15.5417 21.4785 15.7695C21.3418 17.9115 21.4876 19.3014 21.916 19.9395C22.1712 20.1673 22.6862 20.2904 23.4609 20.3086C24.2357 20.3268 25.0423 20.2812 25.8809 20.1719C26.7285 20.0534 27.3757 19.9167 27.8223 19.7617C28.1413 19.6341 28.4968 19.4746 28.8887 19.2832C29.2897 19.0827 29.6771 18.8822 30.0508 18.6816C30.4336 18.472 30.7481 18.2943 30.9942 18.1484L31.3633 17.9434L31.1719 18.2031C31.0443 18.3854 30.8984 18.627 30.7344 18.9277C30.5794 19.2285 30.4473 19.5703 30.3379 19.9531C30.2285 20.3359 30.1921 20.737 30.2285 21.1562C30.3652 22.6784 28.515 23.4622 24.6777 23.5078C20.7949 23.5534 18.735 22.9655 18.4981 21.7441C18.4616 21.4434 18.4251 20.7826 18.3887 19.7617C18.3613 18.7318 18.3386 17.5924 18.3203 16.3438C18.3203 16.043 18.3249 15.7513 18.334 15.4688C16.903 15.7969 15.791 16.0794 14.9981 16.3164C14.3236 16.5078 13.6582 16.5033 13.002 16.3027C12.3457 16.1022 11.7578 15.8242 11.2383 15.4688C10.7188 15.1042 10.3177 14.7669 10.0352 14.457C9.76173 14.1471 9.65691 13.9694 9.72071 13.9238C10.8053 13.6139 12.5098 13.2402 14.834 12.8027C15.9733 12.584 17.1445 12.3743 18.3477 12.1738C18.3477 11.4902 18.3386 10.9479 18.3203 10.5469C18.293 9.52604 18.2611 8.94727 18.2246 8.81055C18.179 8.71029 18.1061 8.54622 18.0059 8.31836C17.9056 8.09049 17.8008 7.85352 17.6914 7.60742C17.582 7.35221 17.4863 7.12891 17.4043 6.9375L17.2813 6.66406Z" fill="#262C86"/>
<path d="M10.8965 30.8008C11.7533 30.5547 13.1432 30.2721 15.0664 29.9531C15.3034 29.9076 15.5449 29.8665 15.791 29.8301C15.6999 29.3835 15.6315 28.9824 15.5859 28.627L15.4629 27.834L15.791 27.8887C16.0098 27.9251 16.2787 27.9935 16.5977 28.0938C16.9258 28.194 17.2585 28.3398 17.5957 28.5312C17.9421 28.7227 18.2474 28.9733 18.5117 29.2832C18.5391 29.3197 18.5619 29.3561 18.5801 29.3926C19.4369 29.2741 20.3073 29.1556 21.1914 29.0371C21.4831 29.0007 21.7656 28.9642 22.0391 28.9277C22.0208 28.8457 22.0072 28.7454 21.9981 28.627C21.9707 28.3626 21.9388 28.0664 21.9024 27.7383C21.8659 27.401 21.834 27.082 21.8066 26.7812C21.7884 26.4714 21.7884 26.2389 21.8066 26.084C21.8249 25.9199 21.8659 25.8789 21.9297 25.9609C22.1393 26.1979 22.4675 26.3893 22.9141 26.5352C23.6068 26.6992 24.3997 27.2142 25.293 28.0801C25.3932 28.1986 25.4753 28.3216 25.5391 28.4492C25.7305 28.4219 25.9128 28.3945 26.0859 28.3672C27.1797 28.2031 28.0684 28.2943 28.752 28.6406C29.4447 28.987 29.6816 29.3197 29.4629 29.6387C29.2441 29.9486 28.9343 30.2448 28.5332 30.5273C28.1413 30.8099 27.681 30.8965 27.1524 30.7871C26.724 30.696 26.0313 30.6823 25.0742 30.7461C24.9102 30.9831 24.7188 31.2064 24.5 31.416C24.0169 31.8809 23.6341 32.1771 23.3516 32.3047C23.1693 32.3867 22.9414 32.4824 22.668 32.5918C22.3945 32.6921 22.1257 32.7923 21.8613 32.8926C21.597 32.9837 21.3737 33.0612 21.1914 33.125L20.9043 33.2207L21.082 32.6602C21.2096 32.2956 21.3464 31.8626 21.4922 31.3613C21.5195 31.2793 21.5469 31.2018 21.5742 31.1289C20.6901 31.2474 19.7969 31.3841 18.8945 31.5391C18.8125 32.0859 18.653 32.569 18.416 32.9883C18.1152 33.5169 17.7507 33.7038 17.3223 33.5488C17.0033 33.3757 16.7253 32.9974 16.4883 32.4141C16.4427 32.2865 16.3971 32.1589 16.3516 32.0312C15.8685 32.1406 15.4629 32.2409 15.1348 32.332C14.597 32.4779 14.0638 32.4915 13.5352 32.373C13.0156 32.2454 12.5462 32.0632 12.127 31.8262C11.7077 31.5892 11.3841 31.3704 11.1563 31.1699C10.9284 30.9603 10.8418 30.8372 10.8965 30.8008ZM27.5762 41.5059C28.1869 41.515 28.8021 41.7109 29.4219 42.0938C30.0508 42.4766 30.5658 42.9095 30.9668 43.3926C31.0488 43.4837 31.1081 43.5885 31.1445 43.707C31.1628 43.8255 31.1445 43.9395 31.0899 44.0488C31.0443 44.1491 30.9896 44.2493 30.9258 44.3496C30.9167 44.3587 30.9076 44.3678 30.8984 44.377C30.6797 44.7233 30.5247 45.1882 30.4336 45.7715C30.3425 46.3457 30.2741 46.9336 30.2285 47.5352C30.183 48.1823 30.1191 48.7201 30.0371 49.1484C29.8822 49.7591 29.5768 50.3333 29.1211 50.8711C28.6654 51.418 28.155 51.8053 27.5899 52.0332C26.7422 52.2793 25.9173 52.1699 25.1152 51.7051C24.8327 51.5592 24.5501 51.3997 24.2676 51.2266C23.8119 50.9349 23.3379 50.6888 22.8457 50.4883C23.2468 50.3789 23.6615 50.2969 24.0899 50.2422C24.5182 50.1875 24.9284 50.1009 25.3203 49.9824C25.7214 49.8639 26.0723 49.6497 26.3731 49.3398C26.7376 48.875 26.9746 48.3372 27.084 47.7266C27.1387 47.4896 27.1797 47.1751 27.207 46.7832C27.2344 46.3913 27.2526 45.9857 27.2617 45.5664C27.28 44.9284 27.3119 44.4271 27.3574 44.0625C27.3665 43.9987 27.3711 43.9395 27.3711 43.8848C27.3711 43.821 27.3574 43.7663 27.3301 43.7207C27.3027 43.6569 27.2572 43.6113 27.1934 43.584C27.1296 43.5566 27.0658 43.5384 27.002 43.5293C26.6283 43.4746 25.7122 43.4609 24.2539 43.4883C23.5065 43.4974 22.6725 43.5566 21.752 43.666C21.7337 44.4772 21.7383 45.0195 21.7656 45.293C21.7747 45.4023 21.7474 45.5208 21.6836 45.6484C21.7383 45.6302 21.7975 45.6165 21.8613 45.6074C22.4994 45.4707 22.9642 45.3932 23.2559 45.375C23.2012 45.0833 23.1556 44.8145 23.1191 44.5684L23.0234 43.9258L23.4746 44.2539C23.7754 44.4818 24.1354 44.7507 24.5547 45.0605C24.974 45.3704 25.375 45.6803 25.7578 45.9902C26.1497 46.291 26.446 46.5326 26.6465 46.7148C26.8744 46.9701 26.8516 47.2572 26.5781 47.5762C26.3047 47.8861 25.9447 48.1367 25.4981 48.3281C25.0514 48.5286 24.6823 48.5788 24.3906 48.4785C24.181 48.36 23.9941 48.0684 23.8301 47.6035C23.821 47.5853 23.8119 47.5625 23.8027 47.5352C23.584 47.6263 23.2695 47.6491 22.8594 47.6035C22.0208 47.5033 21.2051 47.5352 20.4121 47.6992C19.6283 47.8633 18.9264 48.0456 18.3066 48.2461C17.778 48.4193 17.3587 48.5286 17.0488 48.5742C16.7481 48.5833 16.5111 48.4375 16.3379 48.1367C16.1647 47.8359 16.0143 47.4896 15.8867 47.0977C15.7409 46.6055 15.5632 46.2363 15.3535 45.9902L16.1738 46.0586C16.7207 46.0951 17.4499 46.1042 18.3613 46.0859C18.5072 46.0768 18.6484 46.0677 18.7852 46.0586C18.7852 46.0495 18.7852 46.0449 18.7852 46.0449C18.8125 45.8079 18.8307 45.2201 18.8399 44.2812C18.8399 44.2266 18.8399 44.1719 18.8399 44.1172C16.862 44.4909 15.7044 44.7598 15.3672 44.9238C15.349 44.9329 15.3307 44.9421 15.3125 44.9512C15.2396 44.9967 15.1667 45.0378 15.0938 45.0742C15.0573 45.0833 15.0254 45.0924 14.9981 45.1016C14.9707 45.5482 14.9479 46.0495 14.9297 46.6055C14.9024 47.3529 14.9069 48.0547 14.9434 48.7109C14.9798 49.3763 15.071 49.8503 15.2168 50.1328C15.3718 50.4883 15.2624 50.7845 14.8887 51.0215C14.515 51.2676 14.0775 51.377 13.5762 51.3496C13.084 51.3223 12.7331 51.0762 12.5234 50.6113C12.3867 50.2194 12.2546 49.5859 12.127 48.7109C12.0085 47.8359 11.8991 46.9154 11.7988 45.9492C11.7077 44.974 11.6348 44.1354 11.5801 43.4336L11.4981 42.3672L13.7129 43.2832C14.0775 43.1374 14.5833 43.0007 15.2305 42.873C16.1693 42.6816 17.3724 42.4993 18.8399 42.3262C18.8399 42.0618 18.8399 41.793 18.8399 41.5195C18.5026 41.5833 18.1654 41.6471 17.8281 41.7109C17.6823 41.7383 17.541 41.7656 17.4043 41.793C17.0944 42.0299 16.7162 42.1393 16.2695 42.1211C16.1419 42.1211 16.0234 42.1029 15.9141 42.0664C15.5586 42.1211 15.3672 42.1211 15.3399 42.0664C15.3034 41.9479 15.1667 41.752 14.9297 41.4785C14.7018 41.196 14.4649 40.9271 14.2188 40.6719C13.9727 40.4167 13.8132 40.2572 13.7402 40.1934L14.7383 40.0703C14.7018 39.9427 14.6654 39.8151 14.6289 39.6875C14.4193 38.849 14.2096 37.9603 14 37.0215C13.7995 36.0827 13.6354 35.2715 13.5078 34.5879L13.3027 33.5625L15.5449 34.3828C15.6543 34.3646 15.7774 34.3464 15.9141 34.3281C16.5794 34.2096 17.377 34.0592 18.3066 33.877C19.7012 33.6035 21.0228 33.3711 22.2715 33.1797C23.3561 33.0065 24.0625 32.9609 24.3906 33.043L24.418 32.9199C24.6094 32.9655 24.9649 33.0658 25.4844 33.2207C26.0039 33.3757 26.5143 33.5443 27.0156 33.7266C27.5169 33.9089 27.8359 34.0638 27.9727 34.1914C28.0456 34.3099 27.9316 34.6836 27.6309 35.3125C27.3301 35.9323 26.9427 36.625 26.4688 37.3906C26.0859 37.9922 25.7122 38.5299 25.3477 39.0039C25.7214 39.168 25.9994 39.4004 26.1816 39.7012C26.3822 40.1569 26.209 40.5306 25.6621 40.8223C25.1152 41.1048 24.3906 41.1686 23.4883 41.0137C23.0781 40.9499 22.5267 40.959 21.834 41.041C21.8158 41.36 21.8021 41.679 21.793 41.998C23.2422 41.8522 24.4453 41.7383 25.4024 41.6562C26.6693 41.556 27.3939 41.5059 27.5762 41.5059ZM21.9981 35.3809C22.1074 35.5358 22.1667 35.7409 22.1758 35.9961C22.1758 36.0326 22.1758 36.0736 22.1758 36.1191C22.4766 36.0827 22.6589 36.0827 22.7227 36.1191C22.7865 36.2012 22.8457 36.3561 22.9004 36.584C22.9551 36.8027 22.9733 37.0397 22.9551 37.2949C22.9369 37.541 22.8412 37.7461 22.668 37.9102C22.513 38.056 22.276 38.1335 21.957 38.1426C21.957 38.179 21.957 38.2109 21.957 38.2383C21.9479 38.4388 21.9343 38.7077 21.916 39.0449C22.308 38.972 22.6087 38.9082 22.8184 38.8535C23.0918 38.7806 23.3652 38.735 23.6387 38.7168C23.6387 38.3704 23.6615 37.9831 23.707 37.5547C23.78 36.8438 23.8711 36.1328 23.9805 35.4219C23.9987 35.3216 24.0169 35.2168 24.0352 35.1074C23.5885 35.2806 22.9232 35.3717 22.0391 35.3809C22.0208 35.3809 22.0072 35.3809 21.9981 35.3809ZM18.4844 35.7637C18.1016 35.8457 17.7598 35.9368 17.459 36.0371C17.222 36.11 17.0078 36.1693 16.8164 36.2148C16.8346 36.5065 16.8574 36.821 16.8848 37.1582C17.377 37.0579 17.9238 36.944 18.5254 36.8164C18.5801 36.8073 18.6302 36.7982 18.6758 36.7891C18.6576 36.5885 18.6348 36.4473 18.6074 36.3652C18.5345 36.1738 18.4935 35.9733 18.4844 35.7637ZM18.7988 39.5371C18.7988 39.2181 18.7943 38.9082 18.7852 38.6074C18.3659 38.7168 17.9649 38.8262 17.582 38.9355C17.4089 38.9811 17.2494 39.0221 17.1035 39.0586C17.1309 39.2409 17.1582 39.4141 17.1856 39.5781C17.1947 39.6419 17.2038 39.7012 17.2129 39.7559C17.3952 39.7285 17.582 39.7012 17.7734 39.6738C18.1289 39.6283 18.4707 39.5827 18.7988 39.5371Z" fill="#AC391B"/>
</svg>
