<svg width="42" height="56" viewBox="0 0 42 56" fill="none" xmlns="http://www.w3.org/2000/svg">
<path fill-rule="evenodd" clip-rule="evenodd" d="M24 9.5C24 10.7732 23.3202 11.8876 22.3038 12.5C23.3202 13.1124 24 14.2268 24 15.5C24 16.7732 23.3202 17.8876 22.3038 18.5C23.3202 19.1124 24 20.2268 24 21.5C24 23.433 22.433 25 20.5 25C18.567 25 17 23.433 17 21.5C17 20.2268 17.6798 19.1124 18.6962 18.5C17.6798 17.8876 17 16.7732 17 15.5C17 14.2268 17.6798 13.1124 18.6962 12.5C17.6798 11.8876 17 10.7732 17 9.5C17 7.567 18.567 6 20.5 6C22.433 6 24 7.567 24 9.5ZM20.5 7C20.2239 7 20 7.22386 20 7.5V23.5C20 23.7761 20.2239 24 20.5 24C20.7761 24 21 23.7761 21 23.5V7.5C21 7.22386 20.7761 7 20.5 7Z" fill="#3A8227"/>
<path fill-rule="evenodd" clip-rule="evenodd" d="M14 33.5C14 34.7732 13.3202 35.8876 12.3038 36.5C13.3202 37.1124 14 38.2268 14 39.5C14 40.7732 13.3202 41.8876 12.3038 42.5C13.3202 43.1124 14 44.2268 14 45.5C14 47.433 12.433 49 10.5 49C8.567 49 7 47.433 7 45.5C7 44.2268 7.67979 43.1124 8.69621 42.5C7.67979 41.8876 7 40.7732 7 39.5C7 38.2268 7.67979 37.1124 8.69621 36.5C7.67979 35.8876 7 34.7732 7 33.5C7 31.567 8.567 30 10.5 30C12.433 30 14 31.567 14 33.5ZM10.5 31C10.2239 31 10 31.2239 10 31.5V47.5C10 47.7761 10.2239 48 10.5 48C10.7761 48 11 47.7761 11 47.5V31.5C11 31.2239 10.7761 31 10.5 31Z" fill="#3A8227"/>
<path fill-rule="evenodd" clip-rule="evenodd" d="M34 33.5C34 34.7732 33.3202 35.8876 32.3038 36.5C33.3202 37.1124 34 38.2268 34 39.5C34 40.7732 33.3202 41.8876 32.3038 42.5C33.3202 43.1124 34 44.2268 34 45.5C34 47.433 32.433 49 30.5 49C28.567 49 27 47.433 27 45.5C27 44.2268 27.6798 43.1124 28.6962 42.5C27.6798 41.8876 27 40.7732 27 39.5C27 38.2268 27.6798 37.1124 28.6962 36.5C27.6798 35.8876 27 34.7732 27 33.5C27 31.567 28.567 30 30.5 30C32.433 30 34 31.567 34 33.5ZM30.5 31C30.2239 31 30 31.2239 30 31.5V47.5C30 47.7761 30.2239 48 30.5 48C30.7761 48 31 47.7761 31 47.5V31.5C31 31.2239 30.7761 31 30.5 31Z" fill="#3A8227"/>
</svg>
