<svg width="42" height="56" viewBox="0 0 42 56" fill="none" xmlns="http://www.w3.org/2000/svg">
<rect width="42" height="56" rx="4" fill="white"/>
<path d="M27.207 7.04688C27.9362 7.08334 28.679 7.34766 29.4355 7.83985C30.1921 8.32292 30.821 8.8698 31.3223 9.48048C31.4316 9.58985 31.5137 9.72201 31.5684 9.87696C31.5957 10.0137 31.582 10.1458 31.5273 10.2734C31.4727 10.401 31.4043 10.5241 31.3223 10.6426C31.3132 10.6517 31.304 10.6654 31.2949 10.6836C31.0579 11.1302 30.8848 11.946 30.7754 13.1309C30.6751 14.3158 30.5977 15.5234 30.543 16.7539C30.4883 18.0846 30.4199 19.0326 30.3379 19.5977C30.1829 20.3359 29.8457 21.0287 29.3262 21.6758C28.8158 22.3229 28.2324 22.7741 27.5762 23.0293C27.2572 23.1387 26.9746 23.1341 26.7285 23.0156C26.4824 22.8971 26.2363 22.7331 25.9902 22.5234C25.7624 22.332 25.5026 22.1497 25.2109 21.9766C24.7552 21.7669 24.2493 21.5938 23.6934 21.457C23.0189 21.4297 22.1484 21.4662 21.082 21.5664C19.5417 21.7122 17.9922 21.89 16.4336 22.0996C15.2669 22.2546 14.2962 22.3731 13.5215 22.4551C12.7467 22.528 12.3411 22.5189 12.3047 22.4277C12.2682 22.2454 12.1087 21.9538 11.8262 21.5527C11.5527 21.1517 11.2656 20.7689 10.9648 20.4043C10.6732 20.0306 10.4818 19.8027 10.3906 19.7207L11.7988 19.625C11.7441 19.0964 11.6484 18.3444 11.5117 17.3691C11.3659 16.2663 11.2018 15.1087 11.0195 13.8965C10.8464 12.6751 10.696 11.6224 10.5684 10.7383L10.377 9.41212C10.7324 9.4668 11.1973 9.61719 11.7715 9.86329C12.3548 10.1003 12.888 10.3555 13.3711 10.6289C13.8633 10.8932 14.1413 11.0938 14.2051 11.2305C14.2415 11.3581 14.3236 11.832 14.4512 12.6524C14.5788 13.4727 14.7201 14.4206 14.875 15.4961C14.9844 16.2162 15.0846 16.8952 15.1758 17.5332L15.4766 16.8223C15.8411 15.9746 16.1829 14.9583 16.502 13.7734C16.8118 12.6159 16.9349 11.4994 16.8711 10.4238C16.2786 10.5423 15.8685 10.6563 15.6406 10.7656C15.6224 10.7747 15.6087 10.7839 15.5996 10.793C15.5085 10.8477 15.4173 10.8978 15.3262 10.9434C15.235 10.9798 15.1348 10.9981 15.0254 10.9981C14.8431 10.9616 14.6699 10.875 14.5059 10.7383C13.9134 10.2734 13.3711 9.74936 12.8789 9.16602C13.1068 8.81967 13.9043 8.51433 15.2715 8.25001C16.6478 7.98568 18.2155 7.76238 19.9746 7.58009C21.7337 7.39779 23.306 7.26107 24.6914 7.16993C26.0859 7.07878 26.9245 7.03777 27.207 7.04688ZM22.1348 9.72657C22.2988 9.76303 22.472 9.79493 22.6543 9.82227C23.1465 9.89519 23.4062 10.041 23.4336 10.2598C23.4609 10.4694 23.3971 10.7474 23.2422 11.0938C23.2148 11.1667 23.1829 11.2441 23.1465 11.3262C23.028 11.6452 22.9141 12.0098 22.8047 12.4199C22.7044 12.8301 22.668 13.2083 22.6953 13.5547C22.7227 13.901 22.8639 14.138 23.1191 14.2656C23.429 14.3841 23.7526 14.416 24.0898 14.3613C24.2083 14.3522 24.3086 14.3477 24.3906 14.3477C24.6094 14.3294 24.7962 14.3158 24.9512 14.3066C25.1061 14.2884 25.3294 14.2565 25.6211 14.2109C25.6667 14.2018 25.7533 14.1927 25.8809 14.1836C26.0358 14.1745 26.209 14.1654 26.4004 14.1563C26.5918 14.138 26.765 14.1107 26.9199 14.0742C26.929 14.0742 26.9382 14.0742 26.9473 14.0742C26.9564 13.737 26.9655 13.3952 26.9746 13.0488C26.9837 12.3744 26.9974 11.7774 27.0156 11.2578C27.0339 10.7383 27.0521 10.3737 27.0703 10.1641C27.0794 10.0912 27.0794 10.0182 27.0703 9.94532C27.0703 9.8724 27.0566 9.80404 27.0293 9.74024C26.9837 9.66732 26.9245 9.61264 26.8516 9.57618C26.7786 9.53972 26.7012 9.51238 26.6191 9.49415C26.1725 9.42123 25.138 9.45313 23.5156 9.58985C23.0599 9.63542 22.5996 9.681 22.1348 9.72657ZM20.166 9.94532C19.6647 10.0091 19.1634 10.0729 18.6621 10.1367C18.2611 10.2005 17.8965 10.2552 17.5684 10.3008C17.8691 10.4375 18.1973 10.6563 18.5527 10.957C18.972 11.3034 19.2819 11.7318 19.4824 12.2422C19.6374 12.7982 19.5371 13.5456 19.1816 14.4844C18.8353 15.4232 18.3841 16.2708 17.8281 17.0274C17.2812 17.7839 16.7799 18.1621 16.3242 18.1621C16.0052 18.1257 15.75 18.1029 15.5586 18.0938C15.4401 18.0755 15.3398 18.0664 15.2578 18.0664C15.2669 18.1758 15.2806 18.2852 15.2988 18.3945C15.3535 18.7774 15.3991 19.1009 15.4355 19.3652C15.7637 19.3379 16.0964 19.3106 16.4336 19.2832C18.056 19.1556 19.569 19.0189 20.9727 18.8731C22.3763 18.7181 23.3333 18.5723 23.8438 18.4356C24.7917 18.1803 25.6895 18.1667 26.5371 18.3945C26.5645 18.4037 26.5918 18.4128 26.6191 18.4219C26.6829 18.2122 26.7331 17.9889 26.7695 17.752C26.8242 17.4329 26.8698 16.8177 26.9062 15.9063C26.9154 15.3958 26.929 14.8718 26.9473 14.334C26.9017 14.4069 26.8516 14.4889 26.7969 14.5801C26.6966 14.7533 26.6146 14.9356 26.5508 15.127C26.487 15.3184 26.4688 15.4961 26.4961 15.6602C26.5508 15.8698 26.5371 16.0977 26.4551 16.3438C26.3822 16.5899 26.1771 16.7995 25.8398 16.9727C25.5026 17.1458 24.974 17.2324 24.2539 17.2324C22.7591 17.2233 21.7383 17.082 21.1914 16.8086C20.6445 16.526 20.3757 16.1341 20.3848 15.6328C20.3757 15.3594 20.3574 14.8718 20.3301 14.1699C20.3027 13.4681 20.2708 12.7162 20.2344 11.9141C20.207 11.1667 20.1842 10.5104 20.166 9.94532Z" fill="#262C86"/>
<path d="M10.8965 30.8008C11.7533 30.5547 13.1432 30.2721 15.0664 29.9531C15.3034 29.9076 15.5449 29.8665 15.791 29.8301C15.6999 29.3835 15.6315 28.9824 15.5859 28.627L15.4629 27.834L15.791 27.8887C16.0098 27.9251 16.2787 27.9935 16.5977 28.0938C16.9258 28.194 17.2585 28.3398 17.5957 28.5312C17.9421 28.7227 18.2474 28.9733 18.5117 29.2832C18.5391 29.3197 18.5619 29.3561 18.5801 29.3926C19.4369 29.2741 20.3073 29.1556 21.1914 29.0371C21.4831 29.0007 21.7656 28.9642 22.0391 28.9277C22.0208 28.8457 22.0072 28.7454 21.9981 28.627C21.9707 28.3626 21.9388 28.0664 21.9024 27.7383C21.8659 27.401 21.834 27.082 21.8066 26.7812C21.7884 26.4714 21.7884 26.2389 21.8066 26.084C21.8249 25.9199 21.8659 25.8789 21.9297 25.9609C22.1393 26.1979 22.4675 26.3893 22.9141 26.5352C23.6068 26.6992 24.3997 27.2142 25.293 28.0801C25.3932 28.1986 25.4753 28.3216 25.5391 28.4492C25.7305 28.4219 25.9128 28.3945 26.0859 28.3672C27.1797 28.2031 28.0684 28.2943 28.752 28.6406C29.4447 28.987 29.6816 29.3197 29.4629 29.6387C29.2441 29.9486 28.9343 30.2448 28.5332 30.5273C28.1413 30.8099 27.681 30.8965 27.1524 30.7871C26.724 30.696 26.0313 30.6823 25.0742 30.7461C24.9102 30.9831 24.7188 31.2064 24.5 31.416C24.0169 31.8809 23.6341 32.1771 23.3516 32.3047C23.1693 32.3867 22.9414 32.4824 22.668 32.5918C22.3945 32.6921 22.1257 32.7923 21.8613 32.8926C21.597 32.9837 21.3737 33.0612 21.1914 33.125L20.9043 33.2207L21.082 32.6602C21.2096 32.2956 21.3464 31.8626 21.4922 31.3613C21.5195 31.2793 21.5469 31.2018 21.5742 31.1289C20.6901 31.2474 19.7969 31.3841 18.8945 31.5391C18.8125 32.0859 18.653 32.569 18.416 32.9883C18.1152 33.5169 17.7507 33.7038 17.3223 33.5488C17.0033 33.3757 16.7253 32.9974 16.4883 32.4141C16.4427 32.2865 16.3971 32.1589 16.3516 32.0312C15.8685 32.1406 15.4629 32.2409 15.1348 32.332C14.597 32.4779 14.0638 32.4915 13.5352 32.373C13.0156 32.2454 12.5462 32.0632 12.127 31.8262C11.7077 31.5892 11.3841 31.3704 11.1563 31.1699C10.9284 30.9603 10.8418 30.8372 10.8965 30.8008ZM27.5762 41.5059C28.1869 41.515 28.8021 41.7109 29.4219 42.0938C30.0508 42.4766 30.5658 42.9095 30.9668 43.3926C31.0488 43.4837 31.1081 43.5885 31.1445 43.707C31.1628 43.8255 31.1445 43.9395 31.0899 44.0488C31.0443 44.1491 30.9896 44.2493 30.9258 44.3496C30.9167 44.3587 30.9076 44.3678 30.8984 44.377C30.6797 44.7233 30.5247 45.1882 30.4336 45.7715C30.3425 46.3457 30.2741 46.9336 30.2285 47.5352C30.183 48.1823 30.1191 48.7201 30.0371 49.1484C29.8822 49.7591 29.5768 50.3333 29.1211 50.8711C28.6654 51.418 28.155 51.8053 27.5899 52.0332C26.7422 52.2793 25.9173 52.1699 25.1152 51.7051C24.8327 51.5592 24.5501 51.3997 24.2676 51.2266C23.8119 50.9349 23.3379 50.6888 22.8457 50.4883C23.2468 50.3789 23.6615 50.2969 24.0899 50.2422C24.5182 50.1875 24.9284 50.1009 25.3203 49.9824C25.7214 49.8639 26.0723 49.6497 26.3731 49.3398C26.7376 48.875 26.9746 48.3372 27.084 47.7266C27.1387 47.4896 27.1797 47.1751 27.207 46.7832C27.2344 46.3913 27.2526 45.9857 27.2617 45.5664C27.28 44.9284 27.3119 44.4271 27.3574 44.0625C27.3665 43.9987 27.3711 43.9395 27.3711 43.8848C27.3711 43.821 27.3574 43.7663 27.3301 43.7207C27.3027 43.6569 27.2572 43.6113 27.1934 43.584C27.1296 43.5566 27.0658 43.5384 27.002 43.5293C26.6283 43.4746 25.7122 43.4609 24.2539 43.4883C23.5065 43.4974 22.6725 43.5566 21.752 43.666C21.7337 44.4772 21.7383 45.0195 21.7656 45.293C21.7747 45.4023 21.7474 45.5208 21.6836 45.6484C21.7383 45.6302 21.7975 45.6165 21.8613 45.6074C22.4994 45.4707 22.9642 45.3932 23.2559 45.375C23.2012 45.0833 23.1556 44.8145 23.1191 44.5684L23.0234 43.9258L23.4746 44.2539C23.7754 44.4818 24.1354 44.7507 24.5547 45.0605C24.974 45.3704 25.375 45.6803 25.7578 45.9902C26.1497 46.291 26.446 46.5326 26.6465 46.7148C26.8744 46.9701 26.8516 47.2572 26.5781 47.5762C26.3047 47.8861 25.9447 48.1367 25.4981 48.3281C25.0514 48.5286 24.6823 48.5788 24.3906 48.4785C24.181 48.36 23.9941 48.0684 23.8301 47.6035C23.821 47.5853 23.8119 47.5625 23.8027 47.5352C23.584 47.6263 23.2695 47.6491 22.8594 47.6035C22.0208 47.5033 21.2051 47.5352 20.4121 47.6992C19.6283 47.8633 18.9264 48.0456 18.3066 48.2461C17.778 48.4193 17.3587 48.5286 17.0488 48.5742C16.7481 48.5833 16.5111 48.4375 16.3379 48.1367C16.1647 47.8359 16.0143 47.4896 15.8867 47.0977C15.7409 46.6055 15.5632 46.2363 15.3535 45.9902L16.1738 46.0586C16.7207 46.0951 17.4499 46.1042 18.3613 46.0859C18.5072 46.0768 18.6484 46.0677 18.7852 46.0586C18.7852 46.0495 18.7852 46.0449 18.7852 46.0449C18.8125 45.8079 18.8307 45.2201 18.8399 44.2812C18.8399 44.2266 18.8399 44.1719 18.8399 44.1172C16.862 44.4909 15.7044 44.7598 15.3672 44.9238C15.349 44.9329 15.3307 44.9421 15.3125 44.9512C15.2396 44.9967 15.1667 45.0378 15.0938 45.0742C15.0573 45.0833 15.0254 45.0924 14.9981 45.1016C14.9707 45.5482 14.9479 46.0495 14.9297 46.6055C14.9024 47.3529 14.9069 48.0547 14.9434 48.7109C14.9798 49.3763 15.071 49.8503 15.2168 50.1328C15.3718 50.4883 15.2624 50.7845 14.8887 51.0215C14.515 51.2676 14.0775 51.377 13.5762 51.3496C13.084 51.3223 12.7331 51.0762 12.5234 50.6113C12.3867 50.2194 12.2546 49.5859 12.127 48.7109C12.0085 47.8359 11.8991 46.9154 11.7988 45.9492C11.7077 44.974 11.6348 44.1354 11.5801 43.4336L11.4981 42.3672L13.7129 43.2832C14.0775 43.1374 14.5833 43.0007 15.2305 42.873C16.1693 42.6816 17.3724 42.4993 18.8399 42.3262C18.8399 42.0618 18.8399 41.793 18.8399 41.5195C18.5026 41.5833 18.1654 41.6471 17.8281 41.7109C17.6823 41.7383 17.541 41.7656 17.4043 41.793C17.0944 42.0299 16.7162 42.1393 16.2695 42.1211C16.1419 42.1211 16.0234 42.1029 15.9141 42.0664C15.5586 42.1211 15.3672 42.1211 15.3399 42.0664C15.3034 41.9479 15.1667 41.752 14.9297 41.4785C14.7018 41.196 14.4649 40.9271 14.2188 40.6719C13.9727 40.4167 13.8132 40.2572 13.7402 40.1934L14.7383 40.0703C14.7018 39.9427 14.6654 39.8151 14.6289 39.6875C14.4193 38.849 14.2096 37.9603 14 37.0215C13.7995 36.0827 13.6354 35.2715 13.5078 34.5879L13.3027 33.5625L15.5449 34.3828C15.6543 34.3646 15.7774 34.3464 15.9141 34.3281C16.5794 34.2096 17.377 34.0592 18.3066 33.877C19.7012 33.6035 21.0228 33.3711 22.2715 33.1797C23.3561 33.0065 24.0625 32.9609 24.3906 33.043L24.418 32.9199C24.6094 32.9655 24.9649 33.0658 25.4844 33.2207C26.0039 33.3757 26.5143 33.5443 27.0156 33.7266C27.5169 33.9089 27.8359 34.0638 27.9727 34.1914C28.0456 34.3099 27.9316 34.6836 27.6309 35.3125C27.3301 35.9323 26.9427 36.625 26.4688 37.3906C26.0859 37.9922 25.7122 38.5299 25.3477 39.0039C25.7214 39.168 25.9994 39.4004 26.1816 39.7012C26.3822 40.1569 26.209 40.5306 25.6621 40.8223C25.1152 41.1048 24.3906 41.1686 23.4883 41.0137C23.0781 40.9499 22.5267 40.959 21.834 41.041C21.8158 41.36 21.8021 41.679 21.793 41.998C23.2422 41.8522 24.4453 41.7383 25.4024 41.6562C26.6693 41.556 27.3939 41.5059 27.5762 41.5059ZM21.9981 35.3809C22.1074 35.5358 22.1667 35.7409 22.1758 35.9961C22.1758 36.0326 22.1758 36.0736 22.1758 36.1191C22.4766 36.0827 22.6589 36.0827 22.7227 36.1191C22.7865 36.2012 22.8457 36.3561 22.9004 36.584C22.9551 36.8027 22.9733 37.0397 22.9551 37.2949C22.9369 37.541 22.8412 37.7461 22.668 37.9102C22.513 38.056 22.276 38.1335 21.957 38.1426C21.957 38.179 21.957 38.2109 21.957 38.2383C21.9479 38.4388 21.9343 38.7077 21.916 39.0449C22.308 38.972 22.6087 38.9082 22.8184 38.8535C23.0918 38.7806 23.3652 38.735 23.6387 38.7168C23.6387 38.3704 23.6615 37.9831 23.707 37.5547C23.78 36.8438 23.8711 36.1328 23.9805 35.4219C23.9987 35.3216 24.0169 35.2168 24.0352 35.1074C23.5885 35.2806 22.9232 35.3717 22.0391 35.3809C22.0208 35.3809 22.0072 35.3809 21.9981 35.3809ZM18.4844 35.7637C18.1016 35.8457 17.7598 35.9368 17.459 36.0371C17.222 36.11 17.0078 36.1693 16.8164 36.2148C16.8346 36.5065 16.8574 36.821 16.8848 37.1582C17.377 37.0579 17.9238 36.944 18.5254 36.8164C18.5801 36.8073 18.6302 36.7982 18.6758 36.7891C18.6576 36.5885 18.6348 36.4473 18.6074 36.3652C18.5345 36.1738 18.4935 35.9733 18.4844 35.7637ZM18.7988 39.5371C18.7988 39.2181 18.7943 38.9082 18.7852 38.6074C18.3659 38.7168 17.9649 38.8262 17.582 38.9355C17.4089 38.9811 17.2494 39.0221 17.1035 39.0586C17.1309 39.2409 17.1582 39.4141 17.1856 39.5781C17.1947 39.6419 17.2038 39.7012 17.2129 39.7559C17.3952 39.7285 17.582 39.7012 17.7734 39.6738C18.1289 39.6283 18.4707 39.5827 18.7988 39.5371Z" fill="#AC391B"/>
</svg>
