<svg width="42" height="56" viewBox="0 0 42 56" fill="none" xmlns="http://www.w3.org/2000/svg">
<rect width="42" height="56" rx="4" fill="white"/>
<path d="M23.3652 15.0723C23.1647 16.4668 23.0553 17.2962 23.0371 17.5605C23.0371 17.6881 23.0417 17.9206 23.0508 18.2578C23.0326 18.6771 22.4674 19.3151 21.3555 20.1719C21.2734 20.2539 21.2051 20.2949 21.1504 20.2949V20.3223L21.2188 20.3359C22.7227 20.2266 23.9395 20.1263 24.8691 20.0351L24.8965 19.5293C24.9329 18.472 25.1608 16.9909 25.5801 15.0859L25.5527 15.0723C24.8874 15.0905 24.1582 15.0905 23.3652 15.0723ZM29.0254 5.36522C29.3079 5.37434 29.5632 5.78449 29.791 6.59569C29.873 6.8509 29.9049 7.11978 29.8867 7.40233V7.52538C29.8594 8.23632 29.5267 8.64191 28.8887 8.74218C28.1413 8.68749 27.6263 8.65559 27.3438 8.64647C26.1497 8.59178 23.6615 9.04296 19.8789 9.99999V10.0273C20.1615 10.1185 21.1048 10.2279 22.709 10.3555C23.2103 10.4922 23.5293 10.6973 23.666 10.9707C23.7572 11.2806 23.7982 11.5814 23.7891 11.873L23.7754 12.1738C24.5775 12.0098 25.4388 11.8821 26.3594 11.791C26.3594 11.7181 26.3822 11.5859 26.4277 11.3945C27.9681 11.9687 29.2533 12.5612 30.2832 13.1719C30.4837 13.3359 30.584 13.4407 30.584 13.4863C30.5658 13.9785 29.8913 15.2409 28.5605 17.2734C27.8678 18.2669 27.2116 19.1237 26.5918 19.8437H26.6191C28.0501 19.625 29.0436 19.5293 29.5996 19.5566L29.9824 19.5703C31.6322 19.6432 32.8262 20.1308 33.5645 21.0332C33.6647 21.1881 33.7103 21.334 33.7012 21.4707V21.6074C33.6738 22.1816 32.9583 22.6009 31.5547 22.8652C31.099 22.9381 30.6022 22.9609 30.0645 22.9336L27.8359 22.6601C26.2591 22.5872 23.5521 22.8516 19.7148 23.4531C19.2318 23.4987 18.8945 23.5169 18.7031 23.5078C18.6302 23.5078 18.5482 23.403 18.457 23.1933C17.5729 22.1725 16.7344 21.3385 15.9414 20.6914C16.8984 20.6458 18.3203 20.5547 20.207 20.418C19.7148 19.9531 19.4779 19.5749 19.4961 19.2832C19.4961 19.2103 19.5508 18.3626 19.6602 16.7402C19.651 16.4303 19.651 16.1295 19.6602 15.8379C19.4688 15.8926 19.3001 15.929 19.1543 15.9473C18.6165 15.9199 18.0788 15.1634 17.541 13.6777C17.5046 13.5866 17.4863 13.4635 17.4863 13.3086V13.2812L17.5273 13.2129C17.7096 13.2402 17.8236 13.2585 17.8691 13.2676C18.0697 13.2767 18.6667 13.1901 19.6602 13.0078C19.6693 12.7617 19.6055 12.2741 19.4688 11.5449L19.4824 10.9433C19.5007 10.6973 19.5462 10.4101 19.6191 10.082H19.5918C19.0449 10.237 18.5755 10.3372 18.1836 10.3828C17.8372 10.3646 17.5228 9.76757 17.2402 8.59178C17.2038 8.67382 17.1628 8.75585 17.1172 8.83788C16.6979 9.67642 16.0872 10.5469 15.2852 11.4492C14.9297 11.8594 14.5742 12.2422 14.2188 12.5976C14.4648 12.6341 14.6973 12.6979 14.916 12.7891C15.1803 12.944 15.3171 13.2311 15.3262 13.6504C15.3353 14.0605 15.3034 14.5117 15.2305 15.0039C15.1849 15.3229 15.153 15.6237 15.1348 15.9062C15.1165 16.3346 15.0846 17.1276 15.0391 18.2851C14.9935 19.4336 14.957 20.5638 14.9297 21.6758C14.9023 22.7786 14.9023 23.4896 14.9297 23.8086C14.9388 24.0091 14.8613 24.2187 14.6973 24.4375C14.5332 24.6654 14.3327 24.8795 14.0957 25.0801C13.8678 25.2806 13.6628 25.4492 13.4805 25.5859L13.207 25.7773L13.0566 25.6953C12.9564 25.6315 12.8424 25.5449 12.7148 25.4355C12.5964 25.3262 12.4915 25.194 12.4004 25.0391C12.3184 24.8841 12.2865 24.7064 12.3047 24.5058C12.3229 24.2598 12.3366 23.6263 12.3457 22.6055C12.3548 21.5846 12.3548 20.4362 12.3457 19.1601C12.3457 17.8841 12.332 16.7448 12.3047 15.7422C12.2865 15.1771 12.2682 14.7396 12.25 14.4297C11.9401 14.6758 11.7214 14.8262 11.5938 14.8808C11.4023 14.9446 11.1289 14.9948 10.7734 15.0312C10.418 15.0677 10.0488 15.0905 9.66602 15.0996C9.29232 15.1087 8.96875 15.1133 8.69531 15.1133H8.28516L9.10547 14.1973C9.66146 13.5866 10.2904 12.8392 10.9922 11.9551C11.7031 11.071 12.3184 10.1914 12.8379 9.31639C13.3574 8.43228 13.6126 7.69856 13.6035 7.11522C13.6035 6.9785 13.599 6.75975 13.5898 6.45897C13.5807 6.15819 13.5762 5.8483 13.5762 5.52928C13.5853 5.21027 13.6035 4.95507 13.6309 4.76366C13.6673 4.57225 13.722 4.51757 13.7949 4.5996C13.9863 4.80012 14.3372 5.02343 14.8477 5.26952C15.4857 5.55207 16.1283 5.97134 16.7754 6.52733C17.4681 6.55468 18.0833 6.59569 18.6211 6.65038C20.6081 6.74152 22.0163 6.68228 22.8457 6.47264L29.0254 5.36522Z" fill="#262C86"/>
<path d="M10.8965 30.8008C11.7533 30.5547 13.1432 30.2721 15.0664 29.9531C15.3034 29.9075 15.5449 29.8665 15.791 29.8301C15.6999 29.3834 15.6315 28.9824 15.5859 28.6269L15.4629 27.834L15.791 27.8887C16.0098 27.9251 16.2787 27.9935 16.5977 28.0937C16.9258 28.194 17.2585 28.3398 17.5957 28.5312C17.9421 28.7226 18.2474 28.9733 18.5117 29.2832C18.5391 29.3196 18.5619 29.3561 18.5801 29.3926C19.4369 29.2741 20.3073 29.1556 21.1914 29.0371C21.4831 29.0006 21.7656 28.9642 22.0391 28.9277C22.0208 28.8457 22.0072 28.7454 21.9981 28.6269C21.9707 28.3626 21.9388 28.0664 21.9024 27.7383C21.8659 27.401 21.834 27.082 21.8066 26.7812C21.7884 26.4713 21.7884 26.2389 21.8066 26.084C21.8249 25.9199 21.8659 25.8789 21.9297 25.9609C22.1393 26.1979 22.4675 26.3893 22.9141 26.5351C23.6068 26.6992 24.3997 27.2142 25.293 28.0801C25.3932 28.1986 25.4753 28.3216 25.5391 28.4492C25.7305 28.4219 25.9128 28.3945 26.0859 28.3672C27.1797 28.2031 28.0684 28.2943 28.752 28.6406C29.4447 28.987 29.6816 29.3196 29.4629 29.6387C29.2441 29.9486 28.9343 30.2448 28.5332 30.5273C28.1413 30.8099 27.681 30.8965 27.1524 30.7871C26.724 30.6959 26.0313 30.6823 25.0742 30.7461C24.9102 30.9831 24.7188 31.2064 24.5 31.416C24.0169 31.8808 23.6341 32.1771 23.3516 32.3047C23.1693 32.3867 22.9414 32.4824 22.668 32.5918C22.3945 32.692 22.1257 32.7923 21.8613 32.8926C21.597 32.9837 21.3737 33.0612 21.1914 33.125L20.9043 33.2207L21.082 32.6601C21.2096 32.2956 21.3464 31.8626 21.4922 31.3613C21.5195 31.2793 21.5469 31.2018 21.5742 31.1289C20.6901 31.2474 19.7969 31.3841 18.8945 31.539C18.8125 32.0859 18.653 32.569 18.416 32.9883C18.1152 33.5169 17.7507 33.7038 17.3223 33.5488C17.0033 33.3756 16.7253 32.9974 16.4883 32.414C16.4427 32.2864 16.3971 32.1588 16.3516 32.0312C15.8685 32.1406 15.4629 32.2409 15.1348 32.332C14.597 32.4778 14.0638 32.4915 13.5352 32.373C13.0156 32.2454 12.5462 32.0631 12.127 31.8262C11.7077 31.5892 11.3841 31.3704 11.1563 31.1699C10.9284 30.9603 10.8418 30.8372 10.8965 30.8008ZM27.5762 41.5058C28.1869 41.515 28.8021 41.7109 29.4219 42.0937C30.0508 42.4765 30.5658 42.9095 30.9668 43.3926C31.0488 43.4837 31.1081 43.5885 31.1445 43.707C31.1628 43.8255 31.1445 43.9394 31.0899 44.0488C31.0443 44.1491 30.9896 44.2493 30.9258 44.3496C30.9167 44.3587 30.9076 44.3678 30.8984 44.3769C30.6797 44.7233 30.5247 45.1881 30.4336 45.7715C30.3425 46.3457 30.2741 46.9336 30.2285 47.5351C30.183 48.1823 30.1191 48.72 30.0371 49.1484C29.8822 49.7591 29.5768 50.3333 29.1211 50.8711C28.6654 51.418 28.155 51.8053 27.5899 52.0332C26.7422 52.2793 25.9173 52.1699 25.1152 51.7051C24.8327 51.5592 24.5501 51.3997 24.2676 51.2265C23.8119 50.9349 23.3379 50.6888 22.8457 50.4883C23.2468 50.3789 23.6615 50.2969 24.0899 50.2422C24.5182 50.1875 24.9284 50.1009 25.3203 49.9824C25.7214 49.8639 26.0723 49.6497 26.3731 49.3398C26.7376 48.875 26.9746 48.3372 27.084 47.7265C27.1387 47.4896 27.1797 47.1751 27.207 46.7832C27.2344 46.3913 27.2526 45.9857 27.2617 45.5664C27.28 44.9284 27.3119 44.4271 27.3574 44.0625C27.3665 43.9987 27.3711 43.9394 27.3711 43.8848C27.3711 43.8209 27.3574 43.7663 27.3301 43.7207C27.3027 43.6569 27.2572 43.6113 27.1934 43.584C27.1296 43.5566 27.0658 43.5384 27.002 43.5293C26.6283 43.4746 25.7122 43.4609 24.2539 43.4883C23.5065 43.4974 22.6725 43.5566 21.752 43.666C21.7337 44.4772 21.7383 45.0195 21.7656 45.293C21.7747 45.4023 21.7474 45.5208 21.6836 45.6484C21.7383 45.6302 21.7975 45.6165 21.8613 45.6074C22.4994 45.4707 22.9642 45.3932 23.2559 45.375C23.2012 45.0833 23.1556 44.8144 23.1191 44.5683L23.0234 43.9258L23.4746 44.2539C23.7754 44.4818 24.1354 44.7506 24.5547 45.0605C24.974 45.3704 25.375 45.6803 25.7578 45.9902C26.1497 46.291 26.446 46.5325 26.6465 46.7148C26.8744 46.97 26.8516 47.2571 26.5781 47.5762C26.3047 47.8861 25.9447 48.1367 25.4981 48.3281C25.0514 48.5286 24.6823 48.5788 24.3906 48.4785C24.181 48.36 23.9941 48.0683 23.8301 47.6035C23.821 47.5853 23.8119 47.5625 23.8027 47.5351C23.584 47.6263 23.2695 47.6491 22.8594 47.6035C22.0208 47.5032 21.2051 47.5351 20.4121 47.6992C19.6283 47.8633 18.9264 48.0456 18.3066 48.2461C17.778 48.4193 17.3587 48.5286 17.0488 48.5742C16.7481 48.5833 16.5111 48.4375 16.3379 48.1367C16.1647 47.8359 16.0143 47.4896 15.8867 47.0976C15.7409 46.6055 15.5632 46.2363 15.3535 45.9902L16.1738 46.0586C16.7207 46.095 17.4499 46.1042 18.3613 46.0859C18.5072 46.0768 18.6484 46.0677 18.7852 46.0586C18.7852 46.0495 18.7852 46.0449 18.7852 46.0449C18.8125 45.8079 18.8307 45.22 18.8399 44.2812C18.8399 44.2265 18.8399 44.1719 18.8399 44.1172C16.862 44.4909 15.7044 44.7598 15.3672 44.9238C15.349 44.9329 15.3307 44.942 15.3125 44.9512C15.2396 44.9967 15.1667 45.0377 15.0938 45.0742C15.0573 45.0833 15.0254 45.0924 14.9981 45.1015C14.9707 45.5482 14.9479 46.0495 14.9297 46.6055C14.9024 47.3528 14.9069 48.0547 14.9434 48.7109C14.9798 49.3763 15.071 49.8502 15.2168 50.1328C15.3718 50.4883 15.2624 50.7845 14.8887 51.0215C14.515 51.2676 14.0775 51.3769 13.5762 51.3496C13.084 51.3223 12.7331 51.0762 12.5234 50.6113C12.3867 50.2194 12.2546 49.5859 12.127 48.7109C12.0085 47.8359 11.8991 46.9153 11.7988 45.9492C11.7077 44.9739 11.6348 44.1354 11.5801 43.4336L11.4981 42.3672L13.7129 43.2832C14.0775 43.1374 14.5833 43.0006 15.2305 42.873C16.1693 42.6816 17.3724 42.4993 18.8399 42.3262C18.8399 42.0618 18.8399 41.793 18.8399 41.5195C18.5026 41.5833 18.1654 41.6471 17.8281 41.7109C17.6823 41.7383 17.541 41.7656 17.4043 41.793C17.0944 42.0299 16.7162 42.1393 16.2695 42.1211C16.1419 42.1211 16.0234 42.1028 15.9141 42.0664C15.5586 42.1211 15.3672 42.1211 15.3399 42.0664C15.3034 41.9479 15.1667 41.7519 14.9297 41.4785C14.7018 41.1959 14.4649 40.9271 14.2188 40.6719C13.9727 40.4167 13.8132 40.2571 13.7402 40.1933L14.7383 40.0703C14.7018 39.9427 14.6654 39.8151 14.6289 39.6875C14.4193 38.8489 14.2096 37.9603 14 37.0215C13.7995 36.0827 13.6354 35.2715 13.5078 34.5879L13.3027 33.5625L15.5449 34.3828C15.6543 34.3646 15.7774 34.3463 15.9141 34.3281C16.5794 34.2096 17.377 34.0592 18.3066 33.8769C19.7012 33.6035 21.0228 33.3711 22.2715 33.1797C23.3561 33.0065 24.0625 32.9609 24.3906 33.043L24.418 32.9199C24.6094 32.9655 24.9649 33.0657 25.4844 33.2207C26.0039 33.3756 26.5143 33.5443 27.0156 33.7265C27.5169 33.9088 27.8359 34.0638 27.9727 34.1914C28.0456 34.3099 27.9316 34.6836 27.6309 35.3125C27.3301 35.9323 26.9427 36.625 26.4688 37.3906C26.0859 37.9922 25.7122 38.5299 25.3477 39.0039C25.7214 39.168 25.9994 39.4004 26.1816 39.7012C26.3822 40.1569 26.209 40.5306 25.6621 40.8223C25.1152 41.1048 24.3906 41.1686 23.4883 41.0137C23.0781 40.9499 22.5267 40.959 21.834 41.041C21.8158 41.36 21.8021 41.679 21.793 41.998C23.2422 41.8522 24.4453 41.7383 25.4024 41.6562C26.6693 41.556 27.3939 41.5058 27.5762 41.5058ZM21.9981 35.3808C22.1074 35.5358 22.1667 35.7409 22.1758 35.9961C22.1758 36.0325 22.1758 36.0736 22.1758 36.1191C22.4766 36.0827 22.6589 36.0827 22.7227 36.1191C22.7865 36.2012 22.8457 36.3561 22.9004 36.584C22.9551 36.8027 22.9733 37.0397 22.9551 37.2949C22.9369 37.541 22.8412 37.7461 22.668 37.9101C22.513 38.056 22.276 38.1334 21.957 38.1426C21.957 38.179 21.957 38.2109 21.957 38.2383C21.9479 38.4388 21.9343 38.7077 21.916 39.0449C22.308 38.972 22.6087 38.9082 22.8184 38.8535C23.0918 38.7806 23.3652 38.735 23.6387 38.7168C23.6387 38.3704 23.6615 37.9831 23.707 37.5547C23.78 36.8437 23.8711 36.1328 23.9805 35.4219C23.9987 35.3216 24.0169 35.2168 24.0352 35.1074C23.5885 35.2806 22.9232 35.3717 22.0391 35.3808C22.0208 35.3808 22.0072 35.3808 21.9981 35.3808ZM18.4844 35.7637C18.1016 35.8457 17.7598 35.9368 17.459 36.0371C17.222 36.11 17.0078 36.1693 16.8164 36.2148C16.8346 36.5065 16.8574 36.8209 16.8848 37.1582C17.377 37.0579 17.9238 36.944 18.5254 36.8164C18.5801 36.8073 18.6302 36.7982 18.6758 36.789C18.6576 36.5885 18.6348 36.4473 18.6074 36.3652C18.5345 36.1738 18.4935 35.9733 18.4844 35.7637ZM18.7988 39.5371C18.7988 39.2181 18.7943 38.9082 18.7852 38.6074C18.3659 38.7168 17.9649 38.8262 17.582 38.9355C17.4089 38.9811 17.2494 39.0221 17.1035 39.0586C17.1309 39.2409 17.1582 39.414 17.1856 39.5781C17.1947 39.6419 17.2038 39.7012 17.2129 39.7558C17.3952 39.7285 17.582 39.7012 17.7734 39.6738C18.1289 39.6282 18.4707 39.5827 18.7988 39.5371Z" fill="#AC391B"/>
</svg>
