<svg width="42" height="56" viewBox="0 0 42 56" fill="none" xmlns="http://www.w3.org/2000/svg">
<rect width="42" height="56" rx="4" fill="white"/>
<path d="M31.123 23.0967C32.1074 23.165 32.9482 23.5547 33.6455 24.2656C34.3428 24.9766 34.958 25.7764 35.4912 26.665C35.6143 26.8291 35.6963 27.0205 35.7373 27.2393C35.7373 27.4443 35.6826 27.6426 35.5732 27.834C35.4775 28.0117 35.3545 28.1895 35.2041 28.3672C35.1904 28.3809 35.1768 28.4014 35.1631 28.4287C34.7803 28.9756 34.0967 31.6143 33.1123 36.3447C32.7568 37.4248 32.2646 38.4365 31.6357 39.3799C31.0068 40.3232 30.2344 40.4805 29.3184 39.8516C28.8125 39.4961 28.5527 38.7783 28.5391 37.6982C26.666 37.5479 24.2939 37.6504 21.4229 38.0059C18.3467 38.3887 15.6328 38.7783 13.2812 39.1748C11.832 39.4072 10.8408 39.5508 10.3076 39.6055C9.70605 39.6191 9.25488 39.3457 8.9541 38.7852C8.66699 38.2246 8.43457 37.582 8.25684 36.8574C8.03809 35.9551 7.74414 35.2715 7.375 34.8066L8.46191 34.8477C8.48926 34.8613 8.5166 34.8682 8.54395 34.8682C8.28418 33.4873 8.03125 32.0449 7.78516 30.541C7.55273 29.0098 7.36133 27.6904 7.21094 26.583L7.00586 24.9219L11.2305 26.7266C11.1621 26.6309 11.1006 26.542 11.0459 26.46C11.4561 25.9541 12.625 25.4961 14.5527 25.0859C14.5801 25.0859 14.6006 25.0791 14.6143 25.0654C14.5186 24.0947 14.4297 23.2334 14.3477 22.4814L14.2246 21.2305C12.8848 21.4629 11.7637 21.6406 10.8613 21.7637C9.87695 21.9141 9.35742 21.9277 9.30273 21.8047C9.20703 21.5449 8.85156 21.1348 8.23633 20.5742C7.62109 20.0137 6.98535 19.4805 6.3291 18.9746C5.68652 18.4551 5.27637 18.1406 5.09863 18.0313L7.78516 17.7236C9.58984 17.5186 11.7295 17.2656 14.2041 16.9648C16.6787 16.6641 19.0234 16.3633 21.2383 16.0625C23.4531 15.748 25.0527 15.4746 26.0371 15.2422C27.9512 14.8184 29.7764 14.75 31.5127 15.0371C33.2627 15.3105 34.4727 15.8916 35.1426 16.7803C35.6484 17.71 35.1426 18.4893 33.625 19.1182C32.1211 19.7471 30.1318 19.9385 27.6572 19.6924C26.1533 19.542 24.1777 19.6445 21.7305 20C19.3242 20.3281 17.0068 20.7041 14.7783 21.1279C15.0381 21.21 15.3389 21.3262 15.6807 21.4766C16.2959 21.75 16.8564 22.0439 17.3623 22.3584C17.8682 22.6729 18.1553 22.9053 18.2236 23.0557C18.251 23.1787 18.3057 23.623 18.3877 24.3887C19.2627 24.2656 20.1719 24.1426 21.1152 24.0195C21.4023 23.9785 21.6895 23.9443 21.9766 23.917C22.0586 22.9736 22.127 22.1465 22.1816 21.4355L22.3252 20C22.3936 20.0273 22.5029 20.0615 22.6533 20.1025C23.0498 20.2529 23.5762 20.4648 24.2324 20.7383C24.8887 20.998 25.4766 21.2852 25.9961 21.5996C26.5293 21.9004 26.7959 22.1738 26.7959 22.4199C26.7686 22.748 26.7412 23.0762 26.7139 23.4043C27.0283 23.377 27.3359 23.3496 27.6367 23.3223C29.5645 23.1719 30.7266 23.0967 31.123 23.0967ZM14.9629 28.6543C14.8125 28.709 14.6826 28.7637 14.5732 28.8184C14.5459 28.832 14.5186 28.8457 14.4912 28.8594C14.3545 28.9414 14.2178 29.0166 14.0811 29.085C13.9443 29.1397 13.8008 29.1602 13.6504 29.1465C13.3906 29.0918 13.165 28.9619 12.9736 28.7568C12.7412 28.5518 12.5225 28.333 12.3174 28.1006L12.2969 28.4492C12.2832 29.2695 12.29 30.2539 12.3174 31.4023C12.3447 32.5371 12.4131 33.6172 12.5225 34.6426C12.5361 34.7793 12.5498 34.9092 12.5635 35.0322C13.2607 35.0596 13.9717 35.0869 14.6963 35.1143C15.2158 35.1143 15.8105 35.1006 16.4805 35.0732C16.4531 35.0459 16.4258 35.0254 16.3984 35.0117C16.1387 34.8066 15.8994 34.5264 15.6807 34.1709C15.4619 33.8154 15.3389 33.3574 15.3115 32.7969C15.2842 32.2363 15.209 31.3203 15.0859 30.0488C15.0449 29.5977 15.0039 29.1328 14.9629 28.6543ZM18.7568 27.834C18.7568 27.8477 18.7568 27.8682 18.7568 27.8955C18.8799 29.1123 18.9893 30.2129 19.085 31.1973C19.1943 32.168 19.2559 32.7695 19.2695 33.002C19.2695 33.207 19.1738 33.4531 18.9824 33.7402C18.8047 34.0137 18.5928 34.2871 18.3467 34.5605C18.21 34.7109 18.0869 34.8477 17.9775 34.9707C18.5107 34.9297 19.0781 34.875 19.6797 34.8066C20.2539 34.752 20.8281 34.6904 21.4023 34.6221C21.3477 34.3897 21.3066 34.0957 21.2793 33.7402C21.2246 32.7969 21.2861 31.457 21.4639 29.7207C21.5459 28.9004 21.6211 28.1143 21.6895 27.3623C20.7324 27.5127 19.7754 27.6699 18.8184 27.834C18.791 27.834 18.7705 27.834 18.7568 27.834ZM26.1602 26.8086C25.873 28.2031 25.4902 29.5566 25.0117 30.8691C24.4238 32.5508 23.7744 33.7402 23.0635 34.4375C24.0068 34.3281 24.9365 34.2188 25.8525 34.1094C27.2471 33.9453 28.3477 33.8223 29.1543 33.7402C29.7285 31.1973 30.0293 29.6455 30.0566 29.085C30.0703 28.4697 30.1182 27.9912 30.2002 27.6494C30.2275 27.54 30.248 27.4375 30.2617 27.3418C30.2754 27.2324 30.2686 27.1299 30.2412 27.0342C30.1865 26.9385 30.1113 26.8633 30.0156 26.8086C29.9336 26.7539 29.8379 26.7129 29.7285 26.6855C29.1953 26.5898 28.0059 26.6309 26.1602 26.8086Z" fill="#262C86"/>
</svg>
