<svg width="42" height="56" viewBox="0 0 42 56" fill="none" xmlns="http://www.w3.org/2000/svg">
<rect width="42" height="56" rx="4" fill="white"/>
<path d="M21.7953 13.9485C21.3622 14.3815 21.1584 14.9165 21.1584 15.5025C21.1584 16.1139 21.3622 16.6489 21.7953 17.082C22.2284 17.5151 22.7379 17.7444 23.3748 17.7444C23.9607 17.7444 24.4957 17.5151 24.9288 17.082C25.3619 16.6489 25.5912 16.1139 25.5912 15.5025C25.5912 14.9165 25.3619 14.3815 24.9288 13.9485C24.4957 13.5154 23.9607 13.2861 23.3748 13.2861C22.7379 13.2861 22.2284 13.5154 21.7953 13.9485ZM24.4448 15.5025C24.4448 15.8082 24.3429 16.0884 24.1136 16.2922C23.9098 16.496 23.6295 16.6234 23.3493 16.6234C23.0436 16.6234 22.7634 16.5215 22.5596 16.2922C22.3558 16.0884 22.2284 15.8082 22.2284 15.5025C22.2284 15.1968 22.3303 14.942 22.5596 14.7382C22.7634 14.5344 23.0436 14.407 23.3493 14.407C23.655 14.407 23.9098 14.5089 24.1136 14.7382C24.3429 14.9675 24.4448 15.2222 24.4448 15.5025Z" fill="#038249"/>
<path d="M17.2351 30.1001L15.3244 30.2275C14.8404 30.253 14.5347 30.5842 14.4837 30.8899C14.5092 30.9154 17.388 30.6861 17.388 30.6861C17.388 30.7116 17.5154 30.4823 17.5918 30.3804C17.5663 30.3804 17.2861 30.1511 17.2351 30.1001Z" fill="#038249"/>
<path d="M12.8533 30.9663C13.0571 30.8899 13.1845 30.8389 13.3883 30.7625C13.2354 30.6097 13.0571 30.2785 13.0316 30.3804L6.56077 30.7625C6.50982 30.8644 6.43339 30.9408 6.35697 31.0427C6.15316 31.2466 5.92388 31.3485 5.66912 31.3739C5.38889 31.3994 5.1596 31.2975 4.9558 31.1192C4.75199 30.9154 4.65008 30.6861 4.62461 30.4059C4.59913 30.1511 4.67556 29.8963 4.85389 29.6925C5.03222 29.4887 5.26151 29.3613 5.54174 29.3359C5.7965 29.3104 6.05126 29.4123 6.28054 29.6161C6.38244 29.6925 6.45887 29.769 6.50982 29.8454L13.1335 29.4378C13.1335 29.4378 13.159 29.183 13.1845 29.1066C13.1335 29.0302 12.9552 28.8518 12.9297 28.8009L7.09576 29.1575C7.07029 29.1321 7.01934 29.0811 6.99386 29.0811C6.61172 28.7754 6.12768 28.6225 5.56721 28.6735C4.98127 28.699 4.52271 28.9028 4.19152 29.2594C3.86033 29.6161 3.70748 30.0237 3.73295 30.4823C3.75843 30.9408 3.93676 31.323 4.3189 31.6287C4.70104 31.9344 5.1596 32.0873 5.74554 32.0363C6.30601 32.0108 6.76458 31.807 7.14671 31.4504C7.19767 31.3994 7.24862 31.3485 7.24862 31.323L12.5731 30.9918C12.6495 30.9663 12.7769 30.9663 12.8533 30.9663Z" fill="#038249"/>
<path d="M24.1391 42.9909C24.0881 42.0483 24.0627 41.2331 24.0881 40.5452C24.8015 44.3666 25.795 47.1944 27.0943 49.0032C25.4384 44.5704 24.5467 41.2586 24.4193 39.1186C24.2919 37.4881 24.1646 36.1124 24.0881 35.0679C23.9353 33.3101 23.8589 31.9089 23.8334 30.8389C23.8079 30.8135 23.8079 30.6606 23.7824 30.6351C23.6296 30.6861 23.1965 30.7116 23.1455 30.7116C23.1455 30.737 23.1201 30.9408 23.1455 30.9408C23.1455 32.5203 23.222 34.0744 23.3493 35.552C23.4767 37.0296 23.5022 38.2524 23.4003 39.2205C23.2984 40.1886 23.3239 41.1821 23.4258 42.2012C21.9991 38.4053 21.1584 34.6858 20.9037 31.0427C20.9037 31.0427 20.9291 30.8135 20.9037 30.788C20.8527 30.788 20.4706 30.7625 20.3687 30.737C20.3432 30.7625 20.3177 30.9918 20.3432 30.9918C20.4196 33.1318 20.6744 35.4246 21.1329 37.8448C21.8717 41.7171 22.9163 45.2328 24.2665 48.4173C23.6041 45.8442 22.9163 43.0419 22.152 40.0612C22.636 41.6662 23.0691 42.889 23.4003 43.7042C23.5022 45.3092 24.2665 47.602 25.6931 50.5572C24.6486 47.7549 24.0627 45.7933 23.9608 44.6214C24.2155 45.3602 24.8779 47.0671 25.9734 49.793C25.6931 47.7294 25.1072 45.4621 24.1391 42.9909Z" fill="#038249"/>
<path d="M38.9915 28.3168C38.966 27.8583 38.7367 27.4761 38.3291 27.1449C37.896 26.8392 37.4375 26.7119 36.928 26.7373C36.342 26.7628 35.8835 26.9666 35.5523 27.3233L35.4504 27.4252C35.4504 27.4252 28.1388 27.8583 28.1643 27.8583C27.7057 27.8328 27.1962 28.5461 27.5783 28.5461L36.1127 28.0111C36.1382 27.9092 36.1892 27.8328 36.2401 27.7564C36.4184 27.5271 36.6477 27.3997 36.928 27.3997C37.1827 27.3742 37.4375 27.4761 37.6668 27.6545C37.896 27.8583 38.0234 28.0875 38.0234 28.3423C38.0489 28.6225 37.947 28.8773 37.7432 29.0811C37.5394 29.2849 37.3101 29.4123 37.0553 29.4378C36.7751 29.4632 36.5458 29.3613 36.3675 29.183C36.2656 29.1066 36.2146 29.0302 36.1637 28.9283L26.5593 29.5142C26.3045 29.6416 25.9479 29.9982 25.7186 30.1511L35.5268 29.5397C35.6032 29.5906 35.6542 29.6416 35.7051 29.667C36.0873 29.9728 36.5458 30.1256 37.1318 30.0747C37.6413 30.0492 38.0999 29.8454 38.482 29.4887C38.8641 29.2085 39.0425 28.8009 38.9915 28.3168Z" fill="#038249"/>
<path d="M28.3171 18.5596C28.2916 18.5086 28.1897 18.1774 28.1642 18.152C28.0623 17.9991 27.935 17.7698 27.9095 17.566C27.8076 18.2029 27.3235 18.8908 26.4828 19.5277C25.3619 20.3429 23.4003 20.6486 20.5979 20.4448L19.7317 20.3939C19.7317 20.3939 19.4515 20.4448 19.3496 20.8015C19.2986 21.1072 19.426 21.3874 19.6298 21.4893C19.9355 21.5403 20.1903 21.5912 20.3941 21.5912C20.5724 22.1262 20.4705 23.3491 20.0629 25.2597C19.8846 26.1259 19.4515 26.9921 18.8146 27.8583C19.8591 27.2978 20.5724 26.2023 20.9801 24.5464C21.2348 23.4 21.3112 22.4574 21.2093 21.6676C21.4641 21.6931 21.6934 21.6931 21.8972 21.7186C21.9736 22.1772 21.9991 22.865 21.9991 23.8331C21.9991 25.0305 21.515 26.5081 20.547 28.3168C21.9736 27.3742 22.7379 25.6673 22.7888 23.2471C22.7888 22.6357 22.7634 22.2026 22.7379 21.9988L22.6869 21.7186H23.4512C23.5276 22.2281 23.5531 22.9414 23.5531 23.8331C23.5531 25.54 23.0436 27.0176 22.05 28.3168C22.3048 28.1895 22.6105 27.9602 22.9417 27.6799C23.9607 26.8138 24.5212 25.1578 24.5721 22.7886C24.5721 22.4319 24.5467 22.0498 24.4702 21.6167C24.725 21.5912 24.9543 21.5403 25.1581 21.5148C25.2345 21.6931 25.2855 22.1262 25.3619 22.7631C25.4893 25.0814 24.9798 26.8647 23.7824 28.1385C24.3683 27.8328 24.8269 27.3997 25.1836 26.9157C25.9224 25.8712 26.2536 24.3681 26.2536 22.4064C26.2536 22.2791 26.2026 21.8714 26.1262 21.2091C26.4319 21.1072 26.7121 20.9543 26.9414 20.8015C27.0433 21.3619 27.0688 21.9733 27.0688 22.6102C27.0688 24.2917 26.6612 25.8457 25.8205 27.2723C26.4574 26.7373 26.9669 26.0495 27.349 25.2343C27.6802 24.4955 27.8585 23.3745 27.8585 21.9224C27.8585 21.6676 27.7821 21.0817 27.6292 20.1646C28.0369 19.7315 28.2661 19.2984 28.3171 18.8653C28.2916 18.9163 28.3426 18.6615 28.3171 18.5596Z" fill="#038249"/>
<path d="M24.0881 48.8249C23.7569 48.0097 23.2474 46.7359 22.6105 45.0545C21.3113 41.7681 20.3432 36.8003 19.7827 30.6606L19.0439 30.5587C19.2987 35.9596 20.2413 40.9274 21.8717 45.029C22.5341 46.7359 23.0946 48.0097 23.5531 48.9013C24.2155 50.2006 24.7505 50.9903 25.1836 51.2196C24.776 50.4299 24.4193 49.6401 24.0881 48.8249Z" fill="#BF3718"/>
<path d="M22.9417 39.0676C22.9417 36.2143 22.7633 33.2082 22.4576 30.6351C21.9226 30.6861 21.4386 30.6097 21.4386 30.6097C21.7188 33.7687 22.2284 36.8258 22.9417 39.0676Z" fill="#BF3718"/>
<path d="M24.2919 30.4313C24.3429 35.7048 24.6231 39.5772 25.1071 41.5388C25.6676 43.8826 26.2535 45.513 26.865 46.3792C25.5402 41.0038 24.9033 35.4501 24.9288 30.253C24.674 30.3294 24.4957 30.3549 24.2919 30.4313Z" fill="#BF3718"/>
<path d="M32.4951 14.2796C31.9092 14.2796 31.2978 14.4834 30.6863 14.8656C30.1004 15.2477 29.5399 15.7063 29.0559 16.2413V16.2158C28.8521 16.5215 28.4445 16.9801 28.3171 17.1839C28.2152 17.3367 27.8585 17.9227 27.7311 18.1774C28.0369 18.3558 28.2916 18.9162 28.2916 18.8908C28.6228 19.3239 28.8011 20.2665 28.8266 21.7441C28.8011 23.2981 28.5718 24.5974 28.1388 25.6419C27.6547 26.7628 27.0688 27.6545 26.3554 28.3168C25.744 28.8773 24.3683 29.2085 22.2029 29.3359H21.9227C21.4386 29.3359 20.7762 29.2849 19.961 29.1575C18.5344 28.9537 17.6172 28.6735 17.286 28.3168C17.1077 28.113 17.0822 27.9092 17.2096 27.7054C17.9484 26.508 18.5344 25.2343 18.9929 23.8586C19.2732 22.9669 19.5024 22.1772 19.6553 21.4893C19.7317 20.9798 19.7572 20.3938 19.7572 20.3938C19.8082 19.3493 19.8591 18.9417 19.8591 17.4132C19.8591 17.3367 19.7827 16.7253 19.6553 16.4706C19.4515 16.1394 18.9929 15.9101 18.7636 15.8082C18.407 15.6553 17.8975 15.5534 17.2606 15.528C16.6492 15.5025 15.8339 15.6299 14.8149 15.9356C12.5221 16.5979 11.3757 18.5086 11.3757 21.7186C11.3757 23.6293 11.8342 25.9985 12.7768 28.8009L12.9806 29.4123C13.0571 29.7435 13.0571 30.1256 12.8787 30.5332L12.7513 30.737L12.624 30.9154C11.8597 31.6542 10.3566 32.5713 8.64974 33.3356C7.35047 33.9215 5.77097 34.4565 3.86028 34.9915C2.7903 35.2972 2.71387 35.4755 3.65648 35.501C7.70713 35.501 11.3757 33.947 14.6875 30.8644C14.6875 30.8644 15.0697 30.4568 15.3499 30.202C15.6301 29.9218 15.8849 29.6416 16.1651 29.3359C16.1906 29.3104 16.2415 29.2594 16.267 29.2594L16.4453 29.234C16.5727 29.2849 16.7256 29.4378 16.9294 29.718C17.0058 29.8199 17.1332 30.1001 17.2096 30.3294L17.286 30.5332C17.388 31.0682 17.4389 31.9089 17.4389 32.7241C17.4644 37.1824 18.7127 41.9464 21.1329 46.9906C21.9736 48.6211 22.9162 49.9203 23.9607 50.8884C23.4767 50.0987 22.5341 47.9842 21.1074 44.5195C19.6043 40.9528 18.8146 37.2843 18.7382 33.5139C18.7382 32.4694 18.6363 31.5268 18.4579 30.6606C19.5789 31.0173 21.1584 31.0427 22.1265 31.0173C22.585 30.9918 24.0117 30.9918 25.2855 30.4313C25.1071 36.3672 26.0243 42.4305 28.0114 48.6211C26.4828 40.265 25.8714 34.1253 26.1516 30.1766C26.1516 30.1766 26.4828 29.8963 26.6612 29.718L26.7121 29.6925C27.0942 29.3613 27.4254 28.9282 27.6547 28.5971L28.1388 27.9092C29.9985 27.1959 31.2468 26.1769 31.8582 24.8521C33.4123 21.6167 34.1765 18.8398 34.1765 16.5725C34.1511 15.0439 33.5906 14.2796 32.4951 14.2796ZM16.5473 26.4571C15.8849 27.8073 15.0442 28.9282 13.9742 29.769C14.2035 29.4632 14.0761 28.648 13.6175 27.2978C13.159 25.9476 12.9297 25.005 12.9297 24.5209C13.7194 25.005 14.3309 25.8202 14.8149 26.9157C15.0442 25.3362 14.3309 24.1643 12.7259 23.4509C12.6494 22.5848 12.624 22.0498 12.624 21.795C12.6494 21.0307 12.7004 20.5467 12.8278 20.3684C14.8404 22.2536 15.8594 23.8076 15.8594 25.0304C15.9613 25.0304 16.0377 24.7757 16.1142 24.2916C16.3689 22.7121 15.3754 21.1326 13.0825 19.5022C13.3373 18.5596 13.694 17.9736 14.127 17.6934C15.197 18.6105 16.0377 19.655 16.6746 20.8269C16.9803 21.4384 17.2351 22.1007 17.3625 22.814L17.388 21.0053C17.4134 19.9608 16.5982 18.687 14.9932 17.1584C15.3244 16.8782 15.8594 16.6999 16.6237 16.5979C17.2606 16.5215 17.9739 16.6489 18.7382 16.9546C18.6872 20.4703 17.9739 23.6293 16.5473 26.4571ZM31.1959 24.0114C30.7373 25.2852 29.8202 26.2533 28.4445 26.8902C29.1833 25.3107 29.7947 24.1388 29.8202 21.3364C29.8202 20.5467 29.438 18.7889 29.1578 18.101C30.5844 16.4451 31.5525 15.5789 32.062 15.528C32.5716 15.477 32.8518 15.6808 32.8518 16.1394C32.8518 18.6105 32.3168 21.2091 31.1959 24.0114Z" fill="#2A3B92"/>
<path d="M18.7127 14.458C18.7382 14.8401 18.7382 15.2987 18.7382 15.8337C18.7127 15.8337 18.6617 16.9801 18.6872 16.9801C18.6872 18.1265 18.6108 19.2474 18.4579 20.3174C18.891 20.3684 19.5279 20.4193 19.7572 20.4193C19.9101 19.4003 19.961 18.0501 19.9355 16.3687C19.9101 15.0184 19.8591 14.0249 19.7317 13.337C19.6808 13.0313 19.6553 12.7001 19.7063 12.4199C19.7572 12.0632 19.961 11.8849 20.3177 11.8849H20.4451C22.1774 11.8849 23.5786 12.1142 24.674 12.5728C26.814 13.4644 27.884 15.0949 27.884 17.4387C27.884 17.7189 27.8076 17.9736 27.6547 18.2539C27.8331 18.152 28.368 17.6934 28.5718 17.4387C28.903 17.0565 29.0304 16.547 29.0304 16.2413C29.0049 14.3306 27.9859 12.853 26.0243 11.8085C26.5593 11.783 27.0178 11.7066 27.4 11.5792C29.5145 10.8404 31.6544 9.00615 33.8453 6C30.8647 8.34378 28.6738 9.49019 27.2726 9.49019C26.0497 9.49019 24.8014 8.92972 23.5786 7.80879C22.5086 6.78975 21.2603 6.28024 19.8336 6.28024C17.5408 6.28024 16.3944 7.19736 16.3944 9.03162C16.3689 9.99971 16.5727 10.713 17.0313 11.1206C17.872 12.0633 17.5153 12.5473 15.9868 12.5728C15.248 12.5728 14.5092 12.4963 13.7704 12.318C14.7385 13.337 16.2161 13.8466 18.1522 13.8466C18.5089 13.8975 18.6872 14.0758 18.7127 14.458ZM20.0884 7.88521C21.1584 7.88521 21.9991 8.19092 22.6105 8.82782C23.2219 9.46472 24.0117 9.94875 24.9543 10.3054C23.171 10.5856 21.3622 10.6111 19.5025 10.3818C18.8401 10.2799 18.4834 9.8978 18.4834 9.23543C18.5089 8.34377 19.0439 7.88521 20.0884 7.88521Z" fill="#BF3718"/>
</svg>
