<svg width="396" height="139" viewBox="0 0 396 139" fill="none" xmlns="http://www.w3.org/2000/svg">
<path fill-rule="evenodd" clip-rule="evenodd" d="M217.946 4.05283C217.709 4.28983 218.271 4.25999 218.301 4.2307C218.538 3.99371 217.975 4.02354 217.946 4.05283ZM59.924 6.53832C61.3723 6.33275 61.6498 5.78314 62.0546 4.40805C65.8277 4.70563 69.4766 5.2571 73.1635 5.81432C74.4254 6.00503 75.6917 6.19642 76.969 6.37852C78.0041 6.52601 79.0106 6.58531 80.0089 6.64413C81.5267 6.73356 83.0257 6.82188 84.578 7.21735C85.2405 7.38635 86.0399 7.31339 86.846 7.23982C87.9985 7.13464 89.1647 7.0282 89.9642 7.62582C90.9926 8.39415 91.1454 10.4102 91.2603 11.9262C91.2886 12.2995 91.3145 12.6426 91.3508 12.9291C93.4777 12.9115 95.2413 12.6943 97.21 11.864H95.0794V10.7989C97.0992 10.6507 98.9505 9.9883 100.774 9.33577C103.874 8.22656 106.894 7.14594 110.526 8.66859V6.53832C113.967 6.53861 117.376 6.7935 120.785 7.04843C123.574 7.25695 126.363 7.46549 129.169 7.53474C130.058 7.55666 130.918 7.45225 131.758 7.35032C133.632 7.12285 135.405 6.90769 137.159 8.13602C137.159 7.31447 137.165 7.30649 137.499 6.82241C137.554 6.74258 137.618 6.64982 137.692 6.53832C139.229 6.91697 139.908 7.13213 140.355 8.66859C139.181 8.71865 138.281 8.85818 137.159 9.20115C138.46 9.2592 139.622 9.42909 140.888 9.73372C142.484 7.20235 145.143 7.36391 147.817 7.52636C147.993 7.53706 148.169 7.54775 148.345 7.55769C150.674 7.6895 153.011 7.65042 155.348 7.61135C157.099 7.58207 158.85 7.55279 160.596 7.59546C165.257 7.70963 169.831 8.73051 174.428 9.75638C178.129 10.5824 181.844 11.4116 185.631 11.7734C194.749 12.6448 203.492 11.612 212.404 10.5591C214.827 10.2728 217.262 9.98507 219.721 9.73372V10.7989C222.249 9.72804 224.62 9.73057 227.293 9.73342C227.431 9.73357 227.571 9.73372 227.711 9.73372C228.393 11.4575 229.644 11.338 230.773 11.2302C231.808 11.1313 232.741 11.0422 233.038 12.3966C236.231 10.7355 243.297 9.72307 246.354 11.864C249.539 9.43925 254.473 10.3459 258.796 11.1401C260.252 11.4077 261.639 11.6626 262.866 11.7729C265.17 11.9802 267.445 11.5001 269.708 11.0226C270.997 10.7506 272.283 10.4794 273.567 10.3366C274.975 10.1801 276.378 10.1176 277.774 10.0554C280.831 9.91931 283.856 9.78458 286.836 8.66859C286.308 8.66859 286.139 8.7144 286.043 8.65066C285.96 8.59537 285.932 8.45763 285.771 8.13602C287.127 8.13602 288.487 8.15213 289.849 8.16825C292.753 8.20266 295.663 8.23712 298.555 8.11528C299.402 8.07957 300.252 8.01485 301.103 7.95008C303.64 7.75697 306.184 7.56334 308.675 8.13602C309.455 7.08793 310.063 6.88342 311.338 6.53832C313.962 8.52544 318.696 7.95623 322.813 7.46115C324.475 7.26136 326.036 7.07364 327.318 7.07089V8.66859L342.765 7.07089C345.195 11.0545 350.843 11.3314 355.016 11.3314L354.484 12.9291C356.858 13.0889 359.433 14.1886 360.875 16.1245C361.997 15.6884 362.659 15.3321 363.539 14.5268C365.075 14.9055 365.755 15.1206 366.202 16.6571C367.423 16.723 368.526 17.0813 369.628 17.4393C370.591 17.7523 371.554 18.0651 372.594 18.1818C373.895 18.3279 375.212 18.1413 376.52 17.956C377.167 17.8643 377.813 17.7728 378.453 17.7222C378.388 19.7241 377.7 20.4695 376.833 21.4083C376.39 21.8883 375.9 22.4189 375.423 23.1938C375.128 23.6736 374.95 24.1993 374.773 24.7244C374.55 25.381 374.329 26.0367 373.878 26.6007C372.148 28.7686 368.311 30.6522 365.325 32.1184C364.671 32.4391 364.059 32.7398 363.518 33.0192C361.025 33.9979 359.639 34.3105 358.472 34.5735C356.782 34.9545 355.553 35.2317 352.087 37.2795C353.375 36.9137 354.045 36.7885 355.283 37.2795C354.323 37.5788 353.62 37.7184 352.619 37.8121C354.609 39.4812 356.273 38.8229 358.478 37.8121C357.584 40.5728 353.091 41.5487 349.449 42.3395C348.222 42.6062 347.091 42.8519 346.227 43.1378C347.715 43.7076 349.239 44.05 350.77 44.3937C351.92 44.652 353.074 44.9111 354.217 45.2681L353.152 47.9309C353.983 48.2483 354.549 48.5109 355.283 48.996C353.442 49.3784 352.657 49.8471 352.087 51.6589L355.815 50.5938C355.478 51.2094 355.072 51.7367 354.672 52.2564C354.065 53.0455 353.471 53.8172 353.152 54.8543L355.815 54.3217C354.946 55.4056 354.049 55.6038 352.708 55.8997L352.619 55.9194L353.152 58.5823C354.052 58.7013 354.905 58.8803 355.751 59.0578C357.153 59.3521 358.536 59.6421 360.076 59.6474C359.567 58.8395 359.338 58.4017 359.011 57.5171L361.142 56.9846C361.585 58.4781 362.376 59.274 363.392 60.2951C363.526 60.4296 363.664 60.5681 363.805 60.7125C362.3 60.9144 360.964 61.2435 359.544 61.7777C361.192 61.8187 362.734 61.9311 364.338 62.3103C362.858 65.2612 360.741 66.9223 357.413 67.1034L360.076 69.7663L359.976 69.7587C357.232 69.5509 354.263 69.3261 355.815 72.9617L354.217 74.5594C354.292 74.561 354.366 74.5625 354.44 74.564C356.256 74.6006 357.85 74.6327 359.011 76.1571C359.486 76.0197 360.125 75.9738 360.782 75.9265C362.25 75.8211 363.805 75.7093 363.805 74.5594C364.819 75.035 364.869 75.1306 365.387 76.127L365.403 76.1571C364.995 76.3113 364.591 76.4411 364.197 76.5677C362.772 77.0256 361.478 77.4415 360.609 78.82C362.306 78.1016 363.651 77.5797 365.403 78.2874C364.228 78.3375 363.329 78.477 362.207 78.82C362.592 79.0915 362.936 79.4503 363.282 79.8111C363.799 80.3503 364.32 80.8938 364.99 81.1564C365.799 81.4735 366.582 81.4617 367.356 81.45C368.306 81.4357 369.242 81.4215 370.197 82.0154H367.001C367.923 82.9417 368.981 83.0455 370.091 83.1543C370.823 83.226 371.576 83.2999 372.328 83.6131C371.223 83.8182 370.125 83.9742 369.033 84.1293C366.547 84.4823 364.095 84.8306 361.674 85.7434C362.105 85.7253 362.531 85.6786 362.948 85.6329C364.541 85.4585 365.994 85.2995 367.001 86.8085H364.87C367.374 88.7565 371.44 87.9633 374.89 87.2903C375.879 87.0974 376.818 86.9143 377.654 86.8085C377.192 88.9747 373.242 89.4441 369.881 89.8434C368.289 90.0325 366.83 90.206 365.936 90.5365C366.464 90.5365 366.633 90.4907 366.729 90.5544C366.812 90.6097 366.84 90.7474 367.001 91.069C364.865 90.9631 362.744 90.9306 360.609 91.069V92.1342C361.267 92.1473 361.891 92.0739 362.491 92.0032C363.884 91.839 365.156 91.6891 366.468 92.6667C368.146 90.8587 369.547 90.4129 371.795 91.6016C369.796 91.82 368.563 92.4841 367.001 93.7319C367.369 93.7031 367.726 93.6636 368.069 93.6255C370.16 93.3939 371.75 93.2177 372.328 95.8621L369.664 96.3947L370.197 94.2644C369.197 94.3582 368.493 94.4977 367.534 94.797C367.644 94.8184 367.743 94.8367 367.832 94.8532C368.646 95.0036 368.661 95.0064 369.132 95.8621C367.684 95.5511 366.607 95.1261 365.403 94.2644L366.468 93.7319H363.805C364.741 94.8034 365.358 95.639 365.936 96.9273C364.186 97.2479 362.863 97.4007 361.142 96.9273V95.8621L363.805 94.797C363.731 94.6855 363.667 94.5927 363.612 94.5129C363.278 94.0288 363.272 94.0208 363.272 93.1993L361.674 94.2644C360.261 92.6955 358.978 91.9078 356.88 91.6016C357.062 92.6763 357.053 93.1823 356.88 94.2644C358.54 93.4209 359.533 93.1327 360.609 94.797C358.853 94.8769 357.436 95.1778 355.815 95.8621C356.528 96.3349 356.526 96.3463 356.419 96.9956C356.397 97.123 356.372 97.275 356.348 97.4598C357.432 96.8069 357.587 96.5529 357.946 95.3296H360.076V97.9924C358.415 98.3322 357.523 98.9111 356.348 100.123C355.102 98.8668 354.694 99.2551 354.017 99.8992C353.663 100.236 353.235 100.643 352.575 100.922C351.745 101.271 350.716 101.399 349.73 101.522C349.254 101.581 348.787 101.639 348.358 101.72C347.656 100.687 347.495 100.67 346.227 100.655C346.302 100.767 346.366 100.86 346.421 100.939C346.755 101.423 346.76 101.431 346.76 102.253L343.031 102.786C343.502 101.93 343.517 101.927 344.331 101.777C344.42 101.76 344.519 101.742 344.629 101.72L344.583 101.624C344.136 100.702 344.112 100.652 344.097 99.5901C341.307 99.592 338.568 99.991 335.83 100.39C333.096 100.788 330.364 101.186 327.584 101.188L328.65 103.318C325.122 101.929 321.383 102.699 317.634 103.471C315.617 103.886 313.597 104.303 311.605 104.383V103.318L313.735 102.786L310.539 103.318C310.614 103.43 310.678 103.522 310.733 103.602C311.066 104.086 311.072 104.094 311.072 104.916L308.409 105.448V104.383C306.382 105.359 304.265 105.896 302.14 106.435C300.313 106.899 298.48 107.364 296.69 108.111C296.987 108.111 297.282 108.106 297.574 108.101C299.368 108.071 301.053 108.043 302.549 109.176C299.924 109.724 296.655 110.699 294.56 112.372C292.674 111.929 291.349 111.711 289.766 112.904L288.168 112.372C287.125 113.832 286.149 113.755 284.439 113.437V112.372C285.461 112.067 286.557 111.935 287.651 111.804C289.805 111.545 291.95 111.287 293.494 109.709H289.99C290.003 109.714 290.015 109.719 290.026 109.727C290.109 109.782 290.137 109.92 290.298 110.241C289.751 110.196 289.19 110.186 288.628 110.176C287.373 110.153 286.111 110.13 284.972 109.709C286.011 109.437 286.28 109.318 287.102 108.644C282.65 109.997 277.398 111.047 272.721 110.727C271.287 110.628 269.99 110.403 268.741 110.186C266.058 109.719 263.596 109.292 260.469 110.241H265.796C263.717 113.067 261.373 112.175 258.948 111.252C258.027 110.902 257.094 110.547 256.16 110.39C254.063 110.037 251.624 110.27 249.241 110.498C247.784 110.637 246.347 110.774 245.022 110.774C237.413 110.774 229.766 110.999 222.138 111.223C217.682 111.354 213.233 111.485 208.802 111.57C208.21 111.581 207.636 111.7 207.062 111.818C206.406 111.953 205.751 112.088 205.073 112.063C201.538 111.931 198.026 111.902 194.489 111.873C193.227 111.863 191.962 111.852 190.691 111.837C189.924 111.828 189.175 111.759 188.433 111.69C186.87 111.546 185.343 111.406 183.767 111.839C185.626 111.919 187.41 112.095 189.093 112.904C181.332 112.903 173.392 112.449 165.656 111.839V112.904C166.857 112.929 167.759 112.971 168.852 113.437L160.089 112.95C160.151 113.019 160.191 113.16 160.33 113.437C159.029 113.379 157.867 113.209 156.601 112.904C155.499 114.165 153.434 114.183 151.424 114.201C150.216 114.211 149.027 114.222 148.079 114.502C156.421 115.16 164.861 114.939 173.254 114.72C177.487 114.609 181.708 114.499 185.897 114.502C185.783 115.495 185.4 116.613 184.795 117.137C183.36 116.069 181.852 116.082 180.138 116.096C179.93 116.098 179.719 116.1 179.506 116.1C178.741 116.099 177.962 116.077 177.176 116.055C174.548 115.98 171.85 115.904 169.385 116.632C170.158 116.766 170.318 116.8 170.983 117.165C168.675 117.246 166.373 117.472 164.072 117.697C161.937 117.907 159.803 118.116 157.667 118.209C155.404 118.308 153.107 118.32 150.804 118.332C146.858 118.352 142.894 118.373 139.044 118.831C136.547 119.129 134.031 119.744 131.509 120.36C129.399 120.875 127.284 121.392 125.174 121.724C123.425 121.999 121.638 121.962 119.854 121.925C117.508 121.876 115.166 121.828 112.923 122.49C113.701 122.676 114.506 122.761 115.308 122.846C116.506 122.973 117.697 123.1 118.783 123.556C111.918 123.85 105.056 124.365 98.1957 124.88C91.386 125.391 84.5773 125.902 77.768 126.198C73.5639 126.38 69.3616 126.212 65.1547 126.044C59.7834 125.829 54.4045 125.614 49.0045 126.128C46.5251 126.364 44.048 126.331 41.5741 126.299C38.1852 126.254 34.8022 126.21 31.4268 126.856C31.0921 126.92 30.7621 126.977 30.437 127.033C28.649 127.343 27.0103 127.627 25.5676 128.881C27.2998 128.957 28.8242 129.129 30.3615 129.946H20.7736V131.012C22.8467 131.029 24.7808 131.092 26.6329 132.077C26.1103 132.07 25.5348 132.031 24.9343 131.99C22.4102 131.819 19.4438 131.618 18.1104 133.674C19.3765 133.37 20.5382 133.2 21.839 133.142V134.207C21.6096 134.217 21.3758 134.227 21.1382 134.237C17.9595 134.372 14.097 134.536 11.1858 135.272C12.2256 135.544 12.4945 135.662 13.3164 136.337C12.0157 136.279 10.854 136.109 9.58783 135.805L10.1205 134.207H5.85923C5.85976 130.122 6.01477 128.846 10.1205 127.816C9.17875 127.098 8.53157 126.686 7.4572 126.218C7.70489 125.163 7.83166 124.937 8.52252 124.088C6.6694 123.691 6.86968 122.717 7.98986 121.425L6.39189 120.893C6.54042 120.432 6.72584 119.959 6.9144 119.479C7.41352 118.206 7.93464 116.877 7.8519 115.567C7.71193 113.357 6.93598 111.227 6.16307 109.106C5.40657 107.029 4.65298 104.961 4.50149 102.833C4.39794 101.38 4.62561 99.922 4.85245 98.4697C5.1857 96.3362 5.51715 94.2141 4.79392 92.1342L2.66329 92.6667L1.59797 89.4713C3.09991 89.1044 3.48502 88.6858 4.26126 87.3411C3.8064 87.2313 3.34749 87.1426 2.88996 87.0542C1.90184 86.8632 0.920212 86.6734 0 86.2759C2.04601 84.5165 4.15836 83.5428 6.36017 82.5278C7.41469 82.0417 8.48973 81.5461 9.58783 80.9503L7.4572 81.4828C8.2562 80.5682 9.56203 80.3074 10.8791 80.0442C11.7316 79.8739 12.5889 79.7027 13.3164 79.3526C12.543 79.2189 12.3832 79.1848 11.7185 78.82C15.9265 78.9132 21.8379 78.8232 23.9696 74.5594C25.4925 75.19 26.1173 75.6523 26.6329 77.2223C28.8929 76.1657 31.0587 75.3114 33.5574 75.092V76.1571C31.8987 76.4144 30.7263 76.8751 29.2962 77.7549C31.5897 78.2819 33.7487 77.9616 35.9883 77.6293C36.5912 77.5398 37.1999 77.4495 37.8187 77.3746C38.1078 77.3396 38.3951 77.3049 38.6808 77.2705C42.2188 76.844 45.5161 76.4465 49.0045 75.6246C49.7097 76.7275 49.8285 76.7638 51.1351 76.6897C50.6066 76.6897 50.4379 76.7355 50.3421 76.6718C50.2589 76.6165 50.2306 76.4787 50.0698 76.1571C52.2048 75.5994 53.833 75.9124 55.57 76.2463C56.6612 76.4561 57.7953 76.6741 59.125 76.6897C58.334 75.648 57.4508 74.8789 56.4617 74.0268L58.5923 72.9617L58.5774 72.9595C57.4588 72.7978 57.1585 72.7544 56.4617 71.8965C57.5861 71.9945 58.5417 72.0233 59.6576 71.8965L58.0597 71.364C58.1971 71.0894 58.2621 70.9549 58.3573 70.8469C58.4827 70.7047 58.6604 70.6086 59.125 70.2988C57.8242 70.2408 56.6625 70.0709 55.3964 69.7663L54.3311 71.8965C55.1045 72.0302 55.2643 72.0643 55.929 72.4291C54.167 72.4291 52.3356 72.2944 50.4859 72.1584C46.7301 71.8821 42.8985 71.6002 39.4167 72.4291C38.6094 71.5034 37.6721 70.9045 36.7089 70.2892C36.1931 69.9596 35.6699 69.6254 35.1554 69.2337C35.3985 69.2625 35.6718 69.2836 35.9597 69.3059C37.3999 69.4172 39.2053 69.5567 39.4167 70.8314C41.5083 69.617 43.3659 69.8598 45.3421 70.1182C46.4987 70.2695 47.6959 70.426 49.0045 70.2988C50.1995 70.1827 51.3374 69.9991 52.4671 69.8168C54.2846 69.5235 56.0809 69.2337 58.0597 69.2337C58.2861 69.2337 58.5558 69.2412 58.8532 69.2495C60.7949 69.3035 63.9189 69.3905 63.9189 67.636H66.0495L65.5169 69.2337C66.2929 68.6462 66.5273 68.4119 67.1148 67.636L69.7781 68.1685C68.195 70.7486 65.6654 70.3559 63.0636 69.952C62.6392 69.8861 62.2128 69.8199 61.7883 69.7663C61.9044 70.6642 61.9076 70.9997 61.7883 71.8965L65.5169 71.364L64.9842 72.4291H66.5822C66.7912 71.1499 68.3183 71.0145 69.6484 70.8966C69.8776 70.8763 70.101 70.8564 70.3108 70.8314C69.614 71.6892 69.3137 71.7327 68.1953 71.8943L68.1802 71.8965V72.9617H70.8434V71.364C72.688 70.8362 73.6809 70.0964 74.0394 68.1685C74.8611 68.1685 74.869 68.163 75.3532 67.8293C75.433 67.7743 75.5258 67.7103 75.6374 67.636C74.4583 67.3038 73.2798 66.739 72.1053 66.1762C70.6078 65.4586 69.1169 64.7441 67.6395 64.5188C66.3014 64.3148 64.9509 64.3184 63.6055 64.322C61.3604 64.3279 59.1296 64.3338 56.9943 63.3754C59.5335 63.3733 61.2796 63.2928 63.3862 61.7777C61.0234 61.7777 58.7889 61.677 56.4617 61.2451C57.9108 58.6173 60.4254 59.0905 63.0134 59.5776C63.1375 59.6009 63.2618 59.6243 63.3862 59.6474C63.481 58.2643 63.652 57.5773 64.4516 56.452L62.8536 55.9194L63.3862 53.7892C61.5725 54.0192 59.8009 54.3036 58.0597 54.8543C59.2597 54.8793 60.1626 54.9214 61.2556 55.3869H55.929C56.2811 54.6434 56.4425 54.4208 56.9943 53.7892C55.5284 53.7903 54.0618 54.088 52.6043 54.3838C50.6702 54.7763 48.7523 55.1656 46.8739 54.8543L48.4718 52.724C47.2739 53.3386 46.9559 53.6566 46.3412 54.8543C43.4073 54.8623 40.6886 55.3629 37.8187 55.9194C36.8461 55.008 35.8223 54.7026 34.7285 54.3762C34.1791 54.2123 33.6119 54.0431 33.0248 53.7892C33.2298 53.7766 33.4362 53.7652 33.6435 53.7538C35.1839 53.669 36.7701 53.5816 38.1974 52.9808C39.1835 52.5653 40.0238 51.9648 40.8581 51.3686C41.8953 50.6274 42.9232 49.8928 44.2106 49.5286V47.3983L49.5371 47.9309L48.4718 45.8006L48.4562 45.8308C47.9377 46.8272 47.888 46.9227 46.8739 47.3983C47.5418 46.0227 48.3701 45.1946 49.5371 44.2029H46.8739C46.8853 44.0046 46.8946 43.8083 46.9038 43.6137C46.955 42.5294 47.0037 41.5005 47.4065 40.475C47.5517 40.9103 47.6003 41.104 47.7214 41.2252C47.8426 41.3464 48.0364 41.395 48.4718 41.5401L47.9392 39.9424L50.0698 40.475L49.5371 38.8773C52.1855 37.1762 53.979 37.0409 56.9943 37.8121C57.2101 35.7681 56.5682 34.663 55.3964 33.019C51.509 31.7236 50.1949 31.3285 47.877 30.6317C46.86 30.326 45.6498 29.9621 43.9442 29.4387C41.0771 30.2821 39.2023 29.7778 36.7637 29.1218C36.5011 29.0512 36.232 28.9788 35.9544 28.9061C38.4294 24.4371 42.8634 24.9893 47.2371 25.534C49.4362 25.8079 51.6201 26.0799 53.5321 25.7107C54.8989 27.8117 56.5682 27.0203 58.326 25.7107C56.4223 24.6467 54.5063 23.8148 52.4668 23.0479C51.403 24.265 49.7537 24.2012 48.1625 24.1397C47.8168 24.1263 47.4738 24.113 47.1402 24.113C47.3959 23.0692 47.6398 22.3518 48.2055 21.4502L49.2708 23.0479C48.7941 21.2707 48.3179 19.6725 47.1402 18.2548L47.6728 20.9176C45.2594 19.3535 46.2139 16.8382 48.7382 16.1245C48.8543 17.023 48.8575 17.3579 48.7382 18.2548C49.9233 17.7526 51.1189 17.4874 52.3241 17.22C53.0782 17.0527 53.836 16.8846 54.5974 16.6571C53.6999 16.5644 53.2689 16.4883 52.4668 16.1245C58.2077 16.0068 62.6687 17.3947 67.9138 19.8525L67.3812 15.592C65.2511 16.6772 63.5856 15.9115 61.7679 15.0758C60.8615 14.6591 59.9173 14.225 58.8586 13.9943C58.9621 13.5804 58.8728 13.2501 58.7701 12.8703C58.6115 12.2839 58.4209 11.5793 58.8586 10.2663L56.1954 11.864L56.728 8.13602C58.3292 8.01832 59.0531 7.8937 59.924 6.53832ZM184.779 117.151C184.784 117.147 184.79 117.142 184.795 117.137C184.808 117.146 184.82 117.156 184.832 117.165L184.779 117.151ZM182.702 116.632C183.542 117.591 184.245 117.602 184.779 117.151L182.702 116.632ZM148.878 6.53832C149.543 6.90313 149.702 6.93721 150.476 7.07089C149.811 6.70608 149.651 6.67199 148.878 6.53832ZM196.574 7.59683C195.306 7.56362 194.49 7.54223 193.621 6.53832C194.794 6.78756 195.768 7.03733 196.817 7.60345C196.734 7.60104 196.653 7.59891 196.574 7.59683ZM53.5321 9.73372C53.9795 8.74261 54.4898 7.95814 55.13 7.07089H56.1954L55.6627 10.2663L53.5321 9.73372ZM372.86 21.8353V22.9004H373.926V21.8353H372.86ZM348.891 40.4751C349.889 40.1838 350.624 39.8839 351.554 39.4099C350.206 39.0318 349.681 39.3402 348.891 40.4751ZM354.278 67.8202L354.278 67.82L354.276 67.8143L354.276 67.8129C354.258 67.7588 354.239 67.7 354.217 67.636H355.283V68.7011L355.186 68.6692L355.1 68.6411L355.098 68.6405C354.789 68.5394 354.635 68.4888 354.532 68.3862C354.43 68.2837 354.379 68.1292 354.278 67.8202ZM12.7838 80.4176C12.6786 80.4585 12.5767 80.4976 12.4778 80.5356L12.7838 80.4176ZM12.4778 80.5356C11.5026 80.9096 10.812 81.1745 10.1205 82.0153L12.4778 80.5356ZM10.1205 82.0153C10.3429 81.9544 10.6077 81.9037 10.8842 81.8508L10.1205 82.0153ZM19.1757 81.4827V80.4176H20.241V81.4827H19.1757ZM21.3063 80.9502C22.5437 81.4412 23.2137 81.3161 24.5022 80.9502C23.3096 80.5183 22.5596 80.6685 21.3063 80.9502ZM349.423 70.8314H352.087C352.029 70.7162 351.988 70.6246 351.956 70.5519C351.898 70.4217 351.868 70.3522 351.814 70.3168C351.753 70.2762 351.663 70.28 351.469 70.2881C351.358 70.2928 351.214 70.2988 351.021 70.2988C351.981 69.9995 352.684 69.86 353.685 69.7663V68.7011C351.783 68.7864 350.404 69.1336 349.423 70.8314ZM75.9926 69.4111C75.7556 69.6481 76.3181 69.6182 76.3474 69.5889C76.5844 69.3519 76.0219 69.3818 75.9926 69.4111ZM352.442 74.2042C352.205 74.4412 352.767 74.4113 352.797 74.382C353.034 74.145 352.471 74.1749 352.442 74.2042ZM355.283 75.0919C354.161 75.4349 353.261 75.5745 352.087 75.6245C352.954 76.1246 355.953 76.7168 355.283 75.0919ZM22.3716 82.5479C21.2818 82.1479 20.9888 82.1985 20.241 83.0804L22.3716 82.5479ZM26.6329 77.7548C27.7227 78.1547 28.0157 78.1042 28.7635 77.2222L26.6329 77.7548ZM359.366 77.3996C359.129 77.6366 359.692 77.6067 359.721 77.5774C359.958 77.3405 359.396 77.3703 359.366 77.3996ZM356.348 77.7548C357.15 78.1185 357.581 78.1947 358.478 78.2874C357.676 77.9236 357.245 77.8475 356.348 77.7548ZM35.688 80.9502L34.6227 79.3525L41.5473 78.8199C40.8376 79.6511 40.0052 79.9055 39.0256 80.2049L39.0244 80.2052C38.8074 80.2715 38.5831 80.3401 38.3513 80.4176H42.6126L43.1453 82.5479C43.0224 82.5312 42.9021 82.5159 42.7845 82.501L42.7839 82.5009C41.5779 82.348 40.6707 82.233 40.482 80.9502C38.6677 81.1803 36.8966 81.4647 35.1554 82.0153C35.2655 82.0367 35.3644 82.055 35.4537 82.0715C36.2676 82.2219 36.283 82.2247 36.7534 83.0805C36.437 83.0691 36.0489 83.0859 35.6315 83.1041C34.0976 83.1707 32.1692 83.2546 31.9594 82.0153C30.33 83.1161 29.0767 83.8538 27.1655 83.0805H29.2962V82.0153C27.4542 82.1655 25.7465 82.5809 23.9696 83.0805C25.5143 81.168 30.1527 79.5064 32.4921 80.4176C31.6704 80.4176 31.6624 80.4231 31.1783 80.7569C31.0984 80.8119 31.0056 80.8759 30.8941 80.9502C31.9339 81.2223 32.2029 81.3406 33.0248 82.0153C33.9974 81.3038 34.4912 81.1153 35.688 80.9502ZM42.6126 78.8199C43.0259 79.9554 43.2145 80.2957 44.2106 80.9502C43.7972 79.8148 43.6087 79.4744 42.6126 78.8199ZM44.2106 78.8199C44.9829 79.6763 45.303 79.9191 46.3412 80.4176C46.0333 78.9808 45.6695 78.9323 44.2106 78.8199ZM7.4572 83.0805V84.1456C9.69738 83.9502 11.9105 83.3919 14.1161 82.8355C15.2711 82.5441 16.424 82.2533 17.5777 82.0153C15.4453 81.1456 12.9033 81.7985 10.4904 82.4183C9.44008 82.6881 8.4142 82.9516 7.4572 83.0805ZM362.207 81.4828C362.872 81.8476 363.032 81.8816 363.805 82.0153C363.14 81.6505 362.98 81.6164 362.207 81.4828ZM38.174 82.7252C37.9369 82.9622 38.4994 82.9324 38.5287 82.9031C38.7657 82.6661 38.2033 82.6959 38.174 82.7252ZM364.693 83.2578C364.456 83.4948 365.018 83.465 365.048 83.4357C365.285 83.1987 364.722 83.2285 364.693 83.2578ZM25.3902 83.7904C25.1532 84.0274 25.7156 83.9975 25.7449 83.9682C25.982 83.7312 25.4195 83.7611 25.3902 83.7904ZM42.6126 84.1456C43.2774 84.5104 43.4377 84.5445 44.2106 84.6782C43.5458 84.3133 43.386 84.2793 42.6126 84.1456ZM35.688 85.2107C36.9478 85.6626 38.3309 85.5105 39.7056 85.3593L39.7057 85.3593H39.7058C40.3253 85.2911 40.9432 85.2231 41.5473 85.2107C39.9813 84.56 38.4095 84.8019 36.7899 85.0513L36.7891 85.0514C36.4247 85.1075 36.0578 85.164 35.688 85.2107ZM31.2494 85.3881C31.0124 85.6251 31.5749 85.5952 31.6042 85.5659C31.8412 85.3289 31.2787 85.3588 31.2494 85.3881ZM39.9493 92.1341C38.6768 90.6514 36.2266 89.622 35.688 92.1341H39.9493ZM353.844 93.1688C353.794 93.1783 353.741 93.1883 353.685 93.1992C354.336 92.5628 354.441 92.4984 355.283 92.1341C354.812 92.9898 354.797 92.9926 353.983 93.1431C353.939 93.1512 353.893 93.1597 353.844 93.1688ZM350.489 92.6667C351.432 94.095 352.208 94.095 353.152 92.6667H350.489ZM365.226 92.844C364.989 93.081 365.551 93.0512 365.58 93.0219C365.817 92.7849 365.255 92.8147 365.226 92.844ZM342.049 95.519L342.05 95.519C343.096 95.1738 344.039 94.8625 345.162 95.3295C346.757 94.8811 348.314 94.4859 349.956 94.2644V93.1992C349.578 93.2291 349.177 93.2534 348.762 93.2785C345.97 93.4478 342.526 93.6566 340.901 95.8621C341.304 95.7649 341.683 95.6399 342.049 95.519ZM148.002 94.7964C146.681 94.7867 145.569 94.7785 144.35 94.2644L144.427 94.2649C145.747 94.2746 146.86 94.2828 148.079 94.7969L148.002 94.7964ZM352.975 94.9743C352.737 95.2113 353.3 95.1814 353.329 95.1521C353.566 94.9152 353.004 94.945 352.975 94.9743ZM157.134 95.3295C157.936 95.6932 158.367 95.7694 159.265 95.8621C158.462 95.4983 158.031 95.4222 157.134 95.3295ZM166.189 95.8621C164.134 96.4234 162.097 96.6119 160.33 95.3295C160.702 95.3295 161.078 95.3211 161.455 95.3127L161.456 95.3127C163.072 95.2767 164.707 95.2402 166.189 95.8621ZM168.852 97.4597L157.134 96.3946C157.312 96.4898 157.486 96.5807 157.658 96.67C158.413 97.0639 159.11 97.4271 159.797 97.9923C156.804 96.9794 153.874 96.9272 150.742 96.9272C154.282 98.4164 158.552 98.7251 162.802 98.7163C162.601 98.938 163.142 98.9088 163.171 98.8801C163.257 98.7941 163.237 98.7433 163.176 98.7148C164.66 98.7054 166.138 98.6605 167.58 98.6167L167.58 98.6166H167.581H167.581H167.581H167.581H167.581H167.581H167.582H167.582C169.126 98.5697 170.628 98.524 172.048 98.5249C171.617 96.8313 169.195 94.7809 168.852 97.4597ZM173.114 95.862C174.085 96.9739 175.335 96.9546 176.724 96.9331L176.726 96.9331C176.939 96.9298 177.156 96.9265 177.375 96.9272C176.105 96.0812 174.91 95.9938 173.439 95.8861C173.353 95.8798 173.266 95.8735 173.178 95.8669L173.114 95.862ZM346.813 96.2252C346.85 96.4516 346.87 96.5749 346.822 96.6601C346.765 96.7621 346.61 96.8096 346.271 96.9138L346.227 96.9272C347.785 97.4855 349.548 97.1313 351.272 96.785C352.094 96.6199 352.907 96.4565 353.685 96.3946C352.24 95.8071 350.52 95.8396 348.851 95.871C348.136 95.8845 347.43 95.8978 346.76 95.862C346.778 96.0064 346.797 96.1255 346.813 96.2248L346.813 96.2252ZM182.645 98.2847C179.512 98.6375 176.23 99.0069 173.646 97.4597C174.868 97.4596 176.195 97.265 177.548 97.0665C180.685 96.6064 183.968 96.1251 186.43 97.9923C185.235 97.9931 183.953 98.1374 182.645 98.2847L182.645 98.2847ZM147.486 97.4765C145.87 97.5126 144.235 97.549 142.752 96.9272C143.125 96.9272 143.501 96.9188 143.878 96.9104C145.494 96.8743 147.129 96.8379 148.611 97.4597C148.239 97.4597 147.863 97.4681 147.486 97.4765ZM190.481 98.5207C189.033 98.493 188.361 98.4802 188.028 96.9272L190.691 97.4597V98.5249L190.588 98.5228L190.481 98.5207ZM341.706 97.4418C341.652 97.4063 341.622 97.3369 341.564 97.2068L341.564 97.2063C341.532 97.1337 341.491 97.0422 341.433 96.9272C342.803 97.1125 343.946 97.342 345.162 97.9923L340.901 99.0574C341.34 98.1946 341.544 98.0656 342.33 97.5667C342.384 97.5329 342.44 97.4973 342.499 97.4597C342.306 97.4597 342.162 97.4658 342.051 97.4704C341.857 97.4786 341.767 97.4824 341.706 97.4418ZM192.289 97.9923C193.595 98.5401 194.979 98.5377 196.376 98.5354H196.376C197.144 98.5341 197.916 98.5328 198.681 98.6229C199.163 98.6798 199.631 98.7805 200.083 98.8777C201.588 99.2016 202.916 99.4874 204.008 97.9923H192.289ZM352.975 97.6371C352.738 97.8741 353.3 97.8443 353.329 97.815C353.566 97.578 353.004 97.6078 352.975 97.6371ZM210.4 99.59C208.199 100.189 206.388 99.9745 205.073 97.9923C208.506 98.0018 211.926 98.2629 215.349 98.5242C218.84 98.7907 222.334 99.0575 225.847 99.0575C226.358 99.0575 226.948 99.0188 227.574 98.9778C229.825 98.8302 232.551 98.6515 233.837 100.123C230.982 99.5967 228.165 99.7779 225.356 99.9587C222.504 100.142 219.66 100.325 216.792 99.7674C215.326 99.4825 211.998 98.8439 211.998 100.655C211.92 100.64 211.848 100.627 211.781 100.614L211.699 100.599C210.885 100.449 210.87 100.446 210.4 99.59ZM346.227 99.59L351.021 98.5249C349.178 97.7591 347.41 97.9167 346.227 99.59ZM183.234 98.5249C183.899 98.8897 184.059 98.9238 184.832 99.0575C184.167 98.6927 184.008 98.6586 183.234 98.5249ZM336.107 99.0575C337.117 99.3037 337.985 99.2058 339.003 99.0909C339.102 99.0798 339.201 99.0686 339.303 99.0575C338.065 98.567 337.395 98.6916 336.107 99.0575ZM173.441 100.541C170.787 100.394 167.864 100.231 165.656 99.0575C165.867 99.0592 166.083 99.0603 166.305 99.0614L166.309 99.0614C169.192 99.0756 172.959 99.0941 175.244 100.655C174.666 100.61 174.061 100.576 173.441 100.541L173.441 100.541ZM182.247 100.585C180.027 100.436 177.552 100.27 175.777 99.0575L189.093 100.123L190.159 102.253C189.113 102.206 188.438 102.135 187.495 101.72L188.561 101.188C187.739 101.166 186.899 101.271 186.061 101.375L186.06 101.375C184.541 101.565 183.026 101.754 181.636 101.188C182.458 101.188 182.466 101.182 182.95 100.848L182.952 100.847C183.032 100.792 183.124 100.729 183.234 100.655C182.914 100.63 182.584 100.608 182.249 100.585L182.247 100.585ZM197.083 99.0575C197.885 99.4212 198.316 99.4974 199.214 99.59C198.412 99.2263 197.981 99.1501 197.083 99.0575ZM325.454 99.0575C326.118 99.4223 326.278 99.4564 327.052 99.59C326.387 99.2252 326.227 99.1911 325.454 99.0575ZM344.452 99.2348C344.215 99.4718 344.777 99.442 344.807 99.4127C345.044 99.1757 344.481 99.2055 344.452 99.2348ZM352.543 100.122C351.222 100.112 350.109 100.104 348.891 99.59C350.457 99.3403 351.321 99.2124 352.619 100.123L352.543 100.122ZM235.967 99.59C236.632 99.9548 236.792 99.9889 237.565 100.123C236.9 99.7578 236.741 99.7237 235.967 99.59ZM239.163 99.59C239.828 99.9548 239.988 99.9889 240.761 100.123C240.096 99.7578 239.937 99.7237 239.163 99.59ZM242.182 99.7674C241.945 100.004 242.507 99.9745 242.537 99.9453C242.774 99.7083 242.211 99.7381 242.182 99.7674ZM244.49 99.59C245.292 99.9538 245.723 100.03 246.62 100.123C245.818 99.7589 245.387 99.6827 244.49 99.59ZM190.159 100.655C191.531 101.522 192.809 102.039 194.42 102.253C193.366 100.392 192.194 100.214 190.159 100.655ZM219.988 101.188H214.661V100.123C216.478 100.266 218.325 100.442 219.988 101.188ZM221.053 101.188C222.443 101.771 223.941 101.754 225.444 101.737H225.445C226.113 101.73 226.783 101.722 227.445 101.768C231.857 102.07 235.818 102.069 240.229 101.72C239.003 101.206 237.742 101.195 236.45 101.185H236.45C235.938 101.18 235.422 101.176 234.902 101.14C231.859 100.932 228.908 101.014 225.925 101.098L225.924 101.098C224.316 101.143 222.699 101.188 221.053 101.188ZM321.192 101.188C322.755 102.024 323.821 101.804 325.454 101.188C324.36 100.851 323.287 100.969 322.17 101.091C321.848 101.127 321.523 101.162 321.192 101.188ZM202.346 103.184C199.924 102.908 197.518 102.633 195.485 101.188H204.008L203.475 103.318C203.099 103.271 202.722 103.227 202.346 103.184ZM256.564 101.365C256.327 101.602 256.889 101.572 256.918 101.543C257.155 101.306 256.593 101.336 256.564 101.365ZM59.0486 102.252H59.0485C57.7276 102.243 56.6151 102.234 55.3964 101.72L55.4727 101.721H55.4728C56.7937 101.731 57.9063 101.739 59.125 102.253L59.0486 102.252ZM64.9078 102.252H64.9077C63.5869 102.243 62.4743 102.234 61.2556 101.72L61.3319 101.721H61.332C62.6529 101.731 63.7655 101.739 64.9842 102.253L64.9078 102.252ZM210.773 102.855C209.41 102.82 208.044 102.785 206.671 102.785V101.72C207.435 101.72 208.227 101.701 209.032 101.681H209.032H209.033H209.033H209.033H209.033H209.034H209.034C212.373 101.598 215.961 101.508 218.922 102.785C216.199 102.993 213.493 102.924 210.775 102.855L210.773 102.855ZM246.088 101.72C247.03 102.135 247.705 102.206 248.751 102.253C247.809 101.838 247.134 101.767 246.088 101.72ZM317.92 102.785C316.599 102.775 315.486 102.767 314.268 102.253C315.789 102.044 316.696 101.971 317.997 102.785L317.92 102.785ZM52.7331 102.253C53.3978 102.618 53.5576 102.652 54.3311 102.785C53.6663 102.421 53.5065 102.387 52.7331 102.253ZM48.6492 104.206C48.6199 104.235 48.5901 104.797 48.8271 104.56C48.8564 104.531 48.8862 103.969 48.6492 104.206ZM50.6025 103.851C51.5447 104.265 52.2196 104.336 53.2658 104.383C52.3235 103.968 51.6486 103.897 50.6025 103.851ZM181.104 110.774V111.839L181.162 111.82L181.214 111.802L181.288 111.778C181.597 111.677 181.751 111.627 181.854 111.524C181.956 111.422 182.007 111.267 182.108 110.958L182.126 110.903C182.14 110.862 182.154 110.82 182.169 110.774H181.104ZM374.991 22.9004C373.422 23.8601 371.863 24.7857 370.197 25.5632C372.004 26.0963 375.229 25.1856 374.991 22.9004ZM65.3395 26.2731C65.1025 26.5101 65.6649 26.4803 65.6942 26.451C65.9313 26.214 65.3688 26.2438 65.3395 26.2731ZM368.422 26.2731C368.185 26.5101 368.747 26.4803 368.776 26.451C369.013 26.214 368.451 26.2438 368.422 26.2731ZM62.6762 27.8708C62.4392 28.1078 63.0017 28.078 63.0309 28.0487C63.268 27.8117 62.7055 27.8415 62.6762 27.8708ZM351.021 32.4866V33.5517H352.087V32.4866H351.021ZM76.7027 33.5517C77.6268 34.1109 77.7318 34.1088 78.8333 34.0843C78.0311 33.7205 77.6002 33.6444 76.7027 33.5517ZM71.1987 39.5873C70.9617 39.8243 71.5242 39.7945 71.5535 39.7652C71.7905 39.5282 71.228 39.558 71.1987 39.5873ZM51.1351 40.4751V42.0728C51.6758 41.4662 51.8324 41.2143 52.2004 40.4751H51.1351ZM71.7314 41.185C71.4943 41.422 72.0568 41.3922 72.0861 41.3629C72.3232 41.1259 71.7607 41.1557 71.7314 41.185ZM47.9392 43.1379C49.0178 43.2482 49.5728 43.0277 50.6025 42.6054C49.5018 42.3945 49.0557 42.6068 48.0489 43.0858L47.9392 43.1379ZM54.8555 47.9316C53.5259 48.0164 52.7995 48.0628 51.6678 47.3985C52.8679 47.4235 53.7707 47.4656 54.8637 47.931L54.8555 47.9316ZM47.9392 48.9961C48.6726 49.4813 49.2389 49.7439 50.0698 50.0613C49.373 49.2034 49.0727 49.16 47.9543 48.9983L47.9392 48.9961ZM57.527 48.9961C58.9234 49.5985 60.4971 49.7828 62.0322 49.9626L62.0328 49.9626C62.308 49.9949 62.5821 50.0269 62.8536 50.0613C62.8123 50.0876 62.7724 50.113 62.7339 50.1374L62.6838 50.1692C61.8988 50.6673 61.6948 50.7967 61.2556 51.659C62.2543 51.3677 62.9894 51.0678 63.9189 50.5938V49.5287C62.049 48.9759 60.193 48.9847 58.2695 48.9938L58.268 48.9938C58.0222 48.995 57.7752 48.9961 57.527 48.9961ZM52.0231 49.7061C51.786 49.9431 52.3485 49.9132 52.3778 49.884C52.6148 49.647 52.0523 49.6768 52.0231 49.7061ZM59.6576 50.0613V51.1264H60.7229V50.0613H59.6576ZM42.0799 51.1264V52.1916H43.6779V51.1264H42.0799ZM39.9493 53.2567C40.8916 53.6716 41.5665 53.7424 42.6126 53.7893C41.6703 53.3744 40.9954 53.3036 39.9493 53.2567ZM43.6779 53.2567C44.3427 53.6215 44.5025 53.6556 45.2759 53.7893C44.6111 53.4245 44.4513 53.3904 43.6779 53.2567ZM66.5822 56.4521C66.8048 57.8842 66.9641 58.3449 68.1802 59.1149C68.0864 58.1148 67.9469 57.4113 67.6475 56.4521H66.5822ZM64.4516 60.1801L63.9189 58.0498C65.3278 58.2772 65.7624 58.487 66.5822 59.6475L64.4516 60.1801ZM52.7331 70.8314V71.8965H53.7984V70.8314H52.7331ZM60.9003 71.1866C60.871 71.2159 60.8412 71.7783 61.0782 71.5413C61.1075 71.512 61.1374 70.9496 60.9003 71.1866ZM17.5777 132.609C15.7177 132.829 14.1069 132.915 12.2511 132.609C13.4296 130.948 15.0063 131.177 16.7834 131.435H16.7835C17.0441 131.472 17.3091 131.511 17.5777 131.544V132.609ZM290.831 108.111C291.206 108.288 291.587 108.475 291.972 108.665C293.169 109.253 294.404 109.86 295.625 110.241L295.638 110.121C295.718 109.364 295.722 109.33 296.158 108.644C294.751 108.054 293.249 108.078 291.733 108.102C291.432 108.106 291.132 108.111 290.831 108.111ZM275.384 109.176L269.525 109.709V108.644C269.897 108.644 270.273 108.635 270.649 108.627L270.65 108.627C272.267 108.591 273.902 108.554 275.384 109.176ZM276.449 109.176C278.005 109.828 279.558 109.962 280.71 108.644L276.449 109.176ZM274.674 109.886C274.437 110.123 274.999 110.093 275.029 110.064C275.266 109.827 274.703 109.857 274.674 109.886ZM326.519 101.188V100.123H327.584V101.188H326.519Z" fill="#262c861f"/>
<path d="M385.644 0C385.345 0.958621 385.205 1.66267 385.111 2.66284L383.513 2.13027C383.513 3.08729 383.521 2.9403 384.046 3.72797H385.111C385.685 2.3598 386.07 1.42302 385.644 0ZM51.6677 1.5977V2.66284C52.5386 2.37259 52.4427 2.46845 52.733 1.5977H51.6677ZM386.709 2.66284L387.242 3.1954L386.709 2.66284ZM381.205 3.37275C380.968 3.60974 381.531 3.57991 381.56 3.55062C381.797 3.31363 381.235 3.34346 381.205 3.37275Z" fill="#262c861f"/>
<path d="M387.419 4.08318C387.39 4.11248 387.36 4.67487 387.597 4.43788C387.627 4.40859 387.656 3.84619 387.419 4.08318ZM390.438 3.72797C391.026 4.50392 391.26 4.73825 392.036 5.32567C391.503 4.30101 391.462 4.20834 390.438 3.72797ZM385.111 5.85823C386.136 5.32513 386.229 5.28413 386.709 4.26053C385.45 4.51723 385.368 4.59925 385.111 5.85823ZM369.664 4.7931L369.132 5.85823H370.197C370.197 4.87139 370.357 5.13927 369.664 4.7931ZM379.785 4.7931L378.72 6.92337C380.121 7.05118 381.086 6.79236 382.448 6.3908L380.85 4.7931H379.785ZM376.766 6.21345C376.737 6.24274 376.707 6.80514 376.944 6.56815C376.973 6.53886 377.003 5.97646 376.766 6.21345ZM382.981 6.3908L383.513 6.92337L382.981 6.3908ZM39.9493 10.1188L40.482 10.6513L39.9493 10.1188ZM41.0147 11.1839C41.8563 10.8196 41.9612 10.7552 42.6126 10.1188C41.771 10.483 41.6661 10.5475 41.0147 11.1839ZM388.84 10.1188C389.13 10.9895 389.034 10.8937 389.905 11.1839V10.1188H388.84ZM389.905 11.7165V12.7816C390.776 12.4914 390.68 12.5872 390.971 11.7165H389.905ZM38.174 12.959C37.937 13.1959 38.4994 13.1661 38.5287 13.1368C38.7658 12.8998 38.2033 12.9297 38.174 12.959ZM40.482 13.3142L41.0147 13.8467L40.482 13.3142ZM46.8739 13.3142C47.3528 14.4453 47.3405 14.4331 48.4719 14.9119C48.2151 13.6529 48.1331 13.5709 46.8739 13.3142ZM393.101 13.3142L393.634 13.8467L393.101 13.3142ZM56.4617 13.8467L56.9944 14.3793L56.4617 13.8467ZM49.5372 14.3793C50.3394 14.743 50.7703 14.8192 51.6678 14.9119C50.8656 14.5481 50.4347 14.472 49.5372 14.3793ZM55.7517 15.0892C55.5147 15.3262 56.0771 15.2964 56.1064 15.2671C56.3435 15.0301 55.781 15.0599 55.7517 15.0892ZM50.6025 15.4444C51.2673 15.8092 51.427 15.8433 52.2005 15.977C51.5357 15.6122 51.3759 15.5781 50.6025 15.4444ZM39.4167 15.977C40.2386 16.6518 40.5076 16.77 41.5473 17.0421C40.8474 16.1804 40.5475 16.1405 39.4167 15.977ZM53.2658 18.1073H55.3964C54.8222 17.1231 54.8909 17.0602 55.3964 15.977C53.9977 16.4238 53.7127 16.7088 53.2658 18.1073ZM34.9781 16.6869C34.741 16.9239 35.3035 16.8941 35.3328 16.8648C35.5698 16.6278 35.0074 16.6576 34.9781 16.6869ZM43.6779 16.5096C46.2038 17.8522 48.9188 17.2813 51.6678 17.5747C49.4962 15.9296 46.3119 16.5096 43.6779 16.5096ZM56.4617 17.0421C57.404 17.457 58.0789 17.5278 59.125 17.5747C58.1827 17.1598 57.5079 17.089 56.4617 17.0421ZM62.4983 17.3974C62.469 17.4267 62.4392 17.989 62.6762 17.7521C62.7055 17.7228 62.7354 17.1604 62.4983 17.3974ZM38.884 17.5747C40.2002 19.0883 42.8001 19.019 44.7433 19.1724C43.0739 17.9065 40.9268 17.9539 38.884 17.5747ZM59.6577 17.5747V18.6398H60.723V17.5747H59.6577ZM35.1554 18.6398C36.1084 19.3972 36.5968 19.5436 37.8187 19.705C36.9169 19.1394 36.1994 18.8955 35.1554 18.6398ZM45.8086 19.1724C48.1113 20.2061 50.7655 20.2306 53.2658 20.2375C50.9631 19.2038 48.3089 19.1793 45.8086 19.1724ZM41.5473 20.2375C42.4896 20.6524 43.1645 20.7232 44.2106 20.7701C43.2683 20.3552 42.5935 20.2844 41.5473 20.2375ZM46.3412 20.7701C48.3494 21.8374 50.4944 21.8289 52.7331 21.8352C50.757 20.948 48.499 20.8148 46.3412 20.7701ZM54.3311 21.3027C55.626 22.7843 57.7886 22.3678 59.6577 22.3678C58 21.6707 56.1001 21.7239 54.3311 21.3027Z" fill="#262c861f"/>
<path d="M368.422 22.5451C368.185 22.7821 368.747 22.7523 368.776 22.723C369.013 22.486 368.451 22.5159 368.422 22.5451ZM369.664 22.3678V23.4329H370.73V22.3678H369.664ZM378.187 23.9655C379.318 23.4867 379.306 23.499 379.785 22.3678C378.653 22.8466 378.666 22.8343 378.187 23.9655ZM41.5472 22.9004V23.9655H42.6126V22.9004H41.5472ZM43.1452 22.9004C44.3762 23.6422 45.4404 23.8403 46.8738 23.9655C45.6428 23.2236 44.5786 23.0255 43.1452 22.9004Z" fill="#262c861f"/>
<path d="M55.929 23.4329L56.4617 23.9655L55.929 23.4329ZM53.621 26.2731C53.384 26.5101 53.9464 26.4803 53.9757 26.451C54.2128 26.214 53.6503 26.2438 53.621 26.2731ZM56.2843 26.2731C56.0473 26.5101 56.6097 26.4803 56.639 26.451C56.8761 26.214 56.3136 26.2438 56.2843 26.2731Z" fill="#262c861f"/>
<path d="M59.4803 26.8057C59.2432 27.0427 59.8057 27.0129 59.835 26.9836C60.072 26.7466 59.5096 26.7764 59.4803 26.8057Z" fill="#262c861f"/>
<path d="M354.927 31.2441C354.898 31.2734 354.868 31.8358 355.105 31.5988C355.134 31.5695 355.164 31.0071 354.927 31.2441Z" fill="#262c861f"/>
<path d="M360.254 33.9069C360.225 33.9362 360.195 34.4986 360.432 34.2616C360.461 34.2323 360.491 33.6699 360.254 33.9069ZM372.328 35.682C373.027 36.5437 373.327 36.5836 374.458 36.7471C373.725 36.262 373.159 35.9994 372.328 35.682ZM374.991 36.2146C375.933 36.6294 376.608 36.7003 377.654 36.7471C376.712 36.3323 376.037 36.2614 374.991 36.2146ZM49.5371 36.7471V37.8123H50.6024V36.7471H49.5371ZM46.6964 38.5222C46.4594 38.7592 47.0219 38.7293 47.0512 38.7C47.2882 38.4631 46.7257 38.4929 46.6964 38.5222Z" fill="#262c861f"/>
<path d="M363.272 38.8774L363.805 39.4099L363.272 38.8774ZM371.262 38.8774C371.927 39.2422 372.087 39.2763 372.86 39.4099C372.195 39.0451 372.035 39.0111 371.262 38.8774ZM38.7066 39.5873C38.4695 39.8243 39.032 39.7945 39.0613 39.7652C39.2983 39.5282 38.7359 39.558 38.7066 39.5873Z" fill="#262c861f"/>
<path d="M360.076 39.41L360.609 39.9425L360.076 39.41Z" fill="#262c861f"/>
<path d="M372.328 42.0728C374.246 41.7607 375.975 42.1942 377.122 40.4751C375.114 40.482 373.485 40.2876 372.328 42.0728Z" fill="#262c861f"/>
<path d="M371.085 41.185C370.848 41.422 371.41 41.3922 371.44 41.3629C371.677 41.1259 371.114 41.1557 371.085 41.185Z" fill="#262c861f"/>
<path d="M374.814 43.3153C374.576 43.5523 375.139 43.5224 375.168 43.4932C375.405 43.2562 374.843 43.286 374.814 43.3153ZM366.824 43.8479C366.587 44.0848 367.149 44.055 367.178 44.0257C367.415 43.7887 366.853 43.8186 366.824 43.8479ZM31.4268 45.8008L33.0248 44.7356C31.8849 44.1402 31.6788 44.602 31.4268 45.8008ZM356.171 44.3804C355.933 44.6174 356.496 44.5876 356.525 44.5583C356.762 44.3213 356.2 44.3511 356.171 44.3804ZM364.16 44.3804C363.923 44.6174 364.486 44.5876 364.515 44.5583C364.752 44.3213 364.19 44.3511 364.16 44.3804ZM357.946 44.7356C358.748 45.0994 359.179 45.1755 360.076 45.2682C359.274 44.9045 358.843 44.8283 357.946 44.7356ZM368.422 44.913C368.185 45.15 368.747 45.1201 368.776 45.0909C369.013 44.8539 368.451 44.8837 368.422 44.913ZM45.986 45.6234C45.9567 45.6527 45.9268 46.2151 46.1639 45.9781C46.1932 45.9488 46.223 45.3864 45.986 45.6234ZM360.432 45.9781C360.195 46.2151 360.757 46.1853 360.787 46.156C361.024 45.919 360.461 45.9488 360.432 45.9781ZM370.374 46.156C370.345 46.1853 370.315 46.7477 370.552 46.5107C370.582 46.4814 370.611 45.919 370.374 46.156ZM18.6431 46.8659C19.2945 47.5023 19.3994 47.5668 20.241 47.931C19.5896 47.2946 19.4847 47.2302 18.6431 46.8659Z" fill="#262c861f"/>
<path d="M363.805 47.3984L364.338 47.931L363.805 47.3984ZM356.88 48.9961C357.722 48.6319 357.827 48.5674 358.478 47.931C357.637 48.2953 357.532 48.3597 356.88 48.9961ZM395.587 48.1084C395.35 48.3453 395.912 48.3155 395.942 48.2862C396.179 48.0492 395.616 48.0791 395.587 48.1084Z" fill="#262c861f"/>
<path d="M37.8187 50.0613C39.1967 50.6285 40.1203 50.4773 41.5473 50.0613C40.1693 49.4941 39.2457 49.6454 37.8187 50.0613Z" fill="#262c861f"/>
<path d="M361.142 49.5287L360.609 51.659L362.74 51.1264C362.221 50.4501 361.818 50.0469 361.142 49.5287ZM367.534 49.5287C366.746 50.0539 366.893 50.0613 365.936 50.0613C366.746 50.5167 368.037 50.7473 367.534 49.5287Z" fill="#262c861f"/>
<path d="M14.3817 52.7241L14.9144 54.3218C16.4191 54.12 17.755 53.7909 19.1756 53.2567V52.1916C17.3023 51.692 16.1587 51.9753 14.3817 52.7241ZM380.14 52.3689C379.903 52.6059 380.466 52.5761 380.495 52.5468C380.732 52.3098 380.169 52.3396 380.14 52.3689ZM26.1002 53.2567L27.6982 55.387C25.8653 56.0165 25.2256 57.3703 24.5022 59.1149L26.6328 58.5824C24.4798 60.6663 22.7045 61.8965 19.7083 62.3103C21.1694 61.5658 22.0893 61.0684 22.9042 59.6475C20.4119 60.2451 18.6052 61.4194 16.5123 62.8429C18.9935 63.7142 22.4685 63.229 24.7611 61.904C27.8665 60.1092 28.5307 57.7478 32.4921 58.5824C31.6856 56.6518 30.7279 56.0319 28.7635 55.387C29.2887 54.5993 29.2961 54.7463 29.2961 53.7893L26.1002 53.2567Z" fill="#262c861f"/>
<path d="M362.207 54.8544C363.231 54.374 363.272 54.2814 363.805 53.2567C362.674 53.7355 362.686 53.7232 362.207 54.8544ZM365.758 53.4341C365.521 53.6711 366.084 53.6412 366.113 53.6119C366.35 53.3749 365.788 53.4048 365.758 53.4341Z" fill="#262c861f"/>
<path d="M359.011 53.7892L359.544 55.9195C360.4 55.1473 360.643 54.8272 361.142 53.7892H359.011ZM53.9758 54.677C53.9465 54.7063 53.9166 55.2687 54.1537 55.0317C54.183 55.0024 54.2128 54.44 53.9758 54.677ZM19.1757 58.5824C20.4913 58.2266 21.5465 58.005 22.9043 58.0498L22.3716 56.4521C20.8035 56.8302 20.0322 57.2121 19.1757 58.5824Z" fill="#262c861f"/>
<path d="M37.8187 56.9847C39.0609 57.5093 40.1928 57.5071 41.5473 57.5172C40.3052 56.9927 39.1733 56.9948 37.8187 56.9847ZM46.1639 57.162C45.9268 57.399 46.4893 57.3692 46.5186 57.3399C46.7556 57.1029 46.1932 57.1327 46.1639 57.162ZM387.242 56.9847V58.0498H388.307V56.9847H387.242ZM374.991 57.5172C376.484 58.6489 377.938 58.5765 379.785 58.5824C378.248 57.7649 376.723 57.5929 374.991 57.5172ZM380.85 57.5172C382.242 58.102 383.601 58.0461 385.111 58.0498C383.72 57.4651 382.361 57.521 380.85 57.5172ZM49.1819 58.405C49.1526 58.4343 49.1228 58.9967 49.3598 58.7597C49.3891 58.7304 49.4189 58.168 49.1819 58.405ZM53.9758 58.405C53.9465 58.4343 53.9167 58.9967 54.1537 58.7597C54.183 58.7304 54.2129 58.168 53.9758 58.405Z" fill="#262c861f"/>
<path d="M357.236 58.2271C356.999 58.4641 357.561 58.4343 357.591 58.405C357.828 58.168 357.265 58.1979 357.236 58.2271ZM369.664 59.1149C371.44 59.8531 373.134 59.4595 374.991 59.1149C373.215 58.3768 371.521 58.7704 369.664 59.1149ZM36.2207 59.1149V60.1801C37.0916 59.8898 36.9957 59.9857 37.286 59.1149H36.2207ZM368.066 59.1149L368.599 59.6475L368.066 59.1149ZM46.8739 59.6475C47.5386 60.0123 47.6989 60.0464 48.4718 60.1801C47.8071 59.8153 47.6473 59.7812 46.8739 59.6475ZM364.87 59.6475C365.673 60.0112 366.103 60.0874 367.001 60.1801C366.199 59.8163 365.768 59.7402 364.87 59.6475ZM28.2308 60.1801L28.7635 60.7126L28.2308 60.1801ZM45.2759 60.1801V61.2452C46.1468 60.955 46.0509 61.0508 46.3412 60.1801H45.2759ZM367.534 61.2452C369.223 61.651 371.099 61.2596 372.86 61.2452C371.076 60.4969 369.364 60.7046 367.534 61.2452ZM28.0535 61.4226C27.8164 61.6595 28.3789 61.6297 28.4082 61.6004C28.6452 61.3634 28.0828 61.3933 28.0535 61.4226ZM365.226 61.4226C364.989 61.6595 365.551 61.6297 365.58 61.6004C365.817 61.3634 365.255 61.3933 365.226 61.4226ZM35.1554 61.7778V62.8429H36.2207V61.7778H35.1554ZM49.0045 62.8429C50.1497 63.3781 51.198 63.6577 52.2004 64.4406C53.6945 63.6934 54.8142 63.7461 56.4617 63.908C54.7156 61.8353 51.4483 62.7939 49.0045 62.8429ZM25.0349 63.3755V64.4406H27.1655V63.3755H25.0349ZM374.281 63.5528C374.044 63.7898 374.606 63.76 374.636 63.7307C374.873 63.4937 374.31 63.5235 374.281 63.5528ZM384.046 63.908C384.711 64.2728 384.871 64.3069 385.644 64.4406C384.979 64.0758 384.819 64.0417 384.046 63.908ZM18.1104 68.7011C19.8298 67.9838 21.5854 67.7734 23.4369 67.636V68.7011C21.4469 68.8764 19.809 69.1299 18.643 70.8314L20.241 70.2988C19.3435 70.9954 18.725 71.4992 18.1104 72.4291H21.3063L20.7736 75.6245C22.3903 74.8496 23.7794 74.2111 25.5676 74.0268C25.0887 72.8956 25.1009 72.9079 23.9696 72.4291C25.3593 70.9635 26.2275 70.7265 28.2308 70.8314C27.2257 69.2507 25.5436 69.0026 25.0349 67.1034H23.4369L23.9696 64.9732C21.0245 64.5391 18.9072 65.7843 18.1104 68.7011ZM364.87 64.4406L365.403 64.9732L364.87 64.4406ZM379.252 65.5057L381.915 64.9732C380.69 64.4853 380.117 64.505 379.252 65.5057ZM49.3598 65.1505C49.1227 65.3875 49.6852 65.3577 49.7145 65.3284C49.9515 65.0914 49.3891 65.1212 49.3598 65.1505ZM51.1351 64.9732C51.7999 65.338 51.9597 65.3721 52.7331 65.5057C52.0683 65.1409 51.9085 65.1068 51.1351 64.9732ZM56.9943 65.5057C57.1051 66.3903 57.258 66.3259 56.4617 66.5709C57.3603 67.9023 58.1065 68.2804 59.6576 68.7011C59.1356 66.9953 58.709 66.0916 56.9943 65.5057ZM60.5456 65.6831C60.3085 65.9201 60.871 65.8902 60.9003 65.861C61.1374 65.624 60.5749 65.6538 60.5456 65.6831ZM363.45 65.861C363.42 65.8902 363.391 66.4526 363.628 66.2157C363.657 66.1864 363.687 65.624 363.45 65.861ZM66.5822 66.0383C67.5244 66.4532 68.1993 66.524 69.2455 66.5709C68.3032 66.156 67.6283 66.0852 66.5822 66.0383ZM33.5574 67.636L31.9594 67.1034C31.2409 68.3012 31.1551 68.4317 29.8288 67.636L30.3615 67.1034C29.2301 67.5822 29.2424 67.57 28.7635 68.7011C30.7279 68.7634 31.9621 69.1469 33.5574 70.2988L34.0901 68.1686H37.286C36.3075 67.3772 33.8701 65.8626 33.5574 67.636ZM372.328 67.636C375.587 69.0004 380.072 67.375 383.513 67.1034C380.181 65.7049 375.795 67.1972 372.328 67.636ZM50.0698 69.2337C51.1506 68.4423 51.974 67.9774 53.2657 67.636C51.5271 66.9751 50.6397 67.513 50.0698 69.2337ZM386.532 67.2808C386.295 67.5178 386.857 67.4879 386.887 67.4587C387.124 67.2217 386.561 67.2515 386.532 67.2808Z" fill="#262c861f"/>
<path d="M360.609 67.636C361.451 68.7789 361.921 68.7917 362.74 67.636H360.609ZM380.85 68.1686C382.194 68.6958 383.171 68.4971 384.579 68.1686C383.268 67.6956 382.227 67.9198 380.85 68.1686ZM26.1002 68.1686L26.6329 68.7011L26.1002 68.1686ZM38.3513 68.1686C39.1535 68.5323 39.5844 68.6085 40.482 68.7011C39.6798 68.3374 39.2489 68.2612 38.3513 68.1686ZM70.3108 68.1686L69.7781 69.7663C70.7188 69.2449 70.8195 69.1155 70.3108 68.1686ZM71.9088 68.1686C71.7926 69.067 71.7894 69.402 71.9088 70.2988C72.2869 69.3615 72.2869 69.1059 71.9088 68.1686ZM369.487 68.3459C369.25 68.5829 369.812 68.5531 369.842 68.5238C370.079 68.2868 369.516 68.3166 369.487 68.3459ZM44.0332 68.8785C43.7962 69.1155 44.3586 69.0856 44.3879 69.0563C44.625 68.8193 44.0625 68.8492 44.0332 68.8785Z" fill="#262c861f"/>
<path d="M384.579 69.2337C385.243 69.5985 385.404 69.6326 386.177 69.7663C385.512 69.4015 385.352 69.3674 384.579 69.2337ZM29.2961 69.7663C29.9609 70.1311 30.1207 70.1652 30.8941 70.2988C30.2294 69.934 30.0696 69.8999 29.2961 69.7663Z" fill="#262c861f"/>
<path d="M365.936 69.7663C366.587 70.4027 366.692 70.4672 367.534 70.8314C366.882 70.195 366.777 70.1306 365.936 69.7663ZM371.085 69.9436C370.848 70.1806 371.41 70.1508 371.44 70.1215C371.677 69.8845 371.114 69.9144 371.085 69.9436ZM377.122 69.7663C377.571 70.7084 377.942 71.1978 378.72 71.8966C379.952 71.1765 381.082 70.7169 382.448 70.2989C380.769 69.6422 378.916 70.0523 377.122 69.7663Z" fill="#262c861f"/>
<path d="M364.338 70.2988C364.991 71.3826 365.245 71.5376 366.468 71.8965C365.726 71.1328 365.279 70.8074 364.338 70.2988ZM372.327 70.8314C373.794 71.7559 374.876 72.2187 376.589 71.8965C375.232 70.4708 374.203 70.3217 372.327 70.8314Z" fill="#262c861f"/>
<path d="M361.674 70.8314C362.339 71.1962 362.499 71.2303 363.272 71.364C362.608 70.9992 362.448 70.9651 361.674 70.8314ZM355.815 71.364C356.187 72.1985 356.281 72.5814 356.348 73.4943L360.076 72.9617C361.029 76.2189 363.655 74.0119 365.938 73.768C368.189 73.5273 369.375 74.7101 370.73 72.4291C367.914 72.5032 365.299 73.2514 362.74 72.4291C362.74 73.3862 362.747 73.2392 363.272 74.0268H361.142V72.4291H357.946L358.478 71.364H355.815ZM368.422 71.5413C368.185 71.7783 368.747 71.7485 368.776 71.7192C369.013 71.4822 368.451 71.512 368.422 71.5413ZM382.093 71.7192C382.063 71.7485 382.034 72.3109 382.271 72.0739C382.3 72.0446 382.33 71.4822 382.093 71.7192ZM30.3615 71.8966V72.9617H34.0901V71.8966H30.3615ZM371.795 71.8966C372.317 72.8461 372.279 72.7455 373.393 72.9617C372.741 72.3253 372.636 72.2608 371.795 71.8966ZM38.1739 72.6065C37.9369 72.8435 38.4994 72.8136 38.5287 72.7843C38.7657 72.5474 38.2032 72.5772 38.1739 72.6065ZM376.589 72.4291C377.24 73.0655 377.345 73.1305 378.187 73.4943C377.535 72.8578 377.43 72.7934 376.589 72.4291ZM50.0698 73.4943V74.5594C50.9407 74.2692 50.8448 74.365 51.1351 73.4943H50.0698Z" fill="#262c861f"/>
<path d="M358.479 73.4943L359.011 74.0268L358.479 73.4943ZM373.393 73.4943C373.609 74.6084 373.509 74.57 374.458 75.092C374.09 74.3528 373.934 74.1009 373.393 73.4943Z" fill="#262c861f"/>
<path d="M370.73 74.0268V75.0919H371.795V74.0268H370.73ZM45.2759 74.5594V75.6245H46.3412V74.5594H45.2759Z" fill="#262c861f"/>
<path d="M367.001 75.0919C367.652 75.7283 367.757 75.7928 368.599 76.1571C368.077 75.2075 368.115 75.3081 367.001 75.0919ZM5.85925 76.1571V77.2222H6.92457V76.1571H5.85925ZM367.001 76.6896C367.41 77.3894 367.366 77.3457 368.066 77.7548L367.001 80.4176C365.919 80.2456 365.413 80.2365 364.338 80.4176C366.803 81.4114 368.36 79.8211 370.197 78.2873C369.265 76.9836 368.597 76.8094 367.001 76.6896ZM374.636 77.0448C374.606 77.0741 374.576 77.6365 374.813 77.3995C374.843 77.3702 374.873 76.8078 374.636 77.0448Z" fill="#262c861f"/>
<path d="M372.15 77.9322C371.913 78.1692 372.476 78.1393 372.505 78.11C372.742 77.873 372.179 77.9029 372.15 77.9322ZM382.981 78.2874V79.3525H384.046V78.2874H382.981ZM388.13 78.4647C387.893 78.7017 388.455 78.6719 388.485 78.6426C388.722 78.4056 388.159 78.4354 388.13 78.4647Z" fill="#262c861f"/>
<path d="M365.758 78.9973C365.521 79.2343 366.084 79.2045 366.113 79.1752C366.35 78.9382 365.788 78.968 365.758 78.9973ZM7.98987 79.3525C8.93214 79.7674 9.60702 79.8382 10.6532 79.8851C9.71088 79.4702 9.03601 79.3994 7.98987 79.3525ZM371.795 79.3525C372.888 79.818 373.791 79.86 374.991 79.8851C373.898 79.4196 372.995 79.3775 371.795 79.3525Z" fill="#262c861f"/>
<path d="M374.458 80.9502C375.805 81.5035 376.683 81.5323 377.654 80.4176L374.458 80.9502ZM378.542 80.595C378.305 80.8319 378.867 80.8021 378.897 80.7728C379.134 80.5358 378.571 80.5657 378.542 80.595ZM29.6514 81.1275C29.4144 81.3645 29.9768 81.3347 30.0061 81.3054C30.2432 81.0684 29.6807 81.0982 29.6514 81.1275ZM371.262 80.9502C372.194 81.6185 372.784 81.8097 373.925 82.0153C373.105 81.0551 372.542 81.0396 371.262 80.9502Z" fill="#262c861f"/>
<path d="M381.916 81.4828C382.858 81.8977 383.533 81.9685 384.579 82.0154C383.637 81.6005 382.962 81.5297 381.916 81.4828Z" fill="#262c861f"/>
<path d="M372.86 82.5479C374.927 83.4144 377.097 82.9479 379.252 82.5479C377.227 81.7219 375.007 82.4558 372.86 82.5479Z" fill="#262c861f"/>
<path d="M387.064 83.7904C386.827 84.0274 387.39 83.9975 387.419 83.9682C387.656 83.7313 387.094 83.7611 387.064 83.7904Z" fill="#262c861f"/>
<path d="M376.589 84.6782V85.7433H377.654V84.6782H376.589ZM378.187 84.6782C378.852 85.043 379.012 85.0771 379.785 85.2107C379.12 84.8459 378.96 84.8118 378.187 84.6782Z" fill="#262c861f"/>
<path d="M369.664 85.2107V86.2758L374.458 85.7433C372.919 85.0973 371.329 85.2118 369.664 85.2107Z" fill="#262c861f"/>
<path d="M380.85 86.2759L380.317 87.8736C381.597 87.7841 382.16 87.7687 382.981 86.8084C382.068 86.7413 381.685 86.6476 380.85 86.2759Z" fill="#262c861f"/>
<path d="M378.897 88.2288C378.867 88.2581 378.838 88.8205 379.075 88.5835C379.104 88.5542 379.134 87.9918 378.897 88.2288Z" fill="#262c861f"/>
<path d="M372.86 90.5364C372.335 91.3235 372.328 91.1771 372.328 92.1341H374.458C373.94 91.4577 373.537 91.0546 372.86 90.5364ZM375.524 90.5364L376.056 91.0689L375.524 90.5364ZM377.122 91.0689C377.786 91.4338 377.947 91.4678 378.72 91.6015C378.055 91.2367 377.895 91.2026 377.122 91.0689ZM382.981 91.6015L382.448 92.6666H383.513C383.513 91.6798 383.673 91.9477 382.981 91.6015Z" fill="#262c861f"/>
<path d="M372.86 93.1993C373.793 93.8676 374.382 94.0588 375.524 94.2644L374.458 92.6667C373.501 92.6667 373.648 92.6741 372.86 93.1993Z" fill="#262c861f"/>
<path d="M378.719 93.1992V94.2644C379.59 93.9741 379.494 94.07 379.785 93.1992H378.719Z" fill="#262c861f"/>
<path d="M376.056 95.3295C376.998 95.7443 377.673 95.8152 378.719 95.862C377.777 95.4472 377.102 95.3763 376.056 95.3295Z" fill="#262c861f"/>
<path d="M374.281 96.0394C374.044 96.2764 374.606 96.2466 374.636 96.2173C374.873 95.9803 374.31 96.0101 374.281 96.0394Z" fill="#262c861f"/>
<path d="M365.936 98.5249C367.071 98.1116 367.412 97.9231 368.066 96.9272C366.931 97.3405 366.59 97.529 365.936 98.5249ZM370.73 96.9272C371.394 97.292 371.555 97.3261 372.328 97.4597C371.663 97.0949 371.503 97.0609 370.73 96.9272Z" fill="#262c861f"/>
<path d="M377.477 97.6371C377.24 97.8741 377.802 97.8443 377.832 97.815C378.069 97.578 377.506 97.6078 377.477 97.6371Z" fill="#262c861f"/>
<path d="M362.03 98.1697C361.793 98.4067 362.355 98.3769 362.385 98.3476C362.622 98.1106 362.059 98.1404 362.03 98.1697Z" fill="#262c861f"/>
<path d="M358.478 98.5249C358.179 99.4841 358.04 100.188 357.946 101.188L351.021 101.72C353.368 104.934 358.875 101.682 359.544 98.5249H358.478ZM372.683 98.7023C372.446 98.9392 373.008 98.9094 373.038 98.8801C373.275 98.6431 372.712 98.673 372.683 98.7023Z" fill="#262c861f"/>
<path d="M369.132 99.0575C369.934 99.4212 370.365 99.4974 371.262 99.5901C370.46 99.2263 370.029 99.1502 369.132 99.0575Z" fill="#262c861f"/>
<path d="M367.889 99.7674C367.652 100.004 368.214 99.9745 368.244 99.9452C368.481 99.7082 367.918 99.7381 367.889 99.7674Z" fill="#262c861f"/>
<path d="M362.207 100.123V101.188H363.805V100.123H362.207Z" fill="#262c861f"/>
<path d="M372.86 100.655L373.393 101.188L372.86 100.655Z" fill="#262c861f"/>
<path d="M332.201 101.898C331.964 102.135 332.526 102.105 332.556 102.076C332.793 101.839 332.23 101.868 332.201 101.898ZM333.976 102.253V103.851C331.042 103.222 323.715 103.737 322.258 106.513C326.285 106.34 330.042 105.185 333.976 104.467C336.761 103.96 340.052 103.721 342.499 102.253C339.666 101.56 336.872 102.398 333.976 102.253Z" fill="#262c861f"/>
<path d="M373.215 102.43C372.978 102.667 373.541 102.637 373.57 102.608C373.807 102.371 373.245 102.401 373.215 102.43ZM346.227 102.785V103.851H347.293V102.785H346.227ZM363.805 102.785C364.47 103.15 364.63 103.184 365.403 103.318C364.738 102.953 364.578 102.919 363.805 102.785ZM323.856 103.318C324.52 103.683 324.68 103.717 325.454 103.851C324.789 103.486 324.629 103.452 323.856 103.318Z" fill="#262c861f"/>
<path d="M318.529 104.916C319.643 104.699 319.605 104.8 320.127 103.851C319.286 104.215 319.181 104.279 318.529 104.916ZM339.835 105.448L337.172 104.916C339.294 106.354 340.933 105.728 342.499 103.851C341.066 104.073 340.606 104.232 339.835 105.448ZM355.282 105.448C356.326 105.193 357.044 104.949 357.946 104.383C356.525 104.31 356.291 104.431 355.282 105.448ZM360.432 104.028C360.195 104.265 360.757 104.235 360.786 104.206C361.023 103.969 360.461 103.999 360.432 104.028ZM366.468 103.851L367.001 104.383L366.468 103.851ZM349.956 106.513C350.656 106.104 350.612 106.148 351.021 105.448C352.47 105.602 352.812 105.541 353.685 104.383C351.935 104.714 350.361 104.625 349.956 106.513ZM358.478 104.916C359.467 106.092 360.71 106.216 362.207 106.513C362.795 105.737 363.029 105.503 363.805 104.916C362.074 104.3 360.307 105.003 358.478 104.916ZM314.801 108.644L315.333 108.111C315.128 107.193 314.934 106.759 315.333 105.981C314.24 105.515 313.337 105.473 312.137 105.448L313.203 107.579H310.539C311.23 106.73 311.357 106.504 311.605 105.448C310.441 106.097 308.804 108.019 311.063 108.725C312.103 109.049 313.682 108.568 314.801 108.644ZM316.931 105.448C317.505 106.432 317.437 106.495 316.931 107.579L321.725 107.046C320.532 105.358 318.893 105.466 316.931 105.448ZM334.331 105.626C334.094 105.863 334.657 105.833 334.686 105.804C334.923 105.567 334.361 105.596 334.331 105.626ZM326.519 106.513C327.289 107.729 327.749 107.889 329.182 108.111L328.65 107.046C329.65 106.952 330.354 106.813 331.313 106.513C329.766 106.037 328.145 106.445 326.519 106.513ZM343.564 108.111C344.931 107.606 345.445 107.209 346.227 105.981C344.622 106.251 344.164 106.598 343.564 108.111ZM347.293 107.046C348.407 106.83 348.369 106.93 348.891 105.981C348.049 106.345 347.944 106.41 347.293 107.046ZM354.217 106.513C355.266 107.08 356.24 107.329 357.413 107.579C357.006 105.678 355.847 105.922 354.217 106.513ZM333.444 106.513C334.108 106.878 334.269 106.912 335.042 107.046C334.377 106.681 334.217 106.647 333.444 106.513ZM340.368 106.513L339.835 108.644C341.273 108.336 341.321 107.972 341.433 106.513H340.368ZM351.021 107.579C351.949 107.73 352.733 107.665 353.685 107.579C352.596 107.166 352.169 107.263 351.021 107.579ZM305.745 108.111C306.909 109.174 307.512 109.368 308.941 108.644C307.714 108.161 307.05 108.018 305.745 108.111Z" fill="#262c861f"/>
<path d="M321.725 107.579L322.79 109.176C323.386 108.037 322.924 107.83 321.725 107.579ZM335.042 109.176C336.173 108.697 336.161 108.71 336.64 107.579C335.509 108.057 335.52 108.045 335.042 109.176ZM348.358 107.579C345.518 108.54 342.285 109.412 339.303 109.709V111.839C339.668 111.174 339.702 111.015 339.835 110.241C341.453 110.214 349.053 109.324 348.358 107.579Z" fill="#262c861f"/>
<path d="M319.062 108.111C319.753 109.134 320.016 109.345 321.192 109.709C320.502 108.686 320.238 108.475 319.062 108.111ZM325.276 108.288C325.039 108.525 325.602 108.496 325.631 108.466C325.868 108.229 325.306 108.259 325.276 108.288Z" fill="#262c861f"/>
<path d="M332.378 108.644L332.911 109.176L332.378 108.644ZM303.082 110.774L305.745 109.709C304.354 109.244 303.856 109.562 303.082 110.774ZM313.203 109.176V110.774H314.8V109.176H313.203ZM327.052 109.709C328.141 110.109 328.434 110.058 329.182 109.176L327.052 109.709ZM333.444 109.176V110.241C334.314 109.951 334.219 110.047 334.509 109.176H333.444Z" fill="#262c861f"/>
<path d="M300.952 109.709V110.774H302.017V109.709H300.952ZM324.388 111.307C325.219 110.989 325.786 110.727 326.519 110.241C325.212 110.167 325.094 110.204 324.388 111.307ZM279.645 111.307C279.666 112.505 279.49 113.362 279.113 114.502C280.496 113.612 280.719 112.942 280.711 111.307C282.011 111.248 283.173 111.079 284.439 110.774C282.751 110.169 281.296 110.689 279.645 111.307ZM331.313 110.241V111.307C332.184 111.016 332.088 111.112 332.378 110.241H331.313Z" fill="#262c861f"/>
<path d="M285.327 110.951C285.09 111.188 285.652 111.158 285.682 111.129C285.919 110.892 285.356 110.922 285.327 110.951ZM321.192 110.774L320.66 113.437C321.445 112.406 321.614 112.003 321.192 110.774ZM327.052 111.306C327.935 111.523 328.246 111.471 329.182 111.306C328.219 111.001 328.08 111.059 327.052 111.306ZM350.311 110.951C350.074 111.188 350.637 111.158 350.666 111.129C350.903 110.892 350.34 110.922 350.311 110.951ZM251.947 111.306V112.372H258.339C256.42 111.061 254.207 111.306 251.947 111.306ZM260.469 112.904V113.969C265.212 113.595 270.11 112.221 274.851 112.372C272.9 110.951 270.702 111.82 268.459 112.265C265.771 112.798 263.202 112.904 260.469 112.904ZM275.384 111.306C276.035 111.943 276.14 112.007 276.982 112.372C276.46 111.422 276.498 111.523 275.384 111.306ZM306.811 111.306V112.372H307.876V111.306H306.811ZM314.801 112.904C315.932 112.425 315.92 112.438 316.398 111.306C315.374 111.787 315.334 111.88 314.801 112.904ZM348.713 111.484C348.476 111.721 349.039 111.691 349.068 111.662C349.305 111.425 348.743 111.455 348.713 111.484ZM243.957 111.839C245.496 112.485 247.086 112.371 248.751 112.372C247.212 111.726 245.622 111.84 243.957 111.839ZM333.976 111.839C334.641 112.204 334.801 112.238 335.574 112.372C334.909 112.007 334.749 111.973 333.976 111.839ZM194.42 114.502C195.513 114.967 196.416 115.009 197.616 115.034L195.485 115.567C197.38 116.472 199.651 116.117 200.279 113.969L207.736 114.502C206.117 114.981 204.63 115.03 202.942 115.034C206.843 116.686 211.127 115.651 215.194 115.567C213.509 114.86 211.685 115.034 209.867 115.034C215.356 113.367 220.833 114.655 226.379 113.969C221.788 112.043 215.375 113.828 210.4 112.904C207.672 114.662 203.439 112.419 200.287 112.671C198.183 112.84 196.602 114.342 194.42 114.502ZM230.108 112.372C235.812 114.766 244.239 113.437 250.349 113.437C248.345 112.596 246.105 112.994 243.957 112.857C239.337 112.563 234.744 112.372 230.108 112.372ZM278.58 112.372L276.449 112.904C276.701 113.658 276.883 113.87 277.514 114.502C278.354 113.773 278.832 113.432 278.58 112.372Z" fill="#262c861f"/>
<path d="M296.69 113.969C297.987 113.623 298.439 113.352 299.353 112.372C298.057 112.718 297.605 112.989 296.69 113.969ZM340.368 112.904C341.17 113.268 341.601 113.344 342.499 113.437L341.966 114.502C343.627 114.228 344.219 113.762 345.162 112.372L340.368 112.904ZM180.926 113.082C180.689 113.319 181.252 113.289 181.281 113.259C181.518 113.022 180.955 113.052 180.926 113.082ZM191.757 112.904C192.699 113.319 193.374 113.39 194.42 113.437C193.478 113.022 192.803 112.951 191.757 112.904ZM318.884 113.082C318.647 113.319 319.21 113.289 319.239 113.259C319.476 113.022 318.914 113.052 318.884 113.082ZM328.827 113.259C328.798 113.289 328.768 113.851 329.005 113.614C329.034 113.585 329.064 113.022 328.827 113.259ZM267.394 113.969C268.487 114.435 269.39 114.477 270.59 114.502L269.525 115.034C271.352 115.74 272.62 114.69 274.318 113.969C272.171 113.094 269.683 113.922 267.394 113.969ZM294.027 113.437C294.692 113.802 294.851 113.836 295.625 113.969C294.96 113.605 294.8 113.57 294.027 113.437ZM335.574 113.969C336.799 114.457 337.373 114.437 338.237 113.437L335.574 113.969ZM251.414 113.969C253.099 114.676 254.922 114.502 256.741 114.502C255.056 113.795 253.233 113.969 251.414 113.969ZM274.318 114.502C275.408 114.902 275.701 114.851 276.449 113.969L274.318 114.502ZM231.173 114.502C231.173 115.459 231.181 115.312 231.706 116.1H229.575C231.369 116.846 232.555 116.052 234.369 116.052C235.597 116.052 236.852 116.551 238.098 116.632C237.296 116.268 236.865 116.192 235.967 116.1C237.769 115.246 239.351 115.265 241.294 115.034C238.381 113.812 234.316 114.502 231.173 114.502ZM247.508 114.679C247.271 114.916 247.834 114.886 247.863 114.857C248.1 114.62 247.538 114.65 247.508 114.679ZM259.227 114.679C258.99 114.916 259.552 114.886 259.581 114.857C259.818 114.62 259.256 114.65 259.227 114.679ZM262.6 114.502C263.542 114.917 264.217 114.988 265.263 115.034C264.321 114.62 263.646 114.549 262.6 114.502ZM285.504 115.034C286.539 115.366 287.075 115.267 288.168 115.034C287.079 114.622 286.652 114.719 285.504 115.034ZM321.192 114.502C321.858 114.867 322.017 114.901 322.79 115.034C322.126 114.67 321.966 114.636 321.192 114.502ZM192.999 115.39C192.97 115.419 192.94 115.981 193.177 115.744C193.206 115.715 193.236 115.153 192.999 115.39ZM217.147 115.212C216.91 115.449 217.472 115.419 217.502 115.39C217.739 115.153 217.176 115.183 217.147 115.212ZM218.922 115.034C219.864 115.449 220.539 115.52 221.585 115.567C220.643 115.152 219.968 115.081 218.922 115.034ZM253.012 115.034C252.224 115.56 252.371 115.567 251.414 115.567C252.225 116.022 253.516 116.253 253.012 115.034ZM254.61 115.034C255.019 115.734 254.976 115.691 255.675 116.1C254.222 116.531 252.932 116.621 251.414 116.632C253.93 117.688 257.226 117.165 259.937 117.165V116.1H256.741L257.806 115.567C256.713 115.102 255.81 115.06 254.61 115.034ZM314.8 115.034C315.465 115.399 315.625 115.433 316.398 115.567C315.734 115.202 315.574 115.168 314.8 115.034ZM318.706 115.39C318.677 115.419 318.647 115.981 318.884 115.744C318.914 115.715 318.943 115.153 318.706 115.39ZM335.574 116.1C336.416 115.735 336.521 115.671 337.172 115.034C336.33 115.399 336.226 115.463 335.574 116.1ZM186.43 115.567C187.095 115.932 187.255 115.966 188.028 116.1C187.363 115.735 187.203 115.701 186.43 115.567ZM248.751 115.567C249.23 116.698 249.218 116.686 250.349 117.165V115.567H248.751ZM262.6 116.1C263.708 116.37 264.644 116.226 265.796 116.1C264.559 115.609 263.889 115.734 262.6 116.1Z" fill="#262c861f"/>
<path d="M220.52 116.632C221.61 117.032 221.903 116.982 222.651 116.1L220.52 116.632ZM239.163 116.1C239.965 116.463 240.396 116.54 241.294 116.632C240.492 116.268 240.061 116.192 239.163 116.1ZM243.247 116.277C243.01 116.514 243.573 116.484 243.602 116.455C243.839 116.218 243.276 116.248 243.247 116.277ZM247.508 116.277C247.271 116.514 247.834 116.484 247.863 116.455C248.1 116.218 247.538 116.248 247.508 116.277ZM300.419 117.165C301.26 116.8 301.365 116.736 302.017 116.1C300.903 116.316 300.941 116.215 300.419 117.165ZM332.378 116.1C333.044 116.464 333.203 116.499 333.976 116.632C333.312 116.267 333.151 116.233 332.378 116.1ZM179.506 116.632C180.308 116.996 180.739 117.072 181.636 117.165C180.834 116.801 180.403 116.725 179.506 116.632ZM187.495 116.632V117.697C188.366 117.407 188.27 117.503 188.561 116.632H187.495ZM189.626 116.632C191.311 117.339 193.134 117.165 194.953 117.165C193.268 116.458 191.445 116.632 189.626 116.632ZM197.616 116.632C199.008 117.217 200.367 117.161 201.877 117.165C200.485 116.58 199.127 116.636 197.616 116.632ZM203.475 116.632C208.445 118.737 214.275 117.208 219.455 117.165C215.125 115.348 208.17 116.632 203.475 116.632ZM268.459 116.632L267.927 118.23C268.867 117.708 268.968 117.579 268.459 116.632ZM279.113 116.632C279.778 116.997 279.937 117.031 280.711 117.165C280.046 116.8 279.886 116.766 279.113 116.632ZM296.158 116.632L296.69 117.165L296.158 116.632ZM323.856 116.632C324.521 116.997 324.68 117.031 325.454 117.165C324.789 116.8 324.629 116.766 323.856 116.632Z" fill="#262c861f"/>
<path d="M243.247 117.342C243.01 117.579 243.573 117.549 243.602 117.52C243.839 117.283 243.276 117.313 243.247 117.342ZM244.845 117.342C244.608 117.579 245.17 117.549 245.2 117.52C245.437 117.283 244.874 117.313 244.845 117.342ZM262.6 118.23H265.263C264.149 117.392 263.567 117.155 262.6 118.23ZM303.437 117.342C303.2 117.579 303.763 117.549 303.792 117.52C304.029 117.283 303.467 117.313 303.437 117.342ZM329.005 117.342C328.768 117.579 329.33 117.549 329.36 117.52C329.597 117.283 329.034 117.313 329.005 117.342ZM235.967 117.697C236.619 118.334 236.724 118.398 237.565 118.762C237.043 117.813 237.082 117.914 235.967 117.697ZM324.744 117.875C324.507 118.112 325.069 118.082 325.098 118.053C325.335 117.816 324.773 117.845 324.744 117.875ZM165.124 118.23C166.365 118.754 167.498 118.752 168.852 118.762C167.61 118.238 166.478 118.24 165.124 118.23ZM181.104 118.23C183.399 119.258 185.598 118.759 188.028 118.831C192.646 118.967 197.231 119.295 201.877 119.295C199.868 118.452 197.636 118.862 195.485 118.715C190.67 118.385 185.944 118.23 181.104 118.23ZM206.138 118.23C207.433 119.711 209.596 119.295 211.465 119.295C209.818 118.585 207.925 118.456 206.138 118.23ZM219.987 118.23C221.081 118.695 221.983 118.737 223.183 118.762C222.09 118.297 221.188 118.255 219.987 118.23ZM218.212 118.94C217.975 119.177 218.538 119.147 218.567 119.118C218.804 118.881 218.241 118.91 218.212 118.94ZM251.947 118.762C252.482 119.618 252.585 119.846 252.48 120.893C253.916 120.585 253.965 120.221 254.078 118.762H251.947ZM260.469 118.762V119.828C261.34 119.537 261.244 119.633 261.535 118.762H260.469ZM265.086 118.94C264.849 119.177 265.411 119.147 265.441 119.118C265.678 118.881 265.115 118.91 265.086 118.94ZM316.398 120.36C317.423 119.827 317.517 119.786 317.996 118.762C316.737 119.019 316.655 119.101 316.398 120.36ZM236.5 119.295V120.36H238.098V119.295H236.5ZM282.131 119.472C281.894 119.709 282.456 119.68 282.486 119.65C282.723 119.413 282.16 119.443 282.131 119.472ZM274.674 120.537C274.437 120.774 274.999 120.745 275.029 120.715C275.266 120.478 274.703 120.508 274.674 120.537ZM308.941 120.36L308.409 121.425H309.474C309.474 120.438 309.634 120.706 308.941 120.36ZM310.539 120.36C311.341 120.724 311.772 120.8 312.67 120.893C311.868 120.529 311.437 120.453 310.539 120.36ZM236.322 121.07C236.085 121.307 236.648 121.277 236.677 121.248C236.914 121.011 236.352 121.041 236.322 121.07ZM281.243 120.893C282.045 121.256 282.476 121.333 283.374 121.425C282.572 121.062 282.141 120.985 281.243 120.893ZM283.906 120.893V121.958H285.504V120.893H283.906ZM265.263 124.088C266.13 123.242 266.741 122.449 267.394 121.425C266.037 122.156 265.696 122.607 265.263 124.088ZM270.413 121.603C270.176 121.84 270.738 121.81 270.767 121.78C271.004 121.543 270.442 121.573 270.413 121.603ZM306.633 121.603C306.396 121.84 306.959 121.81 306.988 121.78C307.225 121.543 306.663 121.573 306.633 121.603ZM257.806 122.49C258.471 122.855 258.631 122.889 259.404 123.023C258.739 122.658 258.58 122.624 257.806 122.49ZM298.111 122.668C297.874 122.905 298.436 122.875 298.466 122.846C298.703 122.609 298.14 122.638 298.111 122.668ZM251.947 123.023C252.889 123.438 253.564 123.509 254.61 123.556C253.668 123.141 252.993 123.07 251.947 123.023ZM267.749 123.2C267.512 123.437 268.075 123.407 268.104 123.378C268.341 123.141 267.779 123.171 267.749 123.2ZM271.655 123.023C272.457 123.387 272.888 123.463 273.786 123.556C272.984 123.192 272.553 123.116 271.655 123.023ZM245.732 123.911C245.703 123.94 245.673 124.502 245.91 124.265C245.94 124.236 245.969 123.674 245.732 123.911ZM253.545 124.088L253.012 125.153H254.078C254.078 124.166 254.237 124.434 253.545 124.088ZM284.972 124.088C285.672 124.95 285.972 124.99 287.102 125.153C286.369 124.668 285.803 124.406 284.972 124.088ZM289.588 124.265C289.351 124.502 289.914 124.473 289.943 124.443C290.18 124.206 289.618 124.236 289.588 124.265ZM244.312 125.331C244.075 125.568 244.638 125.538 244.667 125.508C244.904 125.271 244.342 125.301 244.312 125.331ZM247.863 125.508C247.834 125.538 247.804 126.1 248.041 125.863C248.07 125.834 248.1 125.271 247.863 125.508ZM231.706 125.686C232.406 126.547 232.706 126.587 233.837 126.751C233.06 126.175 232.639 125.986 231.706 125.686ZM271.655 126.218C272.177 127.168 272.139 127.067 273.253 127.284C272.602 126.647 272.497 126.583 271.655 126.218ZM268.282 127.461C268.045 127.698 268.607 127.668 268.637 127.639C268.874 127.402 268.311 127.432 268.282 127.461ZM260.825 127.993C260.588 128.23 261.15 128.201 261.179 128.171C261.417 127.934 260.854 127.964 260.825 127.993ZM253.9 128.526C253.663 128.763 254.226 128.733 254.255 128.704C254.492 128.467 253.929 128.497 253.9 128.526Z" fill="#262c861f"/>
<path d="M25.5675 133.674C26.5098 134.089 27.1847 134.16 28.2308 134.207V133.142C27.2305 133.235 26.5269 133.375 25.5675 133.674ZM23.2595 133.852C23.0225 134.089 23.585 134.059 23.6143 134.03C23.8513 133.793 23.2888 133.822 23.2595 133.852ZM18.643 137.935C21.9402 139.317 26.2227 137.798 29.8288 138.467C27.6305 135.952 21.644 137.806 18.643 137.935ZM10.1205 137.935V139C10.9914 138.71 10.8955 138.806 11.1858 137.935H10.1205Z" fill="#262c861f"/>
</svg>
